<mxfile host="Electron" modified="2023-08-06T01:26:24.985Z" agent="Mozilla/5.0 (Windows NT 10.0; Win64; x64) AppleWebKit/537.36 (KHTML, like Gecko) draw.io/21.6.5 Chrome/114.0.5735.243 Electron/25.3.1 Safari/537.36" etag="k0mk602KfkWq_5Rf3Hix" version="21.6.5" type="device">
  <diagram name="페이지-1" id="xLReVOl8Q1A39Fzz8kSx">
    <mxGraphModel dx="922" dy="539" grid="1" gridSize="10" guides="1" tooltips="1" connect="1" arrows="1" fold="1" page="1" pageScale="1" pageWidth="827" pageHeight="1169" math="0" shadow="0">
      <root>
        <mxCell id="0" />
        <mxCell id="1" parent="0" />
        <mxCell id="PJXzIF6TXpeEWLcsnp0K-14" value="" style="group" vertex="1" connectable="0" parent="1">
          <mxGeometry x="190" y="180" width="791" height="380" as="geometry" />
        </mxCell>
        <mxCell id="PJXzIF6TXpeEWLcsnp0K-17" value="" style="rounded=0;whiteSpace=wrap;html=1;" vertex="1" parent="PJXzIF6TXpeEWLcsnp0K-14">
          <mxGeometry x="60" y="222" width="280" height="88" as="geometry" />
        </mxCell>
        <mxCell id="PJXzIF6TXpeEWLcsnp0K-7" value="" style="whiteSpace=wrap;html=1;aspect=fixed;" vertex="1" parent="PJXzIF6TXpeEWLcsnp0K-14">
          <mxGeometry x="30" y="87.5" width="120" height="120" as="geometry" />
        </mxCell>
        <mxCell id="PJXzIF6TXpeEWLcsnp0K-2" value="" style="shape=image;verticalLabelPosition=bottom;labelBackgroundColor=default;verticalAlign=top;aspect=fixed;imageAspect=0;image=https://blog.kakaocdn.net/dn/lNAtn/btribzxkkc7/YPt5yZXz22ngkUQsHPfaJ1/img.png;" vertex="1" parent="PJXzIF6TXpeEWLcsnp0K-14">
          <mxGeometry x="52.5" y="110" width="75" height="75" as="geometry" />
        </mxCell>
        <mxCell id="PJXzIF6TXpeEWLcsnp0K-12" value="" style="shape=image;verticalLabelPosition=bottom;labelBackgroundColor=default;verticalAlign=top;aspect=fixed;imageAspect=0;image=data:image/png,iVBORw0KGgoAAAANSUhEUgAAAQYAAACiCAYAAACjz2NwAAAAAXNSR0IArs4c6QAAAARnQU1BAACxjwv8YQUAAAAJcEhZcwAAFiUAABYlAUlSJPAAAFDOSURBVHhe7b0HcFzZeS74de5GN4AGGhkgwZzTDCfPaEaTFEYaBVvys8rycyjXq91X5a3det6q562t8tuqra3a3Vfr9Oz3HNaWVsnySGNZmixNICcyDHMmQYAgcu5G57jfd7qbBAGQBEkQBMj7kRd9+/a95570f+f/T/iPrUDAggULFqbAXvq0YMGChUuwiMGCBQszYBGDBQsWZsAiBgsWLMyARQwWLFiYAYsYLFiwMAPWcOVdivDkJP78H7+Htz74GMlUqnT19iGfz8PlduOP/+D38IWnn4TX6yn9YmEpwtIYLFiwMAMWMdxDkGqYt9mRm6cjD1sxYAt3HSxT4i7FdFNChDAZrEc82MjzeRBo1hp7Lo3qsX74YmEUcjnLlLiLYBHDXYoriCGZRNpTge7NjyG89QmWeklRdDiAbI4necDp5gfP8zzXdaNe8Lud5+KRbLZ4buezOZ6LXBJRtO5/Ew0XjgOZjEUMdxEsU+IeQcHmQMZfDVTWGIFGkoc/CHs8DOdwD1Bdx5tIChNDJAkKtQR/nOciCZKKY6SX5JAGKqqAyCiJIMVnQsh7/eQQy6S422ARw70Cya6EPRlH8NxBBDoOA7EJVJ7Zj9a9rwEkCPeFk2g89B4wfBHu/g6EDr8D91A3MDaAZfvfgPPiKTjCQwgd2YXg+SMkBxKFhbsSFjHca6B54Ka24ErGjEngikXgnxw353Ze88UjQDoFRyqJAH9zSvipKQSiY3ClErDxPnd8kmHwecsKvWthEcO9Dsn2VEtghlVQvGDjfWUasOjg7odFDBYsWJgBixgsWLAwAxYxWLBgYQYsYrBgwcIMWMRgwYKFGbCIwYIFCzNgEYMFCxZmwCIGCxYszIBFDBYsWJgBixgsWLAwAxYxWLBgYQYsYrAw6+IH2ywrI8rLKMyntWDiroZFDPcg8nY7D4c5L1DKM3K+IirQdX5qdXaBVSPHk4K+8Mg4nFOesc2PFygLixYWMVwFcmyVzWaRTmeW5JHJZI3n5hnw+DDZvBrxphWAL4DosnXoX/cA4PUjG2rD6MotQLAe6domjLVvRrqyFgjUoG/N/cjUtSDnr0a4fRMm9TzJwsLdCcu12yxQlsTiCXRd7MHw6BgK+SWWRWzMU+k0fv7Oezh88jTSmQxS3gA6H3gesfufvexghcSA+GTxe01D0bNTJsnrVVQrsvweK94jAoiOG1KRNydEJwCnC8hm0PL+y2g4+ylsDONed+2Wy+XM4XQ6YTda2NKFRQyzIM8s6enrx/d//ip2f3oQNra8VLBLvy4NqFBjsRgSqZQhurTLg5629RhvW3e5pZc5UC5+c64T/imbCfpt6rnyQF9LzzhTCbSdP4Ta4YsoULu6l4lBhNA7OIjO7h60t7WipbEBbhfJc4nCIoZZIBW8s/si/tuPXsLbn+ylxrAUHaXb2GpdjrX8MubsDtO/UJTuW4dCcVCzsOdz9/SGMxKhweER/PDnr+GVDz7C/Rs34N9+5QWsX7USHo+7dNfSgtXHcBUU2bKoJ9jZako1tOng+bz9U7ilsM2hsOftKFbYMjTK4Mpl4E4neSTm5XDxsMtj9D0M5fFkNIY33/8QL//qXYyNjGLXnn2mUdl76IgxSZdi22tpDLNArd95agx/86Of4J1P9qj0kaP6Ha4MISvbukQbV0AMMltOXuO6k+p35eQY3LTVFX6iqhZp2fSS6nmAjS25f2yQQpxEnm1A3OfnESiONJgbeJTjVn7l9Lhe7TrBygN/LIwKmhQFvute1BgSiSTeo1b5p9/9AUbHxnhFFFyA0+HA2vbl+NaLL+CxnfchWFW5pPodLGKYBbMRwzgF6uLjX0O2ru3yvgran0F7L+hThU4700iQg+Shzjtlrex5uWVnmGZfBl3TOQnGHh1D08e/QPNoHyZJOj2PfRnxNfcpBgyT97ooXBRq893OcPScwtd17fOQz1zuL9C7DWkxXiQaE59MCs2v/B1ae84g6alAx4aHkFj/YDG+QjnOip9L+0rwU+kpDUuac7mPvxQmz02aS+ln3OoPv4eW7pOw8/d7jRjS6TQOHDuJP/vO/8f60mP6pgz4IXJQHrU3N+Frzz+L5z/zKOpDIUMYSwGlGmLhetCYvtmUhULkoyA4xgZgyyTh6euAe6zfkIV3oAOugU4jR7aJIXh7zxrhdIVH4e05bbwwO6gh+LpPGM/L6uEvlOcGUEgLbp8R1MC5I3AMXDCC6O46Dn/HUSBJ1b2/E57OY7CxhXYOXkDg+CdAPAZ7ZAK+0/thHx+CfXIc3nOH4JgYMaMI2RJxqMrmRRxMh2ukB87RXiP4rqEuVHQxfFZqe2QUnt4zZs8Je5ThkFAUZ41U+C8chz08BFsuDXffOaZ5wJBGQYfy5h5DjiTa0z+IH77yGs5duGi+51iGkUAtwtV1pj9HGlXPIO/5xat46dU30d3bh4wIfQnAIoYbgVqEVBw1p/fB3X/eCGF1x0EEJEzxMGo6DqGyU/stJGHn73Vn9gMigsEuVFNwHeFhuIe70XjyYyBCtbPcwpSh7/EIao7uhlf7NsQnUXn8Q9Qd+8Bcr6BwVh37EI7RAbhJEHX732L44/zej9qDb8PVe46C3o1qPu/mO4sazDQw/gESm49Cr+FJP4mngWHqupPP1Jz5FJhgPEd6Uc34u8aHzTsaT3wEG8O2RyfMdb/SLC3iHkU8kcD7+z/FoVNnjIapxiDir0HP5ifRs/15jDSuQoaaYz5XwMj4BF7+5Tv4J5LDhZ5eMz9mscMihhsFhddhVHpTF+DM05407TG18VweLv4mV+uy771Sxalh2Hm4eG7Xs7zHK1NE6nvpuRngvbYchY73uyjcDoXDt9l5u5PP2vQs36PwjDnAcJy8x6HvhF3xK8VxBti6S4dw6l6d6x2le/WcR3ErhW3CMSqxHW6+k7Ey73bxnuJv9yY0NHmhpw+79h1AIp4wncZppxeDK7Yjse5hJNc9hKEdn8NQ63pkZKIxLyejUbz1wUd4+c23qWkMmDAWMyxiuElc0YFX/DMLplwv3V8U3avdX8bU33Ve+j7tsWJY06FpzObj2ijH/ypQ2CYcwXxeL8B7B/FEEp8cPGxMA3W6mmtV9Yivf9jMEtUs0szyjRjZ+UWSw0ZkSQ7KvSjJ4Vcffoyf/epdDI6MFjWNRQqLGCxYuAGoL2FgeBifnjiFiclJcy3rcKN33YMo1LaUNDjC5UG2aRWGHvoS+pZvNaNO0hzGw2G8uftDvP7e+zyP8NLs9H6nYRGDBQs3APUPdFy4iL7BIVp8bPGpCkxUVCFFzcCMRk0FySBftxzDD38V/U1rzeQyEcHg6CheeXeX0ToSSY06LT5YxGDBwhyhtl2CfOTsOQxRuDWxNGdzYLB9S3GtSVlbmApdq2nG0BPfxEhdu1mhKrOiZ2AIv3hnF06c7TBrWRYbLGKwYGGOUJ/A0MgYLvYPIJXOkCgKSDhdSK7YStPBW7prFpAJCqEW9O/8IsaDTaZ/R52P+0+cxGu7PsDA0PCi62+wiMGChTlCpoPWRIyOjRttQaM10co6oLbVCPs1QU0h27oOg5s/g2iglo/azMKz3Xv34+ODh8zw52KCRQwWLMwRuXwOQ2NjmAiHjTkgZzYT9e2Ax399YhA8PmoX2zG4+n6k3BUmjPFIBK/v+hAdF3oW1RCmRQwWLMwB6l+Q+TBEbWEiGjPTn7Mkg3TdstJU9DmAGkahsgax1Tsx2qQJUMWRitOdXXj9vd2ITEZLN955WMRgwcJcQAGOxeNmFqOZ1qxhRmkJNY2UohsQI5kUoRaMrbqPJkWIF0guJJy39+zD0dNnkVkkHZEWMViwMAdomFErKTVJSeda2l5weVDwVc7NjJgKlxeZto2ItqxFzkx+KmCCJsVr1BrC1BoWw9wGixgsWJgDJKzRRLw4qSlv1k5iojKE/LVGI64GkUogiLEVW03npWbR5rI57D1+Emc7LyyKtRQWMdyDuMH2zQJh5jBQY0jycDgoNjYHUv4qFJylZe83CocT2abViNc2I8+wNMqRpKny7id7SEB33rmLRQzzjlsVOzlhu3qluPov0997nXio4l2z8un30qkFI6jJTBqxZNKc55m9MZePrf0t+FfwVGBo2RbEZY4Qmuh0+Mw59A9qXsOdzXyLGK4Cm/6x8GeIFy/Kx0FBPcw6tzvMOnz1OGecrtJvFG19l1MOnud5rvuMysjf0/LrwGtXBcMxfhrM/Qy/5EchZ3ea1Xpmai3D0W/8wYSVc+iZYpzyOr9q+AqH9xhioFbM9yjeCl/Pa6mwznWfftM1nRfTwnN+lxcr+Ru415DN5Iz37cut+YzacWNQGbasQSTYaMpLvkVHx8dx9JQ8e5c8ed8hXKN2Lm5oplgylUKMqp0mh8zrwVbBVAAzG21a4bs8mFi+AdkQVUAyfaRlNaKhVjNGPa5C5iGHLvlQC0ba1gK8J1HTiIm2dcj6g0jWNmFwxWagIsDAZqlYHj9tzy1INa0E3F5M8l1j2uuhguE0LkekfTNylbXINK/A+NqdJpxcTQMm1uxAmmppNliPSYafDWqK7pTwy6cklmhDO+KN7YDXh2hTO4YVvtODDOM5vmw9QPs3zXDCPM/6q81qwcH2TWbab84bYFo2IFrfxvDljKQUrnkBiTKXQzw1/2USM59JY3/fKTXb9CxMffetRkMEzPyNNK82ZKsOzWgsjoOnzpi03kksSdduIgUtW33v00MYGhkhu80iYLeEAiKTkzh04hQ6L/aY8h+jcPQ8+iIJgSQgXwlSIdWayn+BClgtqM4VF9mdWo6rQy2w8Z+gc41b8xbdRwG1xyfR9Mkv0DzSi8mqEHoefgHxlVuLDlAUXoWf+upk8T0kCVDgTFjeCpi9IDIpQ0gmXHlakss3xUX3mTjk0fz6P6Cl9yySvK9jw8NIikxMkfPQc0qL1FbGpxhnhi/tQPeU46w0yeOUzqU1mPTzM51E09HdaLx4Gg4Sgp3PPbFzB9qXtcIhV3TzCAmltKinGP7m1SvhWmDX7Bqi3PXJXvz5d76PgeERZFnrzqzeifgT3zREetNQHnefwPq3v4NAIgJ+w9aNG/An//7fYSXz8Vp+ImcTXZHLfGBJEoNapeOnz+I/f/cHOHbmrHFgMl8ZcgnKlrIAEUkK+HDramSoAczHmxSqNmmp7+tAIBlFmoIfppaQYksvc8AI+HSYh4qnBorfNe6zUZhrOo/DH5ugiePACDWKeE3TvOWVXeEPXURldFwVqXhRhGGCn593lKHlzuro+59/97fw9eeeRoWPhLiAEDF8sO9T/CXrXM/AIDJMnyGGx2+RGJRv4WG0vfE3aBi9aIR99fJl+B9/57fw0I5thgB1zbiOYxz0qf6HLBuXdKaoPSkIU2X4z+12kpSLHs316WC5y8/kjTqiXZrEwAw6fuYc/pTsfYT22KUqOM8pMfJTEiIFXe4nmDcw613UAIxQMVz1ReiYL6gTU3s+lIU2x7CzPOYrCQrXwfgbT1ICP81Z6eu8oBRXCYP8S/7R730bX//cc/BXLCwxZLM57Dt8xBDD6a4LrAcOXKDJN/7kt1Co1ESlW0Aihqp3v4fVnQephxTQXF+Hb3/ly3j+M4+ZehGNxzE+MYHu3n7TBzEZT5hhU83ATKYzhiycJSII+Lyo9FeYI1RdjZamRjTV1yNYXYkKr9dsguPkIa9T18KSJoY/IzEcPX3GXFMi5lOoylCll4ApfKmy+jZfUEi2wmXB1Uax8xm+ILdyJkQJrYjHtBzz8w7lisI3xGDCL5LbfMKQG8MuE8N/kMZwB4hB6xiOUUv96+/9CPuPnzTX+hvbMfj8HyAfbDTfbxo0Ce17XsG2w7+EE3kEKirw8LYtWEXN4VRXN3ppumQ0IkKCSKdSzBMb0pQBHbkcNSnmj7qTpAlKO3BRs9KntIYK5pOXhFBTWYkta1Zi05rVWL2ynaQRhI/XnU7eNwtJ3DXEkKJ9fWblNuS0L8N89KmywvuiY2jpP0/bj6o+wz+/+VGkquv44/wIljMWxqpTe+Gjqq/w+xpXIqwptrcyBDYFtmwKq84fRmV80oyW9LWtw/jy9RSw+bDPWW2ScbScP4K6kV5DbsN1rehrXsXsnx/7Xx6pa0Z70DZQdGyrkZg7RQzq1+qgkP7tP72Ed/fuR4HxSVYEcObF/wnZhvbSXTcJ9Tmd/gQ7dv8IDppnEmjTslO4tT7D+GtQlWMe62OupqBE2wg377eTsF0uJ3zUKJpqa7Bj4wY8+dADWLdqJSoDfkMmU3HXEMOYvxqdT38LqKJaV+4oUweeztURpoSnEkwxSUMdbWUPxxo61D3qBNIsNu2ZoILi805WyJZD76JufAARfxUufOXfI9O6uti5x0Izz2rfB71HQ35mDwhCnYPpFMPhO9RpqLAZ50vnptOwAvaJITS/+vdo6u9EmPHv2fE0kur9N/s2KJ6eUpwZpuJmOgr5vN5bDtPD6ypChak4iBR1n9LPdNXvegnLBi8gzfeZTW13Pm8qioHCV5z1Po2lKx+UL25eN2HyXHml+1Px4ntNmkv5mIyhefdP0HiagsLgjmx8BIWtT/CM9+t5xUfxNJ2time+GE/lg6BzU04MS+8SYU0tJ4ZadWY/lh/ZDRfvvaPEwPT09g/g7/75p3h91wfMsiyyzL+TX/5D1on1l/P0ZkDSwbl92P7O9+HMsjwUFrNPYl0OVflb1ljNMHWBvyjfTD5dhpwQF+lAZmTREbHMSaG470VxGF56ZG0wiM8+eB+ee+wRrFnRbjbF0Ya8Ih7HfyLMU0sIYm/tQv3JoSPGk44Q8/gQXr0D9mQUXlZUeTOmkgVnx+HisCMruPf4RyhMjqPg88Pecxb2sQEz19198TSPU8hJGxjthYutYF73MEMDFFq/0RjcmFi1HXlWTteBt1GgXWijkLgYptzI5ylM7iMfoDB0EYX6ZbCdPQjX2QPIewNw9nXAceZTFCqqYBu+CN+R95GlXWqjgFTyeoDPpyjgGvrMen1wyYU736mVeI7Te+Ea7TdDlI6+87D3d5g424cuwH3+EONcDxs1DzcFSDPobBRaj/aJUCWi9uS/cBLV0QkzJ3+8bS0ytY1wKn9GelAgGblOfIKKU/uQ5m823uvieZ55aRsfhPPknqJ2QfKo2PsGsiQcpdl5aBds8Yh5vpL5GBjpM2UwqCFQag0Kx8n45UlG7oFOeLqZt4EgCpERuE/vQ44kq/0q3MwfOVPV4ew8Yj61u7ZH7vKpRRVqGuBjGdWQ2FThJQiP7diGjatX3ZENYyVYZ6k1HGWjpLhKaIdqmpFvXGHy+6YhgR3tQ3PXIbMXqCCTTPNX0m4f0t5KRCuqMRxahpGmVehZtsUMHw+t3M5jG4bat/LYgqHlmzHYug5DLeswXNuCSCBETdqHAstM81zECDQmi2RD+UjRLDnXfRF7jhw1ruqkNQT8fuatcz507kUEZrCTanN17xl4WbERDaOZguSZJHmwcodYQYP950xnTyUFtJaVF4lJ+HlezQpuS8VgD49imfZciEWKBVaGIWESDFuz1nMH4eYzDgp0TdcxBLTJDMNs6j6Bip7T5h5tPNOmPSai46giWTRRpXeFh+FkvFo7DpjrJrzpoDbSwjgHGL7iHBzsQojmDBi3KqrVIWoxDgplgOp7e9cJxjMMV2wcrXyvKzxi0tp48Qx8E0w/1d0ZYJg1DK9S+04ozL6zaD2zzxCRZ7AbrYyzbWIYnrF+NHccgpdx1r4SK87uJ0H1wUGBres6gloS5qz7SpA8vCSypkH+TpKu4HmQcVOctZfG6ou0z5nnTpZNLclYv2tb/UaSp94pbaS69yyqlWZpGosEakW9Hg+a60K019loqLVmpXCzTGbNh5sB60OG5B7zBzFa344eCv65LU/h1MNfRednv42Rx34dkfu+gMK6R4CV9wEtG4BGarCNNN90NPG8jRrn8q0orH8M8fs+h6HHv4GOJ34Dp+//IrrWPIihpjUIV9UVJ80R0r6HR8fx+u4P8Wff/SF+/OobOH2+8y4jBqLAzJX9Z7QECrY9T+WrJOBGkSqpqNraXqqW7jHPqEUSyPyGUY2aZs5mQHs4UOHlfQpf+0WU31XcP0Lnal3K4es+7fmg0HTNOBEtvmVWaN8Kp5414fOcz+rcwbSoONWjfOlduo+/63510hXbMUJxv8orpE0p/SZu2fK+FXyHSYcuK3/4bsazmHd6t+5TnPR8MYyrQb8p3xWWeV4Epfv5vEmXgjRQHHnwHoVv7jXvViquEvk7CHXUtTbWozFEzVJlwLgGx6gtkVQV71sCW/Xh+hXoJRlc2PI0uh/4MsZIAmmRQPMaQJ6iqDlAu5XJvJMGYMywaYeuSehlJlJjA7VU+ZwsUJuIbn0GfQ9+BZ1bn0fvih0YrW0qzcIVB2fNtow/+MXr+OjAobuPGEwqp2LK12LRXb4wsyj5myGD8nEtzBIOL009v24Qt4ypL5gSnzmnoQRzfwnmtPR96jlRTtvMfJuGKcEZXPF9enjTby7jatfvHDQc2NzQgHpqDeU8qKJ5hOFukl6pYblZBBvRu/05jOz4AhKrdwJyRU8zVDNSjcBP60uYO5iPelZEIqKoqkeeZsfofZ9Hz5bPYoSaicwWEbEWh9VWBbByWdvdSAwWLNweyJyoranG8uYm+L3FDlRvNo3ARe1FmjLfbxo+tuzUGEAzwnTwmj6L20COagSkVVD7yFc1mNEwQR2W6nh87L7t2Lx2jUUMFizMFSIGjf1vWbsaTfV15rtMyVAPiWF0gNJ1XV1qJmRaaWRI/SnXMF/nHSQ0DzWd+uELRTOR721vbsTjO+9DbbDaIgYLFm4E6rlft3olVlHddpY68KqjYbjPHSwK+I1ARKIhW617udU+ihsBycg+3oe6c/vgT0aNWeR0u/GZBx/AJpKeRnwsYrBg4Qag0YhQMIidmzeistJvOplduQxaLhw2Q443JODqkDUdswtICnpXfAKBU++jbrzffFeH/KbVq/AozYhgZWVREyrdbsGChTnC63Hj/q2b0d7SCs1SlPpfFR1F9ckPKHThuQm6OitT1BYWckhWRBSbgOfUR1jRc9aMrokE6mqCePaxh7FhyqpVixgsWLhBSGtQH8MLTz6KYFVVSWvIoqn3DNyaXKaZoVcFSUOkoJmxmmm6UNqC+jKi43Cf2YeV5/YzvmnwCrw+Lz7z0AN44oGdV6xYtYjBgoWbgDohH6Mw3U+Twu5wUr4L8FFrqD/5EVx954pCPwMiBXU2LnC/AknLFhmG/9werOjYC386bvoV3C5qPps24otPPo7G+lBp0lYRFjFYsHATkApeU12Frz33NJY1NZjp92aEYqQbdSd2w6mZm+pYnIqFJgW9g3Gwj/ag6vTHaDv3qXEGozfLZNi+YS1+7flnaUKsmrGIyiIGCxZuAlqvo+nEVQE/mkK1cJTWSrioKdT1nELw6LuwD/dc7kOQfb9gpMDw1akZj8DdcxJ1x3ejpesw/IlJ85vmK2xbvw6/+eILeHD7Vmo/HkN0U2ERgwULNwD5ZZBfhAs9fXh91/v4h5/+K8739F7yh6A5SXKim3e6zWpQXuRTElQSg1aQ3lZSYNimUzMB2/AFBE5+gLZj76Kp7zR8qZi5w8F4PUwy+J1fexEP8VOrVKeTgmARgwUL14H6D+QTITw5iTPnu/DyG7/Cf/6H7+Jvf/wyPth/AGMTYaNBaCp6zF+Dvo2PIbzjORRCzZQwipgxIZIMiJ+3CyVC0JCp58T7aPn0FSw/tw/BiQE4tQyf8Pp8eO6xh/H73/w6dm7dck33eHchMUxj5ClftZhp6oUrebL0mxjdsPrl+2bA/FT6nR+Xwpl2Xr6l+Fn8cvmd5R+vg+m3XfG9/EWfxXOFX174NGdMbcVKzxpfUleEo2tFXE7DVTD91Vd8nxre1PCn42rXFwYiA5kK8trcPzSMj0gA8t70J3/5X6kl/Az7Dx/D8Mgo5TFn7s24vOhvXoOOR76GiR3PI1fXVlzMJFJIUmDnawXmJTB/RAYZEo6GSIc6UXn0V1j+8UtYc/ojNIz1wpeO8x7low31tbX47a98CX/wG79mpjxrpei1cPcRg82BggpEzizI1nJqcclPo83OfBJra++F0r4M0gHVqyzVT1Wevxd0TQU6VWCmIOuwQcVcYPaZPRakMvIZfWbNajW76eE1a+D5mXfYkZF6yfDlSclWmjE3E3wvn83SBizvSZEz5yom7fNgR0rv4Tepq2mFoxaJaVa4ef4mn4HGRZzibirFNChMu9JeXJiTd7nMXhVG5WWY2kdCqzfzSht/N3nHa2mnx7xDuLYLN77bybSW4q/PvMJXPHmYMBQmD0MNiifDUnzMHhbmNzkkuY2t6yxQPGQmJJMphCOTxj/B/qPH8d2XXsZ//D//H/zxn/4VfvrW2+joumA8iOdyWVN1lJfhqgacePhr6H/md5FZ+xAK1BpMeueLFExZMiwRgUY7kjQLJseAwfNwHd+F+t0/xEYea059jAZqCN50wqz8VF56vB5s27AW/8O//Rb+zZe+gBVtrXPysL1gjlqU8fN1yPnl0OgY9hw+eslRS1xeluVIxedHzOtHWowdCGLS7UO2psksTpn0eJEI8XptI9JuDxLV9QB/S/LZmM7rWlHwVCBcUWnUQHsmjcqyoxbeM7HuAeSr6zDhrkCuZTXyDCfOd6Xk2itYj4gvgHTDcqBhGXKs3BN1LUDTSiR9lZgMNiDfssrsRTGudzWvYrnZLjtqYfgR/p5lmBEKYUpxDjYiSWFN1DahUNts4pmorDVx0/3hyhAKje3IM40RxjvL92UrqhFlnDLa94Gf/gsnio5aSFjjrWuQaVmDBJ9NhRg33p+gQE4w/gXtIcF7wjUNKDBuWX8VIpU1yDYxbQxzlHmZ5/V8TSOifD6udBpHLacvO2rRtaYV5l1RPltgGlKMQ7QqhLziw1ZqzMu8rW81+1NEKwLIMM9RGTRxNq75mb4YiSSh+DGv5dshWHLUoslEWuSzftUK04E2W9243qE5B9onUvuGmP0qYgmM0xQQEWg7ejl8ffWd9/D//uRneOnNt3HgxCmMjI8jzfulQanMzMY8rANhpu/8+kcx/Pg3kF+2oegFi+Ulfi+SAltzah0zoLTEJ2GPT9DEiBvnOjMPXk9FYU9MwhYdgz08BMd4Pxz9Z+DtOoTGE7vRenYfmkkOwdgE3NmUiZ9Z7k8y9ldUYHlrK379c8/gt7/+IrZv2oiAv4J8dTVCvxIMiyHdZsg+G6LaNVqyxW4VOWZsZ3cvXnrjLbOGXJigMJ9/7GvG65FhVrVoan3K58qQcg+xWi1dV8pVkAWd84u5LnbmfWLboYtoOf4RaiIjiLLQu577LaS1EYxaAD2nllwFb8Lnd4WvSqGWXPdcCpNp1jukQeiaeoxZse2RUbS+8yM08D2T/kr0bHwU8bZ1DEARY0B6tmQfXo4zf9MyXHPOcBWm7te7FQc9p990TjWz+ZNX0Uy7M0Nh7tz2GUS3Pcl7lDelMMvxVKuu5xRXXTfxZJg6Vz5OT7PeRMJs3fs66juPmttPaNObjQ8V7yvHU3HUoXNpAUq7whT0vhnlpHwsptmWyyN4/jCWnd4LB9+v+QK/89Uv4YkH7ofbzfheB0oiX26ERVsOSCOQD0XjZTkcMTtMT7L1HxgeQQ/NhYGRMbPZEGNhNAI1QILx4WFjGCS8uIg32GQ23Uku2wRU1RV9HygNBso3psWMQCgd/D4VjIttcgR+tu6VAx3IkdQzRsssP1+EfFo4c2m4WIaOdBKeTApO5oFbz/PWoq+Pojem8huczB+5Z5Nn6Ae2bMJnHrwfK6khqC9BbuRvBLedGBS8XF7//Jfv4t09+0zhlErs5sEYJ1iAI+MTSGhaKaFt1i42rkT+qmr6jUHs6yNbhyaGTKEYZ6rN2lfiKjtI3ShUuNRImvo74E3FGb4Lo9Q6Yqx4l0yfW4Sdlbt56AJ8qaRxfT8aasIktQ+b/AXeMgrGcakcwfqp8ej7GFv7CWkc1JbmA1r1FyR5BsMjpjzsJKW2hnpT+a/n/rwMtfAiBu3BkGSrL1fsEWoJKQqtTAHVTzn1UXgiAn0v9tLLXKKMU+hj3irkqNXEalsw3rIOuQYtj65mBFnXrojHFFIoE+50sEw0hNh84A2EIsPm+auWt4lL6VwNFslJfhNM/PQcL3tJkJXUDkK1NWhrbsLOTRtoOqxHc2O9IQQ5lL0ZLAgx9A0MGu+6r+7+0Ng+xYy/NZgC1VH6LpS82c0bFFox+4sotR/m73xBfQJlqNjnuzAuhW/y6hqV8CYgYTWh6Q/Phfl2Hz81fwQJcJaahCYUzQVaTlwWjnKdMSMI/F7MCf6VkDHehghIoOpIjFdUIV1ZZ7bti9S2GjPNeFGSdlDWeK4AQ7weKQjUsqpOf4j247vglkZGlNX7cpxURHkSQU75yy86FJw8SPlcLuNeXpOr6kMhagcNWNbYYPoOVixrQ1UgYHw23qiGMB0LQgydVPf//B+/h/cPHCpVpGKn1rVebO67AZj7b0dKGHC5wKzwZ8HtDl8oveMS+OXKJuFqKDmIM3+EYp0TLYjknayH8vQcCdQg4a9BnmSQoyaQ5nmK13JV9UXNwHSeUtAksbOCocoUkvZ6LVKg6u8Y6UHDwTfQPNhhouVhi99QGzRLuNMkA7fDBheFurg/hMvsC6GWX0d1VQBVfj9qqDHV19SYjWRCfFYjDOpzMXtJXDWON4YFIYZTHefxf//NPxjvuiqUuMeP0Zpm4wH3qlDL4/bAZmxoCxZuHWbCEYUnb3eZTmaHt4I2vhcpb2XRRGS9NG7uy6MoqoPXFTSRAmnGdDTO0qcwFTRJvZ2HsfzgawikYgzeYfoCvvCZx1ETrKaGQLKifSMXciIHTVPWqILIw0fh18Yx2hvCTcKQliFXbGWNYr6xIMRw9NQZ/O9/9d/Q1dOHLN/WW7cCI1ufRr5KHYWlG6dDBmBFJXNKHTOlaxYs3DRYiSRARtjZ+lPw2MQWv5vOWFUy/W5uniPKpKAhSZkF1xYlW3gE1QfeQHvPMdN/4vZ48e9+89fxteeeQSBAUtI95i8hgZ/yWRb+20ECs+G2E4M6fo6cOIX/7S/+Gj2DQ8gymRdaN2L8vs8B1Q284yoJVQb4mFnqTFygzLBgYe6YSgrSFK6DXA7Oi8fRvvdnqJbXJMqFnKP84e/8FnZu3WxMgcUE0eXtBTNAw5XxZMpkhjqsNFRXZGoKvIT+aodQ/rRgYdHgBklBSMfg6zqCSq1j4FeZBfdv22w8Mt9qR+HtwG0nBvUAJ0gKGkc2mpYEXeaBOnMsWFhyYCVWXb7a5KXZQLPBNjGIxoFzcGgTYzaKrY0N2LpuLaqriq7UFhtuPzFQQ9D4scaNy1aLsZosTcDCUoPq79Qhyev0KVxCKo6KzsMIlFzMO6gxr1+1EmtXtM/wg7BYcF1ikDDfajeEyEFHOSMvzYm3YGFJgPVWw5HypVAekpwrKeSysI32oqX3lOlw1FONdbV4aOtmfl7pNWk+cKuyWsZ1Y5VhSx+Nxag1zVFtui5ICGbGmMihdMnC7FAhz1NBLyhMvEvndwPUnyAtQcuaRQpzLhPel4qhsovaghY+Eepk1M7SWzesM8OQ8wn15Wmqt5ldfIu4JjGIfSZjcZw424FzXd1md1wLCwRVxmiYx3jxfKlALaumSM/VW/KiBuOv9KjeX/K8dANpooDahy+icbATdq2VoZas5c+Pbt82r9qC5FRrPE6cOYdT5zqQmYdG/LoxS5Ep9x49ju///BUcOXnarFG4UXVF01iLHSw6CrBpkYxZXGN+nh8oTibM+Qz0DkFpSEzCd/QdBA68CWgXaFXQxQ7G2zY2gMpDb8J3dh/M8uAlWx6Mtwg5lWRTfJNLp1NxBLuPoiIRMV81VXnzmlV4cPuW6/pDmCski/IZsefgEfzVS/+Cjos9psP/VnFdjUEjCt19fXhvz6f4zsv/ig8/PYjxSKTUZ3B9iBA8Lhc8VKHK3QpmZ+n5bAUVl2QUuHgKGJniZ28pwrS4Y3Ad3Y0VJz/A8tOfoObTN4Chi6ycbLUWI5T/ittAJ+r2/RztjHPz8ffhPflRSeNZAqR2BaaQgswH7Wjde7pYx+ZY70Uk9qFO1FJjUN+C1kBV+AN44oH70BCqnRdtQeb94Mgo3tj1Pv72n3+KT48cQ+/AIM3/W6//1/THoP4FaQk/f/s9hEkGQyMjOHr6LNOcRUNtjbGRrjc/WyvX+oaG8P6+A2YlpLJ1oqoOyYaVxSmoV3tW10tTWIuaxixQIYkEJofhO/gWVvFQ65rQUtjy2vilAlMR47D1nkH9/lex/Nxe46dPuxz5I0OwjfcZHwyazw+HZoNePc8XFIp3IgrHuf1o2/MvaBrogJsk4WHcK0Z7kKFJkVZZeHwsD81fWSTxvirKpEBC0DwFkkLDgdfR3HUU8VwaWaXFDLdLsK9RL2PjqCVBhkZJDDQjHE5Nf96Ib77webMXxa0MUUoj0CrR0+e78ONX38DLb72Nnr4B/pAzPiYe2rEFNcGg0dRvFlclBnVgdHb34KXX38Lxs+dMWhUh9Tkc43fNZtQyVS351ASNMkHMSDC/j45P4OMDh8yzhhgCtUg2roLZ5vtakVdLo47KK9hVEeGRTsI2OQpnx6do/+hf0HbxBLxkdD9bW40ZJz0VyHtZiDOWxi4WMA3KDLYsNgqPnQJVdehXaOcRGu2GS6qr4s3DQROpknZ7Zd85ZKITyHgrUNA6k2su7LnNUNmQEGx9ZxHc/xpWH9uFagqDmcDGOClW7kwSNRQsf/dJJJnGHMmhYMiB5VlK2+KC6paIjiZQhHWLWsLy/a+gkQSnpfFVTEthYgBpxl8ev4rpKKVlKkmQGF2sj40XjqCCBKks8foq8Aff+Do2rVl9U7Mcpb1LS5+MRtF5sRevvbMLf//PL2MPzXw5pxUJ6D2RKN9HTWLdqhXw+2Z39DoXzCAGRUC9mx0Xug0pvPXxHqOyGPbhoRdpstJoOIIDJ07iODUIObzIUViLfQ+654pswvDYGD7Yd9A402S2IxwIIdG4utiqXzXiDEt+A8puqMxQUcI4N3GqVTqzF/USJLZUgRjJQBWVYRkhio7BM9RlWistp73krVeFKFz1nbcLSos+mHp1DJHA7LEJOEd64Tp/CFVH38GyY++hcfA8PJnizLjpcdQ3eempZiX19Z5FJhZhuuSKjb8Ygiin7dKf+YXKVvEXIdM80KYq/uO70XzkHTRRZdbORpeFpASeiyg8tNGlUlddOIrsCE0iCpl8RRiTUmEqvlPjvdDlo7QpLknGa3wATqat4uwnWHn6Y1THSXYqPEZJW7pVsU5VsZxsTEdBGl6e6ZDWqjBK8VaDFTq3D7UsK9VHEcET92/HN774OVQG/Lzt6ukrylDxUw2xZE/awdDIGDWETrzx3vv4zk9/hveogUvuyr4kBIWby+VxcXAYbmoodbXBopMWNqw3ShBmrUQxEgVk2EoNj47hVEencY394cEjNCfSV1VJ9JxsJSW8kXbT5rWrsaa93WzfVc9I1VYHjXvq7v4B/MV3voeznRTWXAF99csx/MCXkattvZSZJmPNJyuKCkkdlBoDZvjuFFXViRGSwgh8wxcQHO+FlxXUqUzR/TPix7D4X34WY4Egxlo3IlW3DJlgIzLVNDPcFSxlEo4IY7pKeIMZeCneZZjvej8PpUMtfyYFB8nAJc0gMgYHK58/3I8AWyBPPAo3VU3jo0+47vsVNoNm2iZpVow1r0ayaQ0yNc3I+INsmpg2rRC8mbRNTYvO1ZOu+Otg/D3Mfyfj7h3sRA2FoyIegUtpFOYSNu+RB4cUCS3pq8ZYqI3xbkKhuh7ZylqkmR6tery0wrFMNCbsaeFf733TMSNtpXomolPZhIfhGulBxdB5VA13I0BtSEQw63v0OK+rDKLUgiaqm5CqbUa2iulgGnxjPWg+s4cNVtjEOlQbwh//d79v9nCQv8VyiCZGjIs+JUsaTRARpFJpagYx05cnZ0T9w8M4Q1L49MRpagRRRjtnSGM2YTdJ47+qQCWefOA+PP2o9qRcQVmsNu+ea9+GLZVKFTTUMTA8QsHtxqGTp7D30BH0ywMuM+9qpDAVSpQSZ2dBiiT8Xg/JIYTlzc2oDlazDArYe/CQ6WuQe/0IK3DfxseR1Hp3Qq2KjYl1sNWxUQ1zsoVxak45P+3pGKpYaB4KlZNE4eSbDBnohdeLm3KJUAGmaFLE+N4oSSnjr0GOhJEN1CBTUY287F/Z7VLxjJsuVUg9OUv4pTBNBKR2SmgMkbHVUAcc4yxXXC62Ji5WOPn2cyQi8FKoKiOsfEn1G1ADo+5k1G4dc8jjGeBzRZ8WFDSSXKwyhFh1AytnnTnSTGuG6StIyKT2Km3OkguyK9KmOOiDaZFWpjTwsCue8Qm4acJIu3FMDqNmtA8+psfFVrJYBjcR93L+8Tk51pFjFDmCTVZUIsJ45xnvrL+Wn1VFt2ck8Yy3tBxaZC5TRP1ORpMsVfIr0jMF5l08WLfMrlClMnJSvXeK1NQ3IkJg2irH+1Gh7ezZIMmtmsH10lZKv9IhzTTBfE76/PDwHQH5dGQ4aq01b+Grzz/DxrLGmNySkTwFIcv4ZBg3aeAigzCFfpLaQXgyilE20JLJgdFRRBNJVjNqJqV4Xa/1V7Qkk06XEytam/Hwtq3YsWmjmWlZS3l0u13G/FfcrgbbL9//qHCGZoPUlI6ubuP4UsxVSvMNQZEpQ2diJ1Vcp/wEUojKIxkS1LAqriqquSQ3YRR6EQMrnXbzcYsReb9N7qz03JSwbwXyMJTRQQLQGvw0iSHLVkoenQtspew811x2eWdWhc0bX4XMC6WEBelQvHjYGc88CSFPYdJ1OyuUXLWpBRIpqPNNNradxCF1Un6PmRRiftIxE0bhpaDZkaJAJZU25nGegmU8MzO9dtn4Jk3ySUDhYp5qWzX1mktocinGVz4Gmf8OEoPIWP02Tmk8vFdpEG5XClRXBHnIzskrNcsjxfJIy4EsiSFHYjCu+5gGB9OjcpK3b5Wp8UatNBGqLyofhymXoqqfVyNDE1mNjwjBrV2a0nE2QinT2Ji6xs9bShsFpvy8UqIqKxkKUJ2XO7ryEKUEViq/TKmipp5FksSgBjqRTpvfTC4rAJ2VPm/UHNBzyiPtzt3a2GgIavXyNqxe1mrcwNXV1sJDkhBRiSSmahO2b/7hfygMkp0mYzEjvIrCDfLBrCgm5TIUprqkymkrFoM5uYyi5Jhrl+PAM/6fHt7NwITJzDJhlSNSKkyRlj6l9eiaKplxPW8qm+5lZSOzqxWwsTCNbWn+6Sf+xmeK2arI6qr5pUhqxbPiT6Vv8w2TmtK7ypqEkqgrhpD5RRVL6THEwHSau1jmhhj4qfsUjkN/LkWU18ppMOHeHhTjf+mPSUMxGvzL/7rKbOcn//E3h7leLCfjlk2NkCkrQWVFUhCB81PflTaluFz11c4rzHKVE6ac3jAYFcXoEpRlJj9NNIt5L2QZpzJMnSldN1q3DvOtiKnh3SpMWpk/wYAfDaEQQqEaLGtqxFoSxaq2VjTW1ZnREg9JRARh+6P/4/8ysTGsNJ8xmQKZEoNUiU6dv1B6jw2TngAitDPztmKLfGWulj4FXs+T0Uwn2zzjcojKgNJpCap818JlgS/h0u3Fk2m/3hFcEuOpkWG6psfNXLninuKf6fctNK4sgWlxLOFGy0kmq4j9EuYlkQVquUk0RodNw6E6LuFa0dqC1oZ60yJfSszU91076vOL0ntN41A8MV6h6oJVqA4EzCHv0iuoTYSoSdgu9PTOS9ZcC9lsDnsOHcbf/finpvNEm3R0Nq3HZONa6lW0Ha8FJcSnziiqkNepBBYsXBUiCJGCmd4sLWIeQTPSNXweG3qO0OQqTmZaSVIw+zlsWE9iKGsyiw9lTUaai7QF7Ueh+Ukkz+lN3/wjRxtq3+Fj+IvvfB8dFy8a924XQisxvvIhFDRh53rUSZWeMVbsSxcsWLgBqIqnMzzSxmSaHy2hBI3cTA5hxendCMUnGHQBPp8P3/zi5/CtF1+gHV9zSfgWLZQfjOLUWBpRu92H1Cp1vtSHag2bqqAqEmHafywoc8d1YHpj57M0LdwzKJOCNAV16s1rNVLYcdT0HUNNMmy+y2zYsWEdnnpop3HxrpZ4ujwsuoN/9DkVl7shbyPEmNWVlWioC8FGKpKVU5WchF2bbpaGYK4LqoEWLMwZIgRqqkZLEClM7VeYL2RTcI90oW1E6yHypp4319WRFB4w83k0NLlUsSDEIEoKBCoMMWgbLcGMhWvvPn5eFyrUVEkNtGDhehApZKglxJNAUvXmNpBCLgPnRD/aeo/DTc1Xb/DT3H3kvu3mqPB5F78JcQ0sjMbAQx0abY31qK+pLl2jOREdMRk8J6iwLVi4FsqEoEYkKS1BpsNtqDf5HGyxcdT1n0ZVKmoaPs0q1Pbyn3/yMTTW110xJ2ApYsFiL7WqtanRDImISTXzrzY6ZGY3zqnwTKFTu7AIwsJsEAmIFKQhGO3yNtUT1T+SQdXQOYQiAzQhsnxVAaGaWnzps08aX45uMytzaWPBiEFrHtRDq3UUWoKqiSUVyRhsk8OGga8LFbRsRosYLExFucGQhiBCUF/U7awjNBv8Y91oHO2CJ5sypOD2ePD844/g4R3b4PNeZ/h9iWDhiIFaghZ2rGxtRZCf+q5+hspwL4V+Dv0MQpaFrh5mixwsCNIS1FiYuQmsF2Yq8W2E5iuM9yI0eA5+mRClUYhnHnoALz771C37WVhMWDhi4KEtu9evbDedkCpC9TPUjfexUJNzE3bdc7tbBAtLA6oH6lxMkBTUYNzuKkGt1j45gtr+U6iJjpgZjupHUH3+9te+jOUtzdBekncLFjQlMiGWMQM1V9usSSA1+LWSb6zn3tMa1LLcJa3LgqKsJcTlh5GfCzJSVYCNGkL18Bk0hvvgLM1uDFRW4re//lWzatFMe76LsKDEoMke2nlny5pVqK2u5BUthimgdvyisd3mBpbI7eptvp0gBzhddppTbtTW+BBq9CPUUIGaoAcer0OZU7rRwqwwnYsiBGoJIoXbbTZMBTXaitFONA+dN+avSKGSpPCtFz6PnVs33XWkICy47iNzYtuGdRSOGqP9adlvKDpshn/M9NLrQQ+pgiylEQrKfMDnxBOtlfhft4TwF5uq8Jcr3PivayvwZ/c14htrQqgPemG/i1TReUPZfFTnYqKsJSxguWdT8I50oqX3OLyar8BXaz3B5x5/BM8/8Shq7qJ+halY8Joodl2xrA0r21rNEKaK2CvHFqPdLASaCHOCKstCqZG3CNYZv9eJ59sq8e1magtDF9Cx5wN8+t7b6D1xHCvdwO+1V+IP1tSgidqDpTmUIAk0WoKGINW5uMCEoDomvyBj3SSFY6hMx1SUcHvceHj7Fnzl2afQ1tS45OcrXA13JFVy9/bojm0IGnMCxh9AbXgANs2EnMsUadWPDFuRpTAbkoK+vtaL50NuRM+dxi9feQWvv/Ia3nt3F3r7+kx6q50OPBny4ukmPwIyK+51iADUj2S0BHUu3gHtkI2Ua+Iimi4eRpD1Usu3NT9hy9rV+PIzT2HtyhVmUtPdijtCDMrgbRvXm04buZjS6EQgGUFAfQ1k6TlBFUUVRmrmIkalx4EdNR7jvfrAvn3o6uxCWpv2MN4peeyJxxGNTsKRjONx3tcakK/De1RrKGsJGn40WkKpk3mBOUF10DHei6aeY6iLjfH9RReHq5cvw9c/9yzu27xx3reXW2y4I8Qg9Uv+7x6/fwecJAmVvTuXQnC8D/a4+hrmqAWUW5bFSg6U71qaEWt8Doz192FkoJ9RLTq4lfPXcydP4u3X38AvX3sdez/+BFWZOKpcLJJ7jRcuEQIbhUTy8qjTQhOCkEvDKVKg+RCaHKKmUPT0VN9Qj6+RFLQOotJ/bU/PdwPumIEk/3eaKbZmWatZcSlBCSQm4J/onbvWIJhZb6xMi9KksMHJCuRhHZI/v7TiWpJ6ucEYHR3FJ5/swYcffIgLXV3Ip9lS3RFpuEOYSggaadDnnexUzmXgCPejof846iYHjYmrmY3qKP83X/ycWTWpSUx3a7/CVNyxFCpzm+vr8eXPPsUvDlMA3qy0hl44onOcJl2G+htUsRYdORQQy+Uxki3AX1kFp9eL3JQ6r704Yox3nALhlv9/twcFCcYiN4/mBSoraQaxEiGYSUp3kBSpyTkiA2igplAfHoCztAaigtrBb7/4Ar701GdIEMF7ghSEO5pKr9eDR3buwMrWZqpmUq/zCEZHUUVyQJZawI20nqpYCz2+fT0w+iPJLE7Ec2hYthzL2tvhcrsoE4wjK50+5Xq8oakR69avR2fBhYEcNYq7ufIp7eo7iMWL/QgiwTtJCAJJwEENob7nKBppzooUcoyTr6ICv/O1L+PF5z5bJIV7qO/nmntX3m7ITvO4ivtfHjx1mvWl6God+QwSvkrktMWc7QZ66dXnoOc1H2CRCJfkIEfhb6/xY1NTHVLJhNkoWC71HR4vGkkKTzz+GBo3bcNPhzI4PCxyu8OCcjsgAtChUQYRw4IOPV4DMh+oKdT1HkGztNXSrMbqqmp88/PP4Ztf/LzZi+Fe0RTKsNHWvaMlpNdf7B/Af/nuD7Br36fGP6Q2IempX42xZTuQr6gRg5TungN0q2aiURsxviIXFCImHWQD44a+VJmcdmxvqMA3Wv1Y58xiuLsLA4NDZvuw5rY25Grq8cuxLN68GMFEXB1vxceWPJQXhhlJCDIbdL5YCEHIpeEa60Ft3wk0h/uLpMAKFKJ28OLTT+LXP/88mhvr7zlSEO44MQjJVAq79+7HX//gx7jY12+uxd0+dC+/D/GGdcVdiG4EC0UOJut4GAFg5dfuU/EJuBKTxY1sgk2MR2lYy2nDiqAXj9dXYIXXDretYDSJET52LJzGnqE4Uok72PE2XyjHXyQg805Dyne6/2A6FJdcCu7R4jyFUHys6PadDVB9bQgvPPUEvvrc02hrbjTD6fciFgUxKApDI6P48Suv4ydv/grxeNxsIjJc1YC+9p3IVbeYDsobwu0iB2kDyjIt+jL7HmortzB8sQm4o2PGK5WXxDBZVYf+tY+iEFp22azRrEaHDTVeJ3zUIrIMZyyVRzZNwZEgLSLZuWEoT3SYUQVpCSVi0LXFBMUtHYd/pBP1/SdRq01rFUeSgpwIffHJJ3g8bnZquhvXQMwVi4IYBG3meezMWbP3xL4jx6h95swWcT217Rhd9TDgCfAuCpYEvvjn+rhRclClKb+j3F9hKrwElwc1Am3uqj0p/dQMtKmr2aw2EYUvRYLQxJjSM3GPH6c2P4VC26aZpDY1+otMbm4YJn94lE0FMyRbStRiS5vKMBE23pcaeVSmJoukQOJua2rC16glPPf4I2iq1yYx96amUMaiIQZFIxqL452P9+B7//JzdPVqunABCacHHW3bkApSa5BJISEr7Sd5GSVJm60vQtdcfEb7BooklFpDANMgDYBCbn5jBbfHY/CwEmmHIQ81AHc6YQRfe1Q6Mmm4ed1tNrRVWNrXkX+p5WjrtyjNh+GGlZhYR0ILhGaP11KHqo0OEUHZXFDmLoraNAs0sUz+FAZPo2GsG75MgrWmuGNUe2uL6WR88qGdZuLdvWo+TMWiIQZBw3fDY2N46dU38bNfvYOJyKQhjKTLh4zDU9xzkQWZ00iFZI0x1x6E0iy0UW1WG5+aUYxpgqivLOwCWwFnJgNvKmpWdU6txJpYpJ2ONdHKZAkrknbXtlNb0Aapxfv1wtI+Afrkkeeh2ZtVwRqEK+twyleHZKABWX81ChpVuVETaLFDRCgSKE9X1vfF1KE4G6TJRQYR6juBxoleuFjOKnwXG4rVy5fj93/j69i5eROqKgP3ZEfjbFhUxCDIhDjf3YP/8v0f46MDB8yagjIuR3Sq4EtYtas2z2jDF7dlnUYMhLlCbcD8atR9XSjfyS8Khn80qaX4E3/hf+WOneFqeDGjcxKMiKCalaiF6ueK1avQ2NSMuoZ6DMCN/3QmgtGYQiiGfFfAaEWlTw03Gq2qmEuLG4xjJgnX2EU09h1HKDp6aeKStIId69fhv//2b2LTujXFbdnuRs3uJrHoiEHQKMWeg4fx1z/6Cc51dV0hYlpnoKM8SUgb5pZFeQauIp+6pMkqBYaj7b+dvODQXC9+plQ5SDS6LttT5kGlvwKtra1oaKjDiuXLEKytRW0wSOvEAzcrlDxTqaKNkTn+6PgwjvVESGhLQXCuAVWLUh4X92YoEfSSIARCjUByEp7hDizrP4HKVEyV3VQJn68CTz94P373m1/HirZWy3SYBYuSGIRoLIa33v8Q//jyz9HTP2AEVYzuDwQQbGwyKp+NNn4qnUau3KJNheq1KgefMcq/2KAEJ591u5ywub2oqKhA0OdBhdtl5hV4a0Pw+P2o9HkRqKqGj+c+3uvUwQqkpbZ2mgfSIqa3MBkKzYcjMfwvh4eRit7Aeo/FAlUFaWj6LPcdCEuFDASThgwcsVFUkhDahjvhUf8Ry0rlp52cX/zsk/jSM0+a7Qws02F2LFpiULTGwxH8+NXX8cNfvI54PGFG+2pYsFt37sTmLZvNzj+zkoLAVGVJHCp4qf9TIXHWNbvDydbCDp/HDTftTQm9hqgM6bAimXuoMUyT/6tCOTmWzuFPTo/i4wthRuAqcVssKBd9eVhRWkGaQmSu8yj9vGTA+EtL8Ib7UDNwBg2TQ2bSkkpci/a0zP+Fp5/Ekw/uNPuoWqRwdSxaYhBkLvQPDeO7P/1XvEHtQfMbWJqora/Hw488jC3btrJVv8ZqNyXtKlI9tbU3WgUPD7UGJ7UBo02Urk29by7QHPsTkTT+46EBDIwnF5dwTS1qkUHZVCgvc16KZCAo7tkUXNERBKghNIx2wV/yuMQCRIBa387NG/Glp5/Czq2bjWlokcK1cUfXSlwPEko/1fv2lhaEo5O4ODCINCtxktrD6NiYWVIQrAmabcfLrfxcj+kQP6rjM8NDJkiWn4YzS/eW5WW2Z6dCfReVpclL+ye0SOgOSpoR9hJEAiKAXGloUaMKZiVnWUNYojBaQgQVI12oHziJxvGL8GkBnoqOKmZzQz2ee/xR/PoXnsOOTRuM9zCLFK6PRU0MggoxQIZXAYejMXT19bMu55BMkBxGR5HPpFEbqoN3njYRNQTBypbN5UkURYLI0NbWUSYV3TNVlKa/18kKWet2oCORRb/WPiyUjT5VwHUuIhABmHkGPAwRkBR0LKV+g9mg9OVScEaGUNt/Ao3D51AdGzOjDiwR2Kn1bV27Br/xwufx+Scfx6plbaazeD7qyL2ARW1KTIU6GU+f78SPX30Tu/buR4LEoIhXkDS2bN+BR594DHV1daZfYD4L/3JQxSFLLQ8X1Dchj9eGLPRr6cbyZ4qCt3s4jj8/NYqBiXk0KWYrLiMk1AjKcwuKF0kG6uMofZ/lsSUJpU/9BqkYfCMdaBw6j6pEBE7NTdBvzP9QqBbPPfYwnn3kIaxbtcJonZaWcGNYMsQgiBzOdnbhn155A+9+sg+JVNIIpbYcb16+HM88+wxa+KlOxNvdMih8h3pDL72HrRRP1cmlUQ9l6lg6j+93h/HDc+OMPCvzrUJFNXW0YCr022LyRTHvYPo0fyKThD3ci4b+0whFx+DRLmYl1tP8ks1rVuPXPv8sHti6BXU0M+/l9Q63giVFDEKaraLI4e9/8jN8+OlB5KXiMwmSz1BLK556/nmsX7saXu/8mBY3Cg1jlpEv2HB2Mo1/JDEc7IvOj+CqtJZWkd06lF71G0RHUD14Fq1jF+HhdzNLVb+znEPV1Xj20YfxpWefMrMZRdB3oPjvGiw5YhDk0KWj+6JZjfnB/gMYj0yayqNls7X1DXj4sUewmS1GVVXVHZ+8ksoV8PFYymgNPSNxMyHLwhwhDUHrUxJh+Ic60DTSCX86XhqCJGjWqf9pw6qV+LXPPYMHtm01M1KtCUu3jiVJDIJWY/YODOJnv3wbr+/6ECPj4+QGJcWGQHUVtm7fjq3370BDQyNbjzs33VUximcLeHcgip+en8BgOG2RwzXBvFE5ZlNwxMPwTvSjZrQLtbHidGaVoqa9yy3g8pYWPPPwA/jsww+aPVE9d7Cc7zYsWWIQNLw4Fg7jtXd24dX3PkBnTy/y+ZwZMnT7vGhdvQbbd+zAWrYomjF5p3YjVgZH0zn8oncSP+8MIxxVR1nxNwtlMEM0pJpLwRUbgy88iIC8K5EQtLitnGHqP1re3ITtG9fj+SceM9qChiAtLWF+saSJQVD0I5OT+PjAYbz8y3dx/OxZpFMp2vdsV5xO1Dc2YuPmTVi3cSOaGhvu2JCVMnk8lcXLF8J4/UIE8QTVYYscVIAkBA2lJuCeHIE/OozKiT4ENfRYmmOhbBIhtDTUY8v6tfjsQzuxY9NGsxpSKyQtzD+WPDEISkIimcTxM+fw2q73SRKHaFqEzUQljRC4vF60LG/Hxk0bsHHjBlRWVZke7IWG4jmSzODVnghe6Z5ELHavkgMTrf4DanxmoZPIIEINITKEQCJidpTW78oarUuRjwTt/vTofduwg+XXUBcyu5lZZsPtw11BDGVoOFP9Drv27Mfr739E06IHhWzWVDAbVU1tFrKcqueW7duwfMUKM2NyoVVQZfcENYfdQ3F8/9w4oiKHe6XPQVVN6zFoLthj46gID6B6cggVyTB8qXhRQyiWlpm1qJ2k76PJoI2JtpMQ5JjVR43PmpNw+3FXEYOgfgc5eDl86oxZnSk3cRORiBFIs0LT4UQNW5y1a9dg07ataGxqujSleqGgDE9kc9g9GMePz4cxoKnTdzM5SDvIZ8jccdjDQ6iN9JIQRuFJx+DWqIPRINSlaIPd6UCopgYPbd2Eh7dvx/qV7WisD8FHrc/qR1g43HXEIChJaWoPgyOjeH/fp3jpzV+hu7ef9TNfmmdgg8vjRlUwiPUbNmArW6T6hoYFn/uQyObx6XgKP74QxbmBCFntLioKQwbSDtLGz2Jgogeh8T74Y2G4SRLGIxYJQWUlUlYfQl2w2mwD9xke7a3NRsOTyWBpCAuPu5IYylDS4okEzndfxL+89Q7e+miP2Wla6x8k/0q4plBXVldjx307sJ1HdckBy/Sl2rcLaWoKZyJp/FNnGJ/2R2G22yNxLUmIDDTHQL4w5SSXpkJwrBu10VFUyHwwVa1Y3XingcPpxLLGRjz/+CN4+pGH0NLUYKYwW9rBncVdTQyCkiefDRGaFwdPnMTPfvkOjnd0Ih6LIaNVhqqoZAl5hZJNu3bzJmzYsN4szPJXBuAu2bS3U5PIkhz6knm80jeJ3d0RRKJpadaLG+UIGiKgOZBO8ojBnphA5Xgv6iKD8MrXIslCLvPMrTyUjxXUzKqqq7CqrRWPU1u7f+sWNNUzv62Vj4sGdz0xlKFkajr18OiY6XfQQqwzXRcwPhE2KyfzFE7Jvrw8ywFM27I2tK9YgZaWFtMnoZEMuXG7XSShLoZIJo9doym82zuJrpEYUvOxvmK+YKoJD2kFIoJMAo5MEs5UDI7YGAIkgmqaDN6M+gyokfF+5VLxKW1F6KJpUIlG5uWm1Svx2M77sLp9OaorK80ENIsQFhfuGWIoQ8lNJlMYGBnBgWMnsJckcfZCt3EIo34Jkx0UfA2TSYvQvoUtJInWZctQ19iEYG0QVX4/XCIJqrsiifmq1CqIZK6oPbzaE8b+gQSGJ5NSKUycFgyXSECH+gqy0GpGVzoBT3ISjlQUnvgY/CQCjSa4aJrZtbmb7iXKxKmZiFrDUBcKYVlTI7avX4fNa1ejqaHOuNHTAqfbqYlZuHncc8RQhrxDJVNpahCjOHrmLA6cOIWz5y+Y2ZMptnrqqJQW4VC9peCrktfU1SFYV4/mUA2qamoRqKlBTW2N8RCkeREa9ShrFLdS4dUHOUnt4ePxFPb3R3B0OIHJJLUHqRXzhpLgm1N9lr6rU5AEILPAnaHQpxKGEByJCEkgikAyDCfvMSaCIY5iGJqGpH4BaVX1NdVoa27G8pZmrKNWIM1A/jQCFRVwueROz+o/WOy4Z4mhDBFEKp3BeCSMrou9OHbmHM7SxDh1vhN9I6OwURgLpiUUSWhPC5txDuur8MNH88LPFrGqOmh8ANSRJKppO2v6tTE7KAAiiiJZ8FNkof9zIA0VSoYMMZxI46PRNPaOJHCG5kU6rRZ8LkUmoS19mg8+VxbkshaQ1TAphZwC76Vp4EzHqRHIROA5D09Wnym4c1lDBMU9N/gs42+c4fKfehBEmssbG7BqeZshhPaWJrOJi8yGAPNJZFAmTAtLA/c8MZShKdSaAyGns4PUIs6TJE53duEkieIMTY3JWNGHoO6RcJW1Am0446C2YDxM8/B4PfB6fTQ3KlBJraKKpkiA5OGngAS8bjhJGE6Xu+ieXoJiBEx8UfLvMA2ipDgJojdZ9CX50WAU50kQGfU/lAXfFKEEX98Jfde8AbX+Wbl+z8JJE0BzBjyZGIU/Boc8KVPgbbzHyetmCJHXnHKgy4BMhyHDUZA2/hERSHvKkeA0tNhYEzRDiivaimTQ1liPpvoQgkyrz+M1W7xZZLB0YRHDNCg31CpmMllE43EMkSQu9PbhDEnixNnzONPdjRjJQ9v1CxrxUNU3+1ToeR4SBje1BZeb5gVJoEBBkj3tdrrg9gdM/0SVyw6Ht0IuqMyzFWxVqyt8pnU1hDENEtU0A++NZ7B/JI7T4wkkaW64Cimq+hRsqv3aNcsIMQXcp47BkuAb0sml4TAmAFt/DdeWYqv7DUokYDKA7zcLzvgp4dZ6BBHdiuYmrFu1EiuWtZlRBDlCUYeiXyYC01Z2qW+RwdKHRQzXgLJGh0Yt5EouEo1haGwcZ2hmnDzbgeMd59E7MmaWgGuLO91r5kiUnjemAyFtpCzsZn4Ez5082J6qKTaCZIiFX+VEVrfPBt3n4v3av0JLuXMkMAdvlpCXDwNe07buJUnnoXcVBd+kSZd1zkOai8PuoNmSZdyKpCSXdW0NdVi/op3mwTISQasxCzS/QP0EmoWofTaM1kNYRHD3wSKGG4Q0hAxbaHVcGo2CxHBOfRIkCY1u9IyMGiLR1nrMXHOuZ9SRqayeKkM6nSpUZcG9FnT/bGJoyGcK9M1oCmz5TT8Hv8tS0XCsOv9EIyKpUKUfbU2NaAnVml22lre2mEVK1YGAmeilYUaZDgrHIoB7BxYx3AKUdeq81PwIubVP8VOb5PQNDGBgeMSYIP38lIepSCJpFnmp4zBHmz+dJnlI9ee/LFtreaQuEoh6Fa6EBFK7KJlzHnYjpOrMlEdqaSAMln8k8LpP9r28WUmoq7XTliZq0awJBYNm6XJdTQ2C1VWoUX+A12MmFskUkMlQ1gREJhbuXVjEMI8wRMFD7u3lgl7aQlau7lMpxEkM0XgMUZoj2u5fBBJPJhCejCISi5l7pIWkpW1MKRKRggTeR/XeaAsSeG2MQyF2la5rVKBaIyQUcL/Xhwp++nxe0yFaoe8l1/pq9Z3afask+GUtQIcFC1NhEYMFCxZmwNIXLViwMAMWMViwYGEGLGKwYMHCNAD/Pw+mI272W2cAAAAAAElFTkSuQmCC;" vertex="1" parent="PJXzIF6TXpeEWLcsnp0K-14">
          <mxGeometry x="-10" y="60" width="80.86" height="50" as="geometry" />
        </mxCell>
        <mxCell id="PJXzIF6TXpeEWLcsnp0K-24" value="" style="group" vertex="1" connectable="0" parent="PJXzIF6TXpeEWLcsnp0K-14">
          <mxGeometry x="200" y="63" width="160" height="144.5" as="geometry" />
        </mxCell>
        <mxCell id="PJXzIF6TXpeEWLcsnp0K-10" value="" style="whiteSpace=wrap;html=1;aspect=fixed;" vertex="1" parent="PJXzIF6TXpeEWLcsnp0K-24">
          <mxGeometry x="40" y="24.5" width="120" height="120" as="geometry" />
        </mxCell>
        <mxCell id="PJXzIF6TXpeEWLcsnp0K-1" value="" style="shape=image;verticalLabelPosition=bottom;labelBackgroundColor=default;verticalAlign=top;aspect=fixed;imageAspect=0;image=data:image/png,iVBORw0KGgoAAAANSUhEUgAAAQsAAAC9CAMAAACTb6i8AAABa1BMVEX///8AAADRpBr/3Hb/4Hj/43r/3nf/5XvVpxr/4nnaqxv5+fnHrFw3MBrXqRvSpBp6aTjgwWiUdBLX19fCp1q/v7+behPo6OixsbFsXjL19fXDmRijo6Pg4ODR0dHFxcWIiIhmZmaSkpJ6enrl5eXwz2+5ublvb2/OnQBRUVGrq6uZmZn41nO0jRYnJydDQ0MYGBieiEluVg6BZRA4ODivl1GLeEDlxmpYWFg9MAhKOgmKbBG+lRiohBUuLi6Ecj0cGA1PRCV1ZTZdUCsREREgGQRUQgoAABBCOR4wKRbEqVv/66DTtmKzmlNkTgwqIQU4LAfatU8AABn///H/+8n/7JQNEBb/8LRRTUFrYEJ7bUmThFtOUlyjkmD16s7Tzb23omeopJfLuoyMgF5tZ1br0YzRu3+gmIDKu5IgJzKOin8BEiL446vj1Ky6lzT/75TV0MM2PUqCemRYXWfUuXS0oXXWrTh5eHH+89vAJ7yYAAAYgklEQVR4nNVd+0PTyNombZqkLaRyLZTSC1ioUEBALgKVIqjgAdRdPZ7dVXfdbz27rJfjHs/x+Od/mXcmySSZyXVS8flBgaTTmSfvvLd5ZzIwcIVQ/toduDooSzszKX9FZVaqpPwVYjAnSVLzeopfUEHfUE3xC4ShKAHmiml9wSy0fyOt5kViUiJI58nNm82nxrVA3DA7K90RrzbKdus14Y0LR1Gi0BDc+CLV9pLgtlPAOOrnPbPDKyJFo7hD89wU2HJKQDr+8K7dZXFaY9RuFH2JJKzh1HDT6OXWWgrPr0q1OYP+ufIeRgX1cuyMFuYVIZ2eo1pc/R79Oyqi2TRRR73c7kgOCHC8btDtLT19ZPw7n7zVdLFkdPKBrA45yUj8CG85m3t2ZPw7K6K/aaJpdPIkl9+ShJJxx9naQP5AoCJKDStGJ3/MKWcuLqREsatTKqS5p3mknG+J6nNaQH19mVdkNxdJXOYbrqZqz+RzEI+rDTB2Y3I2d9fNxWrsNudcLf39+6wymJDefgDMyLCS9U6S2D7zpKeh51kZmk87S5IQEDC0lGw23/OQEc+ylj3tVAyqWzBXBHdeMBqoj7mswcWaZwzxMg6r7mbmnhrNAxeTgjsvGAtGF1fULIKHi1jPcd7TStmQOgWcuSue2kJP8R/ARU6MYHgamXuOWs+jHxuCOy8YKDL7Ac2RrKJ4BcPlZJRHa/XJxWp1abaBMDtbrS5OjtdGy7aB8IrFFxA69Vi68s4W6u2PwEVWHvOMA4S6MjpebTRXV7xUUVhZbTaq9Rmvtlh8hrlAGZL4ZrofgKTWT/ks7u+ReyCri3OewUXDi6ekbRTw3Pzaw/UFROwvCRfZrNeuJsUrhXBxiH772sP1RdnBhbItmoqf5Swtc197uL4AF/wXSy7k4YCxnZ4cTh1Tvw9dOzo84UvT65zZcm4K/X6lFyshJfmL+fAMMraPWWM6ubu1OTjckuWcqqp0eL9p/K7m5ez22djawZGblNeq1TCOd640FzUXF4ZT5FSgh1vnZ62cmsvLiqzA3MfuNEELqwNFUYCn7PbY2pHF5u82FYSLKx2QeLgwZrZpWk+2xrZl46ErWSewuONbVOclg5K8mm893DoxLv5KX8xdQ/df6YCk7uUiKytr0tDWYIdBg1uprMmsGxAhnbHtPP03zMX41x6vH1hcZJW8nMszaSCSYyVHt/l3uXjMHVx5LhhzJBiWg3qqBt9MAAnPq50Jj8WFlRBcywff7ODiSgftYFNfhh8SGRgJaYfDk/gNcFGLxUUWLy31wk8RwsXi1x6vH2bicaGCt7AV4XN4AaZvXIwuVquTo9FyzRCP/F/gmAxPSqbnAzarZz62xg15rY9zpGIG17caETwaiFN/zPmNQpHVztnY5vkZzQaEnVFULuaiP3bEmX1uhHV2IX/xmx8Xsnx+ghs9Prf1AzKr13wp7A8XxXJtfLG6tLS0OF67bpYH3JScWK2Hawzdu8PXgYr6kArWpuzR546lwQhThHAh1NeaWVxw59pW56r1yqzkwZ1QX4w4vORzkcfLaSfXtq6hIHTLutMwq2wPndcQcBHyAYVAzb04F4BbIRbLkZZ58Iz7NA9RO5sdI07NQaxuO92dqShThNgRQbFZZSkaEYCFQKvSRLc94zzhPKLibhabGUU14tO7lmAorShUEP9CSMxeacRgAiFoooCovWFzoaLYcpMavfFrNsrEoIDjVBG5HLoM7GZzabI2OlMul2dGa/OLs81bDAoo0QjR8j+Z1jE/6KACG9IoPoWDC0h6JC8Eu26N9niuzmpuxo+MFd+HAWs7/2VxoaBFxWu0WkX6j52xYHxakfP0rYLy4NYa/gJP9Vz3nyd+GguCM6bjiUbec9gK+aGhMII1puGcqZ3hwfPNM9o5GxLBhWk8GnwB8y7zO+Hj4sBHWc4WrAYPOqQAed5HQfGYrG5vkiQgHa+oyCQn3SpA6n12fCU9gAu/OABdXmUMUOlsDg05/46WT9wZTjcTedNLdXIBEy5IdwVhNfDJUnfFkQxUcfcdy8FQ8mrH9SfDkJz6zRFFHSTLAscnUwcHD6kJBsnzZEWNWCpuBenf8SAu+Dqjia6+YWtEt80wBjTkw4Wi4MlxMNiR1ZwjZapAYJsoZIeOhlmqD/ZIeXMMvPcfttUQthLNkUP+HJE7p0ZTp2NyzsusPOj7QEIARxmhZtkinwUitZwPkoKJu61cIBuovo2vO5UsKitYyzGTIfIm+pIEpdX18FQY0SsjPKMwx4tNLN/kWitINtDD5dvUPFKaZ5zLOByJTwXkWaLYofqcO3LH8M3uQAbjOBQb6OFy83oQug1zr6KVyTvxuQC9uRLtM5V6de7GHTPlcPNWszEZFKxC6TYh8aDlZzLRw93kjBayfmNcocn1wks4A3gix5xiRYRwt4LatZIiBx2+oUAPlxePIB97ykeXoLbjbziDrvUhWQouPlXXf9DiTRTVuMqJ1KFs2O2O2FdzYFJjZ3JmIyqL2ADliaO/06Oju1trax02GShm73GmCBKZNY5EKTn5HKKRuFEqVpx9qd1AX/TgTSuLykpQoQUdj+UoqINoGuSYQMGLTF2jqlvUbbN4JW4HQSwa4gbsA9DRvzKzl62jKQonKPHJhiEWpwf2r3et0F4ZOzQnX+zqTvh0f/YYQPLwd2YKI3Ytm5UMbY2tXTvBdi2uBw4KrU/7s8Cle8GyAQK4yKLapRx44HG3bYEu68N+zmJ9jjgjf2Nx0Xk4aGNT6g2dDTJxIB1PUb8+HDtziBleEIjZRciwpF49XV6kNkP9wZwksg3VGNCBKrOAlprHnJcczYDXuROzl5CRFbewwsLMrHPR6X++ZUloQKdcTwsl8Ib5n8ZV93E3TNxIIFNh4CbCwK2drZbqk9iFFQGFPWC55+NoEUcs9toI+mzChBgf5aqDiMvfXsIpBwb/R4N5bvkBmvN3OU424sKnbiFRkArVMimtz887Nkzu/DT2pFBYRz8CQb01ngeOpghvNRld81lEQpeluZj9BXWRxmE+M/Ty23e/vTwr6Fopoy3bfzzZYnvgEIfywjYUmPHLG+XtJNpvIR11Mb9KE/HLk4LBA0DDfzvdGsyqnNVzVJ/JzV2gSTDG0TWymiyPg/osOiwrUyLx4B8vbSIM6DBJ/lTzHN1Igm7uo0eVKQcsoVHU1jnOBydywOPOLzZqTZuJVWNqUEQguYBJ8pblbplPftM37WuEZscMoVGGrQrhuFUoxSTmmIVxe/n57b/HdF3LuFCAZY0/fCqajRse8i1u7si9xkY+Jg+SNbS4XQevU1wWZ9HOgt5cM+aGmwg0STbQ1QXug8+fGybGb2XkjCM2ipzLJkrvlZMIlRvOEpZSicFEJlOahqvvuM+9h5xsP6D0H3vTQLKU1vVEn6ZRdBfzjLCkAk2SXXT1NcdQIG0hDfnilLeklku2GgBZNwGlTR4mJOl2gc2FNoGuXrK1p9LxtMMEqzYD19HHzz4Ikgtmgdc0e5IQF4MZrGazrRNWUx5ssrQnHAISP1cpRF9wFhU3dDYXWHu+YFf0KSqMSNpqDTOwfYZ8bOmow5phKqIxbrg+QPK+yezIPHM7oYEeh4sM1p7veRV9HbCNR0YoqziRV2Gp1FCtrI8m1JwD2NdK4l/UrOWOHz5cuMhY5mlPuHGBW+qpnoEPsuZags5tw/yZ6rBnF6qDTLZ1G7Ue3+8sWycCHn4oaIUJJxcXbsHQCxhEMCg76ZR5WQaLcDpMCQAkuwwMOnwLqonkR4DcSDDHilbccfIB/Cotc99BBnNuMOHynhQVy8BB1iRJ3QYf+5riYI1xdoSF6ONBS5y8eokAWEV/px8sD9MpGhOOSVIKzwUSg00iBkg0FHx6SO/MpSm8x1NZiDEoyF/EyYKP2oFHjxqyltm1+7NbCMsFo04tj7c1GzZDUYfBfGzJbk0hVi4grxXd2So6KpUc1rMwYl9wuBilzIQFfM/vg2MErDSWosJah7SZ92oPE+bnH4IUzdUpROcCAtXIK/Tu41kcY9anLdHYc04SzUIBFMvCv8y8Ptu+5pUD6yvcVoVMEmqpIPniHxL1iMmcsvvgN+m+czJYonGP44eb8+XngDJnY3Ycwo2H277FnnhTWuLFv0bkuWU63H+njIbLlbBEg+diZHAS+C+fnA5A3cZcrOV9WRNUAg5LnBEm14ypM6cyhX2LjccuATBFY93hYug2Cjpcf830L6zHTcyHBCaEdUcOfxx2eidPw4DCCO9tmULRWzZGrxWWb5PfJ9wCoE/DJTrDF8WmYqEAn2IND3WKEYQ47IgrFohDRpSFM2tLxYaGx64Vuo/wXzR3VFoq7Bl/7tocRfIvLJ/isJXLyjhE2fQYErH+BXGZwllVc5/N0L5ujdzwvCF6YESlSDQorRrJvzB9CjJ+bF6Hhl3GRKx/QULVMEnCimk+NpwZXU1DAiBNexWkZoiG/WfavwDgWO4Pln+hKFumUBAJyILVPFCcOhQ+C5NjftyFOFwMNFFTwabZLIp/vO+RAC2zYURiLPup71OKhPIvMECgZv/F8C9y4HOe05NCPYMxP3TcSgoUhBXTwCAD43bT0XzEzm5n1tn2U+MZVXStCy2ynAy01H7UckWvWeR5uRfNcEFPxDpdPlBjAYH/dXu9nDEXgI3pDZ9hs4GdjMvnXi6yuc1zj6ZUDNFwF8wreVArws5Gh0I+XxeDPkuWl98uRabCkAwoQVhgeVxM50rOugtgVfDSG6KowNrT72DDBVo/3+el7mJA24cmJ0PvS/YY1UGhM8QcK9esll27UgVykdHBBEmvIh6jY1GDDyMTea4YrJLwArSaaUnNNE03xmTgAgesl0/jUSGDYyr2zSs7fMEw/atuQcNeNTfXHw8lMKyfWPozEDhSF1wygYvWWVeIqng8rZtetfRIKBdEZTSCIlYGyLHBokuWm6hRb9lWkZTXXBCfW99H0QdvQSwedDz3FrlLBDzkcdpL+KtG8NZs91/LJPQbKZij17R1vlWNiQKso0n1SIdcGFTgs/pSOPwa3EqXI2tqzWVqUpQKXVdKVwAZOA3yMdJ5U8SEpFGOydhEQpKaj6adYqBldjPUJPFzssNCfxyZDLnT4+q4xKi6VTIxIPe9g6V15+f1boYZoUQDToJ8DO1mKJ17qehNghWn+iRrYuv+80FDKaddblYzLLSMFEkylCxEIakUpiKMOogmYelegGrQfwKFklgwNJLn+RhKgcqEivTeVgWuRJP6WZImgrSkDl6aAIeDuBmhyFA6mIo0jyuVrFnSxB3rBg2y9OSt5F4dSUjGeKCfIbfwaQ+pbiLFm9orFhXLgc8b1IUUPXHhR0Y1wAPNk91YKR/ECDNj1aRiP3iImiB1gRsjOmPuud9OG5W84Sf1F4zAt5BKm+kQIyz8hu4UwgSQgYX/hU8IT0oR+nA8p+lpStJxGCpKn/+SvGtmCcggfsaDjxyloeTIYnM/Tue0TrYIQ0WmBPK6Li5u1UpkHW6JOU/kzqGUugWxgXO8vVBUZLRf0M1CQzWdFMC9eOU1rqaq6NOZ8KbjHU7s9ZcCVScBiVoN4/431xqZar7lqD+vCrDy3RuhyCj8W6TqNBvtkj58cohGvkXmx53+vCe2bqnOYDcLQQfrKziCt8yJYTefW/v2STlwosLeKMBn+1ziPSAhvIvSE2RGdoWm/IAMzazruPwZT5ScKRT9esM2OWrvAzGsmUAySmffiTUjFnBiFU+UZ4psaYqUN1hbKGJ5WC4MY63xKJAL7T/ovj2xGT8Mfd96dfncK1wQb2C1X6+UxmneCT3TfoNzF7uFgBwvNqmeihwh0DR3dXkfXxwMalAaQYqw/e4T/MKsIqD7+1/QsqlwQdkTC/16pQgWBZLFar/6i/6VBx242Be6QkDBXV3eL22x6BSE9qtL+IO/m6H/Djo2PdiicVyDKdwPhxObjtuWRSjpH3EffHN8+p8pc2GIBtYajYF3GVCm6b+DHlvTe1QnLDJGMBm4pkjX6QqjUgFzkdYcARSWH0kvyl8+t0l2I61srwUckDnisdJn4oROFPRCYXq/OzGyt4GxNzIyMtFd3t/P/M+43isgXtIjRNO6b960M1aqJ+VzwHB9nivE0j6TYrWNC7OelY31jZHusvEAQWhSYaPdxv/j8yJS9TGwCZlwu4/tJ8HH2VJ4tLu+193HlKTBSMYMYVdSPAoMLxW6LEZJ/zz2o/8rXTnYXR9Zzuhw8IdgmLWyCc7mDAAOyJwJC61w9pP/cfkB6O1uTOyLJqRgbktJ6525RSzgtFi39f/8+SD8uNkHvCLcXp+Y1owpI4YQzd7KltKZkjgKoUxIqUAzcbMRKB8DA5WZ+uLsgmeDDeD4/t5ypiBEhVCtpnI2GtabtgkptYdff2d+450lZM2DyKAs/ky9ynxp8u2NrqFUk/GBN/hK69j7EnuUCwBbCtu5bOt//GUOwDrOOeCkeI9fXKmxXiP9eKNbSiAfuF56fVov4cqVhmgqsL9ph6PtYevAglnKcrGl3wRnqWJmvuEhZHdvn3FqTDguesAE+lEHHSo6wQVG09Kbpfb7TwwmBqz1VTb8sgozk3N3nHcfX0xkCtG1aWHdZALxAmU8YlfO8BBNvVnSfn6L+9v0uHZ+5+YHJWMr9VmXgNyOLB7a8sW07QuWcJwm8rQ4nMozUzHtJ2YWnJUl8DspPsRXFWsuPu5tLEejw+EVa9PHvI7GAy5jNP3N9jYpVbvBdnF9XiIQMnQs1htOR3a9q8W1LSROE5bOgI6Z5YntYUIFd/bXJR4iTNzyZNPx0Yu4dOi4WEPQChquQiJNW3GYT0qR+9amiKs3Nad4xJGOEspqAIRE8FgMiJNV+kzWRHyFrsKL1SIHjterDjO9vhzNskDxMYGACB57FntYI5U0XOkamEHjeF1xiiEqkztUC/c2pkMXiRpCcc/+5M3kETw41pay+PIpFBU82xqz+LY436QauT0SrmbWFopj8LkSR/DYRJLW2+9wpUEYE0W/Fc9G7IxscZ6WjouurgfMFUsoLkb2dZzbSRjB47JWU1k8wVoxnFNbkxhIsvZdmaR0Ry9groBQHCMeIDWC9zEmW3kHT8XyLL4HnRg2DC6z8hXJUvWVKuWo705oXOHQuvfuAw/W8Tz3o3SdBTCnj4kn136P47HwH9/xcpG4XN9xOvDGPls4StPLuitVhuO0+BE8diXMMOQztiFRXDiGQy4gUKo3KeEwNAeLDK/A4Dgt7qozHruZ9m5/ASmJtiWFkSAX4fQUF+25chzSypZwGWTMylcQcTPXW3qCw5KIVtqrNNB22eJofXJyPOJr250Ypaz2/VAumJaBiqZYQSt2OM2W2l+a8WhtusloLlnJwNVEM2bSTio+HtGCi35InBYjaMUzxAzUS0+wAxqjy2xPw0SiutwZSjhCTBVSVB/dlsEMoWoLQH/Heo6jvmQk2xNXXLRjn4vlIDbI4mLUZWfQej2zkVJmIK5YoA775kEb8Rq1QB0zfrsbEMnquE4jWpxWdMwQw/seT9Rt33eXJ84tlG3b3dsr+SoOvN83WpwG9tOuPGp/vxNHuGz4zRMRO0cnbSO7kfETDlwEGcXlg2Di2Gqg9Bm/9jdBZ4sMJ9REgmapLttT5YLjjmIyIE6LsLi44pghmfabcEfl+IJvTxI1a4N6U8N9HzWK47TQwgjTmypUbH+ZSzZFADO8xWVhdRJFm+/bXS4beJGxEa5J7EpQn24PoGEkOi4YsMCkQmgBzbxlYx9NcPRGCcdp4fwDmNr0xpcnxUhixcfMKAOC6w/rlgW/N8KJ6jUophovVypBIglJffpg+/abWngirwBGLTXa2+P45o8soby1sFTjMwLTmt4J0X4PC0D92bAkBGXbOd/LMNggcZpNyCzbyYFxO4qa218aoqd16qjYRmWDwYbmOf5wpeqVjqJbcSJPC4TuK4woCaiXgDPYQHHag8vLy7cUHQ03G7NuxYnMCFrviHk4+NdE1YcNLfP51fv3797889eXP1yatzlVIoiF6wCkNqySpHOySMpY9GEj0wZoWqGwbC6lODbhwDRz7fRowzvC0yoQTBmT5om2D1h6wxQSPWPu8LSzG5DBcb8oBnPxTcoFwuTNEGxk9GmyCcUyl+B9L+vOk0TxHEnudn41zNNs8DKj1mHlDfIp9PO9ruuI2Yn6rW/QjjhgueZ+sqGTdzDijChz4c/EN+VfeGDpjeM9bn7DPGUEbKtvnvYb8juZsNkY4bFBEqINdLtvLu6biUe4sHbh9yY4ET05JhQJhl8VXvrvne4DLH/jdKLgPmwav9cCQljIWhX98LUHIgSWGhgaYUJAdcI3BF9FgCHyXOCrjaKvKkD4hn2pyKg0/LlIaQ/OFYU/G7MD/w8mn5+3Ap9YJgAAAABJRU5ErkJggg==;" vertex="1" parent="PJXzIF6TXpeEWLcsnp0K-24">
          <mxGeometry x="57.620000000000005" y="64.06999999999994" width="84.77" height="60" as="geometry" />
        </mxCell>
        <mxCell id="PJXzIF6TXpeEWLcsnp0K-13" value="" style="shape=image;verticalLabelPosition=bottom;labelBackgroundColor=default;verticalAlign=top;aspect=fixed;imageAspect=0;image=data:image/png,iVBORw0KGgoAAAANSUhEUgAAAQYAAACiCAYAAACjz2NwAAAAAXNSR0IArs4c6QAAAARnQU1BAACxjwv8YQUAAAAJcEhZcwAAFiUAABYlAUlSJPAAAFDOSURBVHhe7b0HcFzZeS74de5GN4AGGhkgwZzTDCfPaEaTFEYaBVvys8rycyjXq91X5a3det6q562t8tuqra3a3Vfr9Oz3HNaWVsnySGNZmixNICcyDHMmQYAgcu5G57jfd7qbBAGQBEkQBMj7kRd9+/a95570f+f/T/iPrUDAggULFqbAXvq0YMGChUuwiMGCBQszYBGDBQsWZsAiBgsWLMyARQwWLFiYAYsYLFiwMAPWcOVdivDkJP78H7+Htz74GMlUqnT19iGfz8PlduOP/+D38IWnn4TX6yn9YmEpwtIYLFiwMAMWMdxDkGqYt9mRm6cjD1sxYAt3HSxT4i7FdFNChDAZrEc82MjzeRBo1hp7Lo3qsX74YmEUcjnLlLiLYBHDXYoriCGZRNpTge7NjyG89QmWeklRdDiAbI4necDp5gfP8zzXdaNe8Lud5+KRbLZ4buezOZ6LXBJRtO5/Ew0XjgOZjEUMdxEsU+IeQcHmQMZfDVTWGIFGkoc/CHs8DOdwD1Bdx5tIChNDJAkKtQR/nOciCZKKY6SX5JAGKqqAyCiJIMVnQsh7/eQQy6S422ARw70Cya6EPRlH8NxBBDoOA7EJVJ7Zj9a9rwEkCPeFk2g89B4wfBHu/g6EDr8D91A3MDaAZfvfgPPiKTjCQwgd2YXg+SMkBxKFhbsSFjHca6B54Ka24ErGjEngikXgnxw353Ze88UjQDoFRyqJAH9zSvipKQSiY3ClErDxPnd8kmHwecsKvWthEcO9Dsn2VEtghlVQvGDjfWUasOjg7odFDBYsWJgBixgsWLAwAxYxWLBgYQYsYrBgwcIMWMRgwYKFGbCIwYIFCzNgEYMFCxZmwCIGCxYszIBFDBYsWJgBixgsWLAwAxYxWLBgYQYsYrAw6+IH2ywrI8rLKMyntWDiroZFDPcg8nY7D4c5L1DKM3K+IirQdX5qdXaBVSPHk4K+8Mg4nFOesc2PFygLixYWMVwFcmyVzWaRTmeW5JHJZI3n5hnw+DDZvBrxphWAL4DosnXoX/cA4PUjG2rD6MotQLAe6domjLVvRrqyFgjUoG/N/cjUtSDnr0a4fRMm9TzJwsLdCcu12yxQlsTiCXRd7MHw6BgK+SWWRWzMU+k0fv7Oezh88jTSmQxS3gA6H3gesfufvexghcSA+GTxe01D0bNTJsnrVVQrsvweK94jAoiOG1KRNydEJwCnC8hm0PL+y2g4+ylsDONed+2Wy+XM4XQ6YTda2NKFRQyzIM8s6enrx/d//ip2f3oQNra8VLBLvy4NqFBjsRgSqZQhurTLg5629RhvW3e5pZc5UC5+c64T/imbCfpt6rnyQF9LzzhTCbSdP4Ta4YsoULu6l4lBhNA7OIjO7h60t7WipbEBbhfJc4nCIoZZIBW8s/si/tuPXsLbn+ylxrAUHaXb2GpdjrX8MubsDtO/UJTuW4dCcVCzsOdz9/SGMxKhweER/PDnr+GVDz7C/Rs34N9+5QWsX7USHo+7dNfSgtXHcBUU2bKoJ9jZako1tOng+bz9U7ilsM2hsOftKFbYMjTK4Mpl4E4neSTm5XDxsMtj9D0M5fFkNIY33/8QL//qXYyNjGLXnn2mUdl76IgxSZdi22tpDLNArd95agx/86Of4J1P9qj0kaP6Ha4MISvbukQbV0AMMltOXuO6k+p35eQY3LTVFX6iqhZp2fSS6nmAjS25f2yQQpxEnm1A3OfnESiONJgbeJTjVn7l9Lhe7TrBygN/LIwKmhQFvute1BgSiSTeo1b5p9/9AUbHxnhFFFyA0+HA2vbl+NaLL+CxnfchWFW5pPodLGKYBbMRwzgF6uLjX0O2ru3yvgran0F7L+hThU4700iQg+Shzjtlrex5uWVnmGZfBl3TOQnGHh1D08e/QPNoHyZJOj2PfRnxNfcpBgyT97ooXBRq893OcPScwtd17fOQz1zuL9C7DWkxXiQaE59MCs2v/B1ae84g6alAx4aHkFj/YDG+QjnOip9L+0rwU+kpDUuac7mPvxQmz02aS+ln3OoPv4eW7pOw8/d7jRjS6TQOHDuJP/vO/8f60mP6pgz4IXJQHrU3N+Frzz+L5z/zKOpDIUMYSwGlGmLhetCYvtmUhULkoyA4xgZgyyTh6euAe6zfkIV3oAOugU4jR7aJIXh7zxrhdIVH4e05bbwwO6gh+LpPGM/L6uEvlOcGUEgLbp8R1MC5I3AMXDCC6O46Dn/HUSBJ1b2/E57OY7CxhXYOXkDg+CdAPAZ7ZAK+0/thHx+CfXIc3nOH4JgYMaMI2RJxqMrmRRxMh2ukB87RXiP4rqEuVHQxfFZqe2QUnt4zZs8Je5ThkFAUZ41U+C8chz08BFsuDXffOaZ5wJBGQYfy5h5DjiTa0z+IH77yGs5duGi+51iGkUAtwtV1pj9HGlXPIO/5xat46dU30d3bh4wIfQnAIoYbgVqEVBw1p/fB3X/eCGF1x0EEJEzxMGo6DqGyU/stJGHn73Vn9gMigsEuVFNwHeFhuIe70XjyYyBCtbPcwpSh7/EIao7uhlf7NsQnUXn8Q9Qd+8Bcr6BwVh37EI7RAbhJEHX732L44/zej9qDb8PVe46C3o1qPu/mO4sazDQw/gESm49Cr+FJP4mngWHqupPP1Jz5FJhgPEd6Uc34u8aHzTsaT3wEG8O2RyfMdb/SLC3iHkU8kcD7+z/FoVNnjIapxiDir0HP5ifRs/15jDSuQoaaYz5XwMj4BF7+5Tv4J5LDhZ5eMz9mscMihhsFhddhVHpTF+DM05407TG18VweLv4mV+uy771Sxalh2Hm4eG7Xs7zHK1NE6nvpuRngvbYchY73uyjcDoXDt9l5u5PP2vQs36PwjDnAcJy8x6HvhF3xK8VxBti6S4dw6l6d6x2le/WcR3ErhW3CMSqxHW6+k7Ey73bxnuJv9yY0NHmhpw+79h1AIp4wncZppxeDK7Yjse5hJNc9hKEdn8NQ63pkZKIxLyejUbz1wUd4+c23qWkMmDAWMyxiuElc0YFX/DMLplwv3V8U3avdX8bU33Ve+j7tsWJY06FpzObj2ijH/ypQ2CYcwXxeL8B7B/FEEp8cPGxMA3W6mmtV9Yivf9jMEtUs0szyjRjZ+UWSw0ZkSQ7KvSjJ4Vcffoyf/epdDI6MFjWNRQqLGCxYuAGoL2FgeBifnjiFiclJcy3rcKN33YMo1LaUNDjC5UG2aRWGHvoS+pZvNaNO0hzGw2G8uftDvP7e+zyP8NLs9H6nYRGDBQs3APUPdFy4iL7BIVp8bPGpCkxUVCFFzcCMRk0FySBftxzDD38V/U1rzeQyEcHg6CheeXeX0ToSSY06LT5YxGDBwhyhtl2CfOTsOQxRuDWxNGdzYLB9S3GtSVlbmApdq2nG0BPfxEhdu1mhKrOiZ2AIv3hnF06c7TBrWRYbLGKwYGGOUJ/A0MgYLvYPIJXOkCgKSDhdSK7YStPBW7prFpAJCqEW9O/8IsaDTaZ/R52P+0+cxGu7PsDA0PCi62+wiMGChTlCpoPWRIyOjRttQaM10co6oLbVCPs1QU0h27oOg5s/g2iglo/azMKz3Xv34+ODh8zw52KCRQwWLMwRuXwOQ2NjmAiHjTkgZzYT9e2Ax399YhA8PmoX2zG4+n6k3BUmjPFIBK/v+hAdF3oW1RCmRQwWLMwB6l+Q+TBEbWEiGjPTn7Mkg3TdstJU9DmAGkahsgax1Tsx2qQJUMWRitOdXXj9vd2ITEZLN955WMRgwcJcQAGOxeNmFqOZ1qxhRmkJNY2UohsQI5kUoRaMrbqPJkWIF0guJJy39+zD0dNnkVkkHZEWMViwMAdomFErKTVJSeda2l5weVDwVc7NjJgKlxeZto2ItqxFzkx+KmCCJsVr1BrC1BoWw9wGixgsWJgDJKzRRLw4qSlv1k5iojKE/LVGI64GkUogiLEVW03npWbR5rI57D1+Emc7LyyKtRQWMdyDuMH2zQJh5jBQY0jycDgoNjYHUv4qFJylZe83CocT2abViNc2I8+wNMqRpKny7id7SEB33rmLRQzzjlsVOzlhu3qluPov0997nXio4l2z8un30qkFI6jJTBqxZNKc55m9MZePrf0t+FfwVGBo2RbEZY4Qmuh0+Mw59A9qXsOdzXyLGK4Cm/6x8GeIFy/Kx0FBPcw6tzvMOnz1OGecrtJvFG19l1MOnud5rvuMysjf0/LrwGtXBcMxfhrM/Qy/5EchZ3ea1Xpmai3D0W/8wYSVc+iZYpzyOr9q+AqH9xhioFbM9yjeCl/Pa6mwznWfftM1nRfTwnN+lxcr+Ru415DN5Iz37cut+YzacWNQGbasQSTYaMpLvkVHx8dx9JQ8e5c8ed8hXKN2Lm5oplgylUKMqp0mh8zrwVbBVAAzG21a4bs8mFi+AdkQVUAyfaRlNaKhVjNGPa5C5iGHLvlQC0ba1gK8J1HTiIm2dcj6g0jWNmFwxWagIsDAZqlYHj9tzy1INa0E3F5M8l1j2uuhguE0LkekfTNylbXINK/A+NqdJpxcTQMm1uxAmmppNliPSYafDWqK7pTwy6cklmhDO+KN7YDXh2hTO4YVvtODDOM5vmw9QPs3zXDCPM/6q81qwcH2TWbab84bYFo2IFrfxvDljKQUrnkBiTKXQzw1/2USM59JY3/fKTXb9CxMffetRkMEzPyNNK82ZKsOzWgsjoOnzpi03kksSdduIgUtW33v00MYGhkhu80iYLeEAiKTkzh04hQ6L/aY8h+jcPQ8+iIJgSQgXwlSIdWayn+BClgtqM4VF9mdWo6rQy2w8Z+gc41b8xbdRwG1xyfR9Mkv0DzSi8mqEHoefgHxlVuLDlAUXoWf+upk8T0kCVDgTFjeCpi9IDIpQ0gmXHlakss3xUX3mTjk0fz6P6Cl9yySvK9jw8NIikxMkfPQc0qL1FbGpxhnhi/tQPeU46w0yeOUzqU1mPTzM51E09HdaLx4Gg4Sgp3PPbFzB9qXtcIhV3TzCAmltKinGP7m1SvhWmDX7Bqi3PXJXvz5d76PgeERZFnrzqzeifgT3zREetNQHnefwPq3v4NAIgJ+w9aNG/An//7fYSXz8Vp+ImcTXZHLfGBJEoNapeOnz+I/f/cHOHbmrHFgMl8ZcgnKlrIAEUkK+HDramSoAczHmxSqNmmp7+tAIBlFmoIfppaQYksvc8AI+HSYh4qnBorfNe6zUZhrOo/DH5ugiePACDWKeE3TvOWVXeEPXURldFwVqXhRhGGCn593lKHlzuro+59/97fw9eeeRoWPhLiAEDF8sO9T/CXrXM/AIDJMnyGGx2+RGJRv4WG0vfE3aBi9aIR99fJl+B9/57fw0I5thgB1zbiOYxz0qf6HLBuXdKaoPSkIU2X4z+12kpSLHs316WC5y8/kjTqiXZrEwAw6fuYc/pTsfYT22KUqOM8pMfJTEiIFXe4nmDcw613UAIxQMVz1ReiYL6gTU3s+lIU2x7CzPOYrCQrXwfgbT1ICP81Z6eu8oBRXCYP8S/7R730bX//cc/BXLCwxZLM57Dt8xBDD6a4LrAcOXKDJN/7kt1Co1ESlW0Aihqp3v4fVnQephxTQXF+Hb3/ly3j+M4+ZehGNxzE+MYHu3n7TBzEZT5hhU83ATKYzhiycJSII+Lyo9FeYI1RdjZamRjTV1yNYXYkKr9dsguPkIa9T18KSJoY/IzEcPX3GXFMi5lOoylCll4ApfKmy+jZfUEi2wmXB1Uax8xm+ILdyJkQJrYjHtBzz8w7lisI3xGDCL5LbfMKQG8MuE8N/kMZwB4hB6xiOUUv96+/9CPuPnzTX+hvbMfj8HyAfbDTfbxo0Ce17XsG2w7+EE3kEKirw8LYtWEXN4VRXN3ppumQ0IkKCSKdSzBMb0pQBHbkcNSnmj7qTpAlKO3BRs9KntIYK5pOXhFBTWYkta1Zi05rVWL2ynaQRhI/XnU7eNwtJ3DXEkKJ9fWblNuS0L8N89KmywvuiY2jpP0/bj6o+wz+/+VGkquv44/wIljMWxqpTe+Gjqq/w+xpXIqwptrcyBDYFtmwKq84fRmV80oyW9LWtw/jy9RSw+bDPWW2ScbScP4K6kV5DbsN1rehrXsXsnx/7Xx6pa0Z70DZQdGyrkZg7RQzq1+qgkP7tP72Ed/fuR4HxSVYEcObF/wnZhvbSXTcJ9Tmd/gQ7dv8IDppnEmjTslO4tT7D+GtQlWMe62OupqBE2wg377eTsF0uJ3zUKJpqa7Bj4wY8+dADWLdqJSoDfkMmU3HXEMOYvxqdT38LqKJaV+4oUweeztURpoSnEkwxSUMdbWUPxxo61D3qBNIsNu2ZoILi805WyJZD76JufAARfxUufOXfI9O6uti5x0Izz2rfB71HQ35mDwhCnYPpFMPhO9RpqLAZ50vnptOwAvaJITS/+vdo6u9EmPHv2fE0kur9N/s2KJ6eUpwZpuJmOgr5vN5bDtPD6ypChak4iBR1n9LPdNXvegnLBi8gzfeZTW13Pm8qioHCV5z1Po2lKx+UL25eN2HyXHml+1Px4ntNmkv5mIyhefdP0HiagsLgjmx8BIWtT/CM9+t5xUfxNJ2time+GE/lg6BzU04MS+8SYU0tJ4ZadWY/lh/ZDRfvvaPEwPT09g/g7/75p3h91wfMsiyyzL+TX/5D1on1l/P0ZkDSwbl92P7O9+HMsjwUFrNPYl0OVflb1ljNMHWBvyjfTD5dhpwQF+lAZmTREbHMSaG470VxGF56ZG0wiM8+eB+ee+wRrFnRbjbF0Ya8Ih7HfyLMU0sIYm/tQv3JoSPGk44Q8/gQXr0D9mQUXlZUeTOmkgVnx+HisCMruPf4RyhMjqPg88Pecxb2sQEz19198TSPU8hJGxjthYutYF73MEMDFFq/0RjcmFi1HXlWTteBt1GgXWijkLgYptzI5ylM7iMfoDB0EYX6ZbCdPQjX2QPIewNw9nXAceZTFCqqYBu+CN+R95GlXWqjgFTyeoDPpyjgGvrMen1wyYU736mVeI7Te+Ea7TdDlI6+87D3d5g424cuwH3+EONcDxs1DzcFSDPobBRaj/aJUCWi9uS/cBLV0QkzJ3+8bS0ytY1wKn9GelAgGblOfIKKU/uQ5m823uvieZ55aRsfhPPknqJ2QfKo2PsGsiQcpdl5aBds8Yh5vpL5GBjpM2UwqCFQag0Kx8n45UlG7oFOeLqZt4EgCpERuE/vQ44kq/0q3MwfOVPV4ew8Yj61u7ZH7vKpRRVqGuBjGdWQ2FThJQiP7diGjatX3ZENYyVYZ6k1HGWjpLhKaIdqmpFvXGHy+6YhgR3tQ3PXIbMXqCCTTPNX0m4f0t5KRCuqMRxahpGmVehZtsUMHw+t3M5jG4bat/LYgqHlmzHYug5DLeswXNuCSCBETdqHAstM81zECDQmi2RD+UjRLDnXfRF7jhw1ruqkNQT8fuatcz507kUEZrCTanN17xl4WbERDaOZguSZJHmwcodYQYP950xnTyUFtJaVF4lJ+HlezQpuS8VgD49imfZciEWKBVaGIWESDFuz1nMH4eYzDgp0TdcxBLTJDMNs6j6Bip7T5h5tPNOmPSai46giWTRRpXeFh+FkvFo7DpjrJrzpoDbSwjgHGL7iHBzsQojmDBi3KqrVIWoxDgplgOp7e9cJxjMMV2wcrXyvKzxi0tp48Qx8E0w/1d0ZYJg1DK9S+04ozL6zaD2zzxCRZ7AbrYyzbWIYnrF+NHccgpdx1r4SK87uJ0H1wUGBres6gloS5qz7SpA8vCSypkH+TpKu4HmQcVOctZfG6ou0z5nnTpZNLclYv2tb/UaSp94pbaS69yyqlWZpGosEakW9Hg+a60K019loqLVmpXCzTGbNh5sB60OG5B7zBzFa344eCv65LU/h1MNfRednv42Rx34dkfu+gMK6R4CV9wEtG4BGarCNNN90NPG8jRrn8q0orH8M8fs+h6HHv4GOJ34Dp+//IrrWPIihpjUIV9UVJ80R0r6HR8fx+u4P8Wff/SF+/OobOH2+8y4jBqLAzJX9Z7QECrY9T+WrJOBGkSqpqNraXqqW7jHPqEUSyPyGUY2aZs5mQHs4UOHlfQpf+0WU31XcP0Lnal3K4es+7fmg0HTNOBEtvmVWaN8Kp5414fOcz+rcwbSoONWjfOlduo+/63510hXbMUJxv8orpE0p/SZu2fK+FXyHSYcuK3/4bsazmHd6t+5TnPR8MYyrQb8p3xWWeV4Epfv5vEmXgjRQHHnwHoVv7jXvViquEvk7CHXUtTbWozFEzVJlwLgGx6gtkVQV71sCW/Xh+hXoJRlc2PI0uh/4MsZIAmmRQPMaQJ6iqDlAu5XJvJMGYMywaYeuSehlJlJjA7VU+ZwsUJuIbn0GfQ9+BZ1bn0fvih0YrW0qzcIVB2fNtow/+MXr+OjAobuPGEwqp2LK12LRXb4wsyj5myGD8nEtzBIOL009v24Qt4ypL5gSnzmnoQRzfwnmtPR96jlRTtvMfJuGKcEZXPF9enjTby7jatfvHDQc2NzQgHpqDeU8qKJ5hOFukl6pYblZBBvRu/05jOz4AhKrdwJyRU8zVDNSjcBP60uYO5iPelZEIqKoqkeeZsfofZ9Hz5bPYoSaicwWEbEWh9VWBbByWdvdSAwWLNweyJyoranG8uYm+L3FDlRvNo3ARe1FmjLfbxo+tuzUGEAzwnTwmj6L20COagSkVVD7yFc1mNEwQR2W6nh87L7t2Lx2jUUMFizMFSIGjf1vWbsaTfV15rtMyVAPiWF0gNJ1XV1qJmRaaWRI/SnXMF/nHSQ0DzWd+uELRTOR721vbsTjO+9DbbDaIgYLFm4E6rlft3olVlHddpY68KqjYbjPHSwK+I1ARKIhW617udU+ihsBycg+3oe6c/vgT0aNWeR0u/GZBx/AJpKeRnwsYrBg4Qag0YhQMIidmzeistJvOplduQxaLhw2Q443JODqkDUdswtICnpXfAKBU++jbrzffFeH/KbVq/AozYhgZWVREyrdbsGChTnC63Hj/q2b0d7SCs1SlPpfFR1F9ckPKHThuQm6OitT1BYWckhWRBSbgOfUR1jRc9aMrokE6mqCePaxh7FhyqpVixgsWLhBSGtQH8MLTz6KYFVVSWvIoqn3DNyaXKaZoVcFSUOkoJmxmmm6UNqC+jKi43Cf2YeV5/YzvmnwCrw+Lz7z0AN44oGdV6xYtYjBgoWbgDohH6Mw3U+Twu5wUr4L8FFrqD/5EVx954pCPwMiBXU2LnC/AknLFhmG/9werOjYC386bvoV3C5qPps24otPPo7G+lBp0lYRFjFYsHATkApeU12Frz33NJY1NZjp92aEYqQbdSd2w6mZm+pYnIqFJgW9g3Gwj/ag6vTHaDv3qXEGozfLZNi+YS1+7flnaUKsmrGIyiIGCxZuAlqvo+nEVQE/mkK1cJTWSrioKdT1nELw6LuwD/dc7kOQfb9gpMDw1akZj8DdcxJ1x3ejpesw/IlJ85vmK2xbvw6/+eILeHD7Vmo/HkN0U2ERgwULNwD5ZZBfhAs9fXh91/v4h5/+K8739F7yh6A5SXKim3e6zWpQXuRTElQSg1aQ3lZSYNimUzMB2/AFBE5+gLZj76Kp7zR8qZi5w8F4PUwy+J1fexEP8VOrVKeTgmARgwUL14H6D+QTITw5iTPnu/DyG7/Cf/6H7+Jvf/wyPth/AGMTYaNBaCp6zF+Dvo2PIbzjORRCzZQwipgxIZIMiJ+3CyVC0JCp58T7aPn0FSw/tw/BiQE4tQyf8Pp8eO6xh/H73/w6dm7dck33eHchMUxj5ClftZhp6oUrebL0mxjdsPrl+2bA/FT6nR+Xwpl2Xr6l+Fn8cvmd5R+vg+m3XfG9/EWfxXOFX174NGdMbcVKzxpfUleEo2tFXE7DVTD91Vd8nxre1PCn42rXFwYiA5kK8trcPzSMj0gA8t70J3/5X6kl/Az7Dx/D8Mgo5TFn7s24vOhvXoOOR76GiR3PI1fXVlzMJFJIUmDnawXmJTB/RAYZEo6GSIc6UXn0V1j+8UtYc/ojNIz1wpeO8x7low31tbX47a98CX/wG79mpjxrpei1cPcRg82BggpEzizI1nJqcclPo83OfBJra++F0r4M0gHVqyzVT1Wevxd0TQU6VWCmIOuwQcVcYPaZPRakMvIZfWbNajW76eE1a+D5mXfYkZF6yfDlSclWmjE3E3wvn83SBizvSZEz5yom7fNgR0rv4Tepq2mFoxaJaVa4ef4mn4HGRZzibirFNChMu9JeXJiTd7nMXhVG5WWY2kdCqzfzSht/N3nHa2mnx7xDuLYLN77bybSW4q/PvMJXPHmYMBQmD0MNiifDUnzMHhbmNzkkuY2t6yxQPGQmJJMphCOTxj/B/qPH8d2XXsZ//D//H/zxn/4VfvrW2+joumA8iOdyWVN1lJfhqgacePhr6H/md5FZ+xAK1BpMeueLFExZMiwRgUY7kjQLJseAwfNwHd+F+t0/xEYea059jAZqCN50wqz8VF56vB5s27AW/8O//Rb+zZe+gBVtrXPysL1gjlqU8fN1yPnl0OgY9hw+eslRS1xeluVIxedHzOtHWowdCGLS7UO2psksTpn0eJEI8XptI9JuDxLV9QB/S/LZmM7rWlHwVCBcUWnUQHsmjcqyoxbeM7HuAeSr6zDhrkCuZTXyDCfOd6Xk2itYj4gvgHTDcqBhGXKs3BN1LUDTSiR9lZgMNiDfssrsRTGudzWvYrnZLjtqYfgR/p5lmBEKYUpxDjYiSWFN1DahUNts4pmorDVx0/3hyhAKje3IM40RxjvL92UrqhFlnDLa94Gf/gsnio5aSFjjrWuQaVmDBJ9NhRg33p+gQE4w/gXtIcF7wjUNKDBuWX8VIpU1yDYxbQxzlHmZ5/V8TSOifD6udBpHLacvO2rRtaYV5l1RPltgGlKMQ7QqhLziw1ZqzMu8rW81+1NEKwLIMM9RGTRxNq75mb4YiSSh+DGv5dshWHLUoslEWuSzftUK04E2W9243qE5B9onUvuGmP0qYgmM0xQQEWg7ejl8ffWd9/D//uRneOnNt3HgxCmMjI8jzfulQanMzMY8rANhpu/8+kcx/Pg3kF+2oegFi+Ulfi+SAltzah0zoLTEJ2GPT9DEiBvnOjMPXk9FYU9MwhYdgz08BMd4Pxz9Z+DtOoTGE7vRenYfmkkOwdgE3NmUiZ9Z7k8y9ldUYHlrK379c8/gt7/+IrZv2oiAv4J8dTVCvxIMiyHdZsg+G6LaNVqyxW4VOWZsZ3cvXnrjLbOGXJigMJ9/7GvG65FhVrVoan3K58qQcg+xWi1dV8pVkAWd84u5LnbmfWLboYtoOf4RaiIjiLLQu577LaS1EYxaAD2nllwFb8Lnd4WvSqGWXPdcCpNp1jukQeiaeoxZse2RUbS+8yM08D2T/kr0bHwU8bZ1DEARY0B6tmQfXo4zf9MyXHPOcBWm7te7FQc9p990TjWz+ZNX0Uy7M0Nh7tz2GUS3Pcl7lDelMMvxVKuu5xRXXTfxZJg6Vz5OT7PeRMJs3fs66juPmttPaNObjQ8V7yvHU3HUoXNpAUq7whT0vhnlpHwsptmWyyN4/jCWnd4LB9+v+QK/89Uv4YkH7ofbzfheB0oiX26ERVsOSCOQD0XjZTkcMTtMT7L1HxgeQQ/NhYGRMbPZEGNhNAI1QILx4WFjGCS8uIg32GQ23Uku2wRU1RV9HygNBso3psWMQCgd/D4VjIttcgR+tu6VAx3IkdQzRsssP1+EfFo4c2m4WIaOdBKeTApO5oFbz/PWoq+Pojem8huczB+5Z5Nn6Ae2bMJnHrwfK6khqC9BbuRvBLedGBS8XF7//Jfv4t09+0zhlErs5sEYJ1iAI+MTSGhaKaFt1i42rkT+qmr6jUHs6yNbhyaGTKEYZ6rN2lfiKjtI3ShUuNRImvo74E3FGb4Lo9Q6Yqx4l0yfW4Sdlbt56AJ8qaRxfT8aasIktQ+b/AXeMgrGcakcwfqp8ej7GFv7CWkc1JbmA1r1FyR5BsMjpjzsJKW2hnpT+a/n/rwMtfAiBu3BkGSrL1fsEWoJKQqtTAHVTzn1UXgiAn0v9tLLXKKMU+hj3irkqNXEalsw3rIOuQYtj65mBFnXrojHFFIoE+50sEw0hNh84A2EIsPm+auWt4lL6VwNFslJfhNM/PQcL3tJkJXUDkK1NWhrbsLOTRtoOqxHc2O9IQQ5lL0ZLAgx9A0MGu+6r+7+0Ng+xYy/NZgC1VH6LpS82c0bFFox+4sotR/m73xBfQJlqNjnuzAuhW/y6hqV8CYgYTWh6Q/Phfl2Hz81fwQJcJaahCYUzQVaTlwWjnKdMSMI/F7MCf6VkDHehghIoOpIjFdUIV1ZZ7bti9S2GjPNeFGSdlDWeK4AQ7weKQjUsqpOf4j247vglkZGlNX7cpxURHkSQU75yy86FJw8SPlcLuNeXpOr6kMhagcNWNbYYPoOVixrQ1UgYHw23qiGMB0LQgydVPf//B+/h/cPHCpVpGKn1rVebO67AZj7b0dKGHC5wKzwZ8HtDl8oveMS+OXKJuFqKDmIM3+EYp0TLYjknayH8vQcCdQg4a9BnmSQoyaQ5nmK13JV9UXNwHSeUtAksbOCocoUkvZ6LVKg6u8Y6UHDwTfQPNhhouVhi99QGzRLuNMkA7fDBheFurg/hMvsC6GWX0d1VQBVfj9qqDHV19SYjWRCfFYjDOpzMXtJXDWON4YFIYZTHefxf//NPxjvuiqUuMeP0Zpm4wH3qlDL4/bAZmxoCxZuHWbCEYUnb3eZTmaHt4I2vhcpb2XRRGS9NG7uy6MoqoPXFTSRAmnGdDTO0qcwFTRJvZ2HsfzgawikYgzeYfoCvvCZx1ETrKaGQLKifSMXciIHTVPWqILIw0fh18Yx2hvCTcKQliFXbGWNYr6xIMRw9NQZ/O9/9d/Q1dOHLN/WW7cCI1ufRr5KHYWlG6dDBmBFJXNKHTOlaxYs3DRYiSRARtjZ+lPw2MQWv5vOWFUy/W5uniPKpKAhSZkF1xYlW3gE1QfeQHvPMdN/4vZ48e9+89fxteeeQSBAUtI95i8hgZ/yWRb+20ECs+G2E4M6fo6cOIX/7S/+Gj2DQ8gymRdaN2L8vs8B1Q284yoJVQb4mFnqTFygzLBgYe6YSgrSFK6DXA7Oi8fRvvdnqJbXJMqFnKP84e/8FnZu3WxMgcUE0eXtBTNAw5XxZMpkhjqsNFRXZGoKvIT+aodQ/rRgYdHgBklBSMfg6zqCSq1j4FeZBfdv22w8Mt9qR+HtwG0nBvUAJ0gKGkc2mpYEXeaBOnMsWFhyYCVWXb7a5KXZQLPBNjGIxoFzcGgTYzaKrY0N2LpuLaqriq7UFhtuPzFQQ9D4scaNy1aLsZosTcDCUoPq79Qhyev0KVxCKo6KzsMIlFzMO6gxr1+1EmtXtM/wg7BYcF1ikDDfajeEyEFHOSMvzYm3YGFJgPVWw5HypVAekpwrKeSysI32oqX3lOlw1FONdbV4aOtmfl7pNWk+cKuyWsZ1Y5VhSx+Nxag1zVFtui5ICGbGmMihdMnC7FAhz1NBLyhMvEvndwPUnyAtQcuaRQpzLhPel4qhsovaghY+Eepk1M7SWzesM8OQ8wn15Wmqt5ldfIu4JjGIfSZjcZw424FzXd1md1wLCwRVxmiYx3jxfKlALaumSM/VW/KiBuOv9KjeX/K8dANpooDahy+icbATdq2VoZas5c+Pbt82r9qC5FRrPE6cOYdT5zqQmYdG/LoxS5Ep9x49ju///BUcOXnarFG4UXVF01iLHSw6CrBpkYxZXGN+nh8oTibM+Qz0DkFpSEzCd/QdBA68CWgXaFXQxQ7G2zY2gMpDb8J3dh/M8uAlWx6Mtwg5lWRTfJNLp1NxBLuPoiIRMV81VXnzmlV4cPuW6/pDmCski/IZsefgEfzVS/+Cjos9psP/VnFdjUEjCt19fXhvz6f4zsv/ig8/PYjxSKTUZ3B9iBA8Lhc8VKHK3QpmZ+n5bAUVl2QUuHgKGJniZ28pwrS4Y3Ad3Y0VJz/A8tOfoObTN4Chi6ycbLUWI5T/ittAJ+r2/RztjHPz8ffhPflRSeNZAqR2BaaQgswH7Wjde7pYx+ZY70Uk9qFO1FJjUN+C1kBV+AN44oH70BCqnRdtQeb94Mgo3tj1Pv72n3+KT48cQ+/AIM3/W6//1/THoP4FaQk/f/s9hEkGQyMjOHr6LNOcRUNtjbGRrjc/WyvX+oaG8P6+A2YlpLJ1oqoOyYaVxSmoV3tW10tTWIuaxixQIYkEJofhO/gWVvFQ65rQUtjy2vilAlMR47D1nkH9/lex/Nxe46dPuxz5I0OwjfcZHwyazw+HZoNePc8XFIp3IgrHuf1o2/MvaBrogJsk4WHcK0Z7kKFJkVZZeHwsD81fWSTxvirKpEBC0DwFkkLDgdfR3HUU8VwaWaXFDLdLsK9RL2PjqCVBhkZJDDQjHE5Nf96Ib77webMXxa0MUUoj0CrR0+e78ONX38DLb72Nnr4B/pAzPiYe2rEFNcGg0dRvFlclBnVgdHb34KXX38Lxs+dMWhUh9Tkc43fNZtQyVS351ASNMkHMSDC/j45P4OMDh8yzhhgCtUg2roLZ5vtakVdLo47KK9hVEeGRTsI2OQpnx6do/+hf0HbxBLxkdD9bW40ZJz0VyHtZiDOWxi4WMA3KDLYsNgqPnQJVdehXaOcRGu2GS6qr4s3DQROpknZ7Zd85ZKITyHgrUNA6k2su7LnNUNmQEGx9ZxHc/xpWH9uFagqDmcDGOClW7kwSNRQsf/dJJJnGHMmhYMiB5VlK2+KC6paIjiZQhHWLWsLy/a+gkQSnpfFVTEthYgBpxl8ev4rpKKVlKkmQGF2sj40XjqCCBKks8foq8Aff+Do2rVl9U7Mcpb1LS5+MRtF5sRevvbMLf//PL2MPzXw5pxUJ6D2RKN9HTWLdqhXw+2Z39DoXzCAGRUC9mx0Xug0pvPXxHqOyGPbhoRdpstJoOIIDJ07iODUIObzIUViLfQ+654pswvDYGD7Yd9A402S2IxwIIdG4utiqXzXiDEt+A8puqMxQUcI4N3GqVTqzF/USJLZUgRjJQBWVYRkhio7BM9RlWistp73krVeFKFz1nbcLSos+mHp1DJHA7LEJOEd64Tp/CFVH38GyY++hcfA8PJnizLjpcdQ3eempZiX19Z5FJhZhuuSKjb8Ygiin7dKf+YXKVvEXIdM80KYq/uO70XzkHTRRZdbORpeFpASeiyg8tNGlUlddOIrsCE0iCpl8RRiTUmEqvlPjvdDlo7QpLknGa3wATqat4uwnWHn6Y1THSXYqPEZJW7pVsU5VsZxsTEdBGl6e6ZDWqjBK8VaDFTq3D7UsK9VHEcET92/HN774OVQG/Lzt6ukrylDxUw2xZE/awdDIGDWETrzx3vv4zk9/hveogUvuyr4kBIWby+VxcXAYbmoodbXBopMWNqw3ShBmrUQxEgVk2EoNj47hVEencY394cEjNCfSV1VJ9JxsJSW8kXbT5rWrsaa93WzfVc9I1VYHjXvq7v4B/MV3voeznRTWXAF99csx/MCXkattvZSZJmPNJyuKCkkdlBoDZvjuFFXViRGSwgh8wxcQHO+FlxXUqUzR/TPix7D4X34WY4Egxlo3IlW3DJlgIzLVNDPcFSxlEo4IY7pKeIMZeCneZZjvej8PpUMtfyYFB8nAJc0gMgYHK58/3I8AWyBPPAo3VU3jo0+47vsVNoNm2iZpVow1r0ayaQ0yNc3I+INsmpg2rRC8mbRNTYvO1ZOu+Otg/D3Mfyfj7h3sRA2FoyIegUtpFOYSNu+RB4cUCS3pq8ZYqI3xbkKhuh7ZylqkmR6tery0wrFMNCbsaeFf733TMSNtpXomolPZhIfhGulBxdB5VA13I0BtSEQw63v0OK+rDKLUgiaqm5CqbUa2iulgGnxjPWg+s4cNVtjEOlQbwh//d79v9nCQv8VyiCZGjIs+JUsaTRARpFJpagYx05cnZ0T9w8M4Q1L49MRpagRRRjtnSGM2YTdJ47+qQCWefOA+PP2o9qRcQVmsNu+ea9+GLZVKFTTUMTA8QsHtxqGTp7D30BH0ywMuM+9qpDAVSpQSZ2dBiiT8Xg/JIYTlzc2oDlazDArYe/CQ6WuQe/0IK3DfxseR1Hp3Qq2KjYl1sNWxUQ1zsoVxak45P+3pGKpYaB4KlZNE4eSbDBnohdeLm3KJUAGmaFLE+N4oSSnjr0GOhJEN1CBTUY287F/Z7VLxjJsuVUg9OUv4pTBNBKR2SmgMkbHVUAcc4yxXXC62Ji5WOPn2cyQi8FKoKiOsfEn1G1ADo+5k1G4dc8jjGeBzRZ8WFDSSXKwyhFh1AytnnTnSTGuG6StIyKT2Km3OkguyK9KmOOiDaZFWpjTwsCue8Qm4acJIu3FMDqNmtA8+psfFVrJYBjcR93L+8Tk51pFjFDmCTVZUIsJ45xnvrL+Wn1VFt2ck8Yy3tBxaZC5TRP1ORpMsVfIr0jMF5l08WLfMrlClMnJSvXeK1NQ3IkJg2irH+1Gh7ezZIMmtmsH10lZKv9IhzTTBfE76/PDwHQH5dGQ4aq01b+Grzz/DxrLGmNySkTwFIcv4ZBg3aeAigzCFfpLaQXgyilE20JLJgdFRRBNJVjNqJqV4Xa/1V7Qkk06XEytam/Hwtq3YsWmjmWlZS3l0u13G/FfcrgbbL9//qHCGZoPUlI6ubuP4UsxVSvMNQZEpQ2diJ1Vcp/wEUojKIxkS1LAqriqquSQ3YRR6EQMrnXbzcYsReb9N7qz03JSwbwXyMJTRQQLQGvw0iSHLVkoenQtspew811x2eWdWhc0bX4XMC6WEBelQvHjYGc88CSFPYdJ1OyuUXLWpBRIpqPNNNradxCF1Un6PmRRiftIxE0bhpaDZkaJAJZU25nGegmU8MzO9dtn4Jk3ySUDhYp5qWzX1mktocinGVz4Gmf8OEoPIWP02Tmk8vFdpEG5XClRXBHnIzskrNcsjxfJIy4EsiSFHYjCu+5gGB9OjcpK3b5Wp8UatNBGqLyofhymXoqqfVyNDE1mNjwjBrV2a0nE2QinT2Ji6xs9bShsFpvy8UqIqKxkKUJ2XO7ryEKUEViq/TKmipp5FksSgBjqRTpvfTC4rAJ2VPm/UHNBzyiPtzt3a2GgIavXyNqxe1mrcwNXV1sJDkhBRiSSmahO2b/7hfygMkp0mYzEjvIrCDfLBrCgm5TIUprqkymkrFoM5uYyi5Jhrl+PAM/6fHt7NwITJzDJhlSNSKkyRlj6l9eiaKplxPW8qm+5lZSOzqxWwsTCNbWn+6Sf+xmeK2arI6qr5pUhqxbPiT6Vv8w2TmtK7ypqEkqgrhpD5RRVL6THEwHSau1jmhhj4qfsUjkN/LkWU18ppMOHeHhTjf+mPSUMxGvzL/7rKbOcn//E3h7leLCfjlk2NkCkrQWVFUhCB81PflTaluFz11c4rzHKVE6ac3jAYFcXoEpRlJj9NNIt5L2QZpzJMnSldN1q3DvOtiKnh3SpMWpk/wYAfDaEQQqEaLGtqxFoSxaq2VjTW1ZnREg9JRARh+6P/4/8ysTGsNJ8xmQKZEoNUiU6dv1B6jw2TngAitDPztmKLfGWulj4FXs+T0Uwn2zzjcojKgNJpCap818JlgS/h0u3Fk2m/3hFcEuOpkWG6psfNXLninuKf6fctNK4sgWlxLOFGy0kmq4j9EuYlkQVquUk0RodNw6E6LuFa0dqC1oZ60yJfSszU91076vOL0ntN41A8MV6h6oJVqA4EzCHv0iuoTYSoSdgu9PTOS9ZcC9lsDnsOHcbf/finpvNEm3R0Nq3HZONa6lW0Ha8FJcSnziiqkNepBBYsXBUiCJGCmd4sLWIeQTPSNXweG3qO0OQqTmZaSVIw+zlsWE9iKGsyiw9lTUaai7QF7Ueh+Ukkz+lN3/wjRxtq3+Fj+IvvfB8dFy8a924XQisxvvIhFDRh53rUSZWeMVbsSxcsWLgBqIqnMzzSxmSaHy2hBI3cTA5hxendCMUnGHQBPp8P3/zi5/CtF1+gHV9zSfgWLZQfjOLUWBpRu92H1Cp1vtSHag2bqqAqEmHafywoc8d1YHpj57M0LdwzKJOCNAV16s1rNVLYcdT0HUNNMmy+y2zYsWEdnnpop3HxrpZ4ujwsuoN/9DkVl7shbyPEmNWVlWioC8FGKpKVU5WchF2bbpaGYK4LqoEWLMwZIgRqqkZLEClM7VeYL2RTcI90oW1E6yHypp4319WRFB4w83k0NLlUsSDEIEoKBCoMMWgbLcGMhWvvPn5eFyrUVEkNtGDhehApZKglxJNAUvXmNpBCLgPnRD/aeo/DTc1Xb/DT3H3kvu3mqPB5F78JcQ0sjMbAQx0abY31qK+pLl2jOREdMRk8J6iwLVi4FsqEoEYkKS1BpsNtqDf5HGyxcdT1n0ZVKmoaPs0q1Pbyn3/yMTTW110xJ2ApYsFiL7WqtanRDImISTXzrzY6ZGY3zqnwTKFTu7AIwsJsEAmIFKQhGO3yNtUT1T+SQdXQOYQiAzQhsnxVAaGaWnzps08aX45uMytzaWPBiEFrHtRDq3UUWoKqiSUVyRhsk8OGga8LFbRsRosYLExFucGQhiBCUF/U7awjNBv8Y91oHO2CJ5sypOD2ePD844/g4R3b4PNeZ/h9iWDhiIFaghZ2rGxtRZCf+q5+hspwL4V+Dv0MQpaFrh5mixwsCNIS1FiYuQmsF2Yq8W2E5iuM9yI0eA5+mRClUYhnHnoALz771C37WVhMWDhi4KEtu9evbDedkCpC9TPUjfexUJNzE3bdc7tbBAtLA6oH6lxMkBTUYNzuKkGt1j45gtr+U6iJjpgZjupHUH3+9te+jOUtzdBekncLFjQlMiGWMQM1V9usSSA1+LWSb6zn3tMa1LLcJa3LgqKsJcTlh5GfCzJSVYCNGkL18Bk0hvvgLM1uDFRW4re//lWzatFMe76LsKDEoMke2nlny5pVqK2u5BUthimgdvyisd3mBpbI7eptvp0gBzhddppTbtTW+BBq9CPUUIGaoAcer0OZU7rRwqwwnYsiBGoJIoXbbTZMBTXaitFONA+dN+avSKGSpPCtFz6PnVs33XWkICy47iNzYtuGdRSOGqP9adlvKDpshn/M9NLrQQ+pgiylEQrKfMDnxBOtlfhft4TwF5uq8Jcr3PivayvwZ/c14htrQqgPemG/i1TReUPZfFTnYqKsJSxguWdT8I50oqX3OLyar8BXaz3B5x5/BM8/8Shq7qJ+halY8Joodl2xrA0r21rNEKaK2CvHFqPdLASaCHOCKstCqZG3CNYZv9eJ59sq8e1magtDF9Cx5wN8+t7b6D1xHCvdwO+1V+IP1tSgidqDpTmUIAk0WoKGINW5uMCEoDomvyBj3SSFY6hMx1SUcHvceHj7Fnzl2afQ1tS45OcrXA13JFVy9/bojm0IGnMCxh9AbXgANs2EnMsUadWPDFuRpTAbkoK+vtaL50NuRM+dxi9feQWvv/Ia3nt3F3r7+kx6q50OPBny4ukmPwIyK+51iADUj2S0BHUu3gHtkI2Ua+Iimi4eRpD1Usu3NT9hy9rV+PIzT2HtyhVmUtPdijtCDMrgbRvXm04buZjS6EQgGUFAfQ1k6TlBFUUVRmrmIkalx4EdNR7jvfrAvn3o6uxCWpv2MN4peeyJxxGNTsKRjONx3tcakK/De1RrKGsJGn40WkKpk3mBOUF10DHei6aeY6iLjfH9RReHq5cvw9c/9yzu27xx3reXW2y4I8Qg9Uv+7x6/fwecJAmVvTuXQnC8D/a4+hrmqAWUW5bFSg6U71qaEWt8Doz192FkoJ9RLTq4lfPXcydP4u3X38AvX3sdez/+BFWZOKpcLJJ7jRcuEQIbhUTy8qjTQhOCkEvDKVKg+RCaHKKmUPT0VN9Qj6+RFLQOotJ/bU/PdwPumIEk/3eaKbZmWatZcSlBCSQm4J/onbvWIJhZb6xMi9KksMHJCuRhHZI/v7TiWpJ6ucEYHR3FJ5/swYcffIgLXV3Ip9lS3RFpuEOYSggaadDnnexUzmXgCPejof846iYHjYmrmY3qKP83X/ycWTWpSUx3a7/CVNyxFCpzm+vr8eXPPsUvDlMA3qy0hl44onOcJl2G+htUsRYdORQQy+Uxki3AX1kFp9eL3JQ6r704Yox3nALhlv9/twcFCcYiN4/mBSoraQaxEiGYSUp3kBSpyTkiA2igplAfHoCztAaigtrBb7/4Ar701GdIEMF7ghSEO5pKr9eDR3buwMrWZqpmUq/zCEZHUUVyQJZawI20nqpYCz2+fT0w+iPJLE7Ec2hYthzL2tvhcrsoE4wjK50+5Xq8oakR69avR2fBhYEcNYq7ufIp7eo7iMWL/QgiwTtJCAJJwEENob7nKBppzooUcoyTr6ICv/O1L+PF5z5bJIV7qO/nmntX3m7ITvO4ivtfHjx1mvWl6God+QwSvkrktMWc7QZ66dXnoOc1H2CRCJfkIEfhb6/xY1NTHVLJhNkoWC71HR4vGkkKTzz+GBo3bcNPhzI4PCxyu8OCcjsgAtChUQYRw4IOPV4DMh+oKdT1HkGztNXSrMbqqmp88/PP4Ztf/LzZi+Fe0RTKsNHWvaMlpNdf7B/Af/nuD7Br36fGP6Q2IempX42xZTuQr6gRg5TungN0q2aiURsxviIXFCImHWQD44a+VJmcdmxvqMA3Wv1Y58xiuLsLA4NDZvuw5rY25Grq8cuxLN68GMFEXB1vxceWPJQXhhlJCDIbdL5YCEHIpeEa60Ft3wk0h/uLpMAKFKJ28OLTT+LXP/88mhvr7zlSEO44MQjJVAq79+7HX//gx7jY12+uxd0+dC+/D/GGdcVdiG4EC0UOJut4GAFg5dfuU/EJuBKTxY1sgk2MR2lYy2nDiqAXj9dXYIXXDretYDSJET52LJzGnqE4Uok72PE2XyjHXyQg805Dyne6/2A6FJdcCu7R4jyFUHys6PadDVB9bQgvPPUEvvrc02hrbjTD6fciFgUxKApDI6P48Suv4ydv/grxeNxsIjJc1YC+9p3IVbeYDsobwu0iB2kDyjIt+jL7HmortzB8sQm4o2PGK5WXxDBZVYf+tY+iEFp22azRrEaHDTVeJ3zUIrIMZyyVRzZNwZEgLSLZuWEoT3SYUQVpCSVi0LXFBMUtHYd/pBP1/SdRq01rFUeSgpwIffHJJ3g8bnZquhvXQMwVi4IYBG3meezMWbP3xL4jx6h95swWcT217Rhd9TDgCfAuCpYEvvjn+rhRclClKb+j3F9hKrwElwc1Am3uqj0p/dQMtKmr2aw2EYUvRYLQxJjSM3GPH6c2P4VC26aZpDY1+otMbm4YJn94lE0FMyRbStRiS5vKMBE23pcaeVSmJoukQOJua2rC16glPPf4I2iq1yYx96amUMaiIQZFIxqL452P9+B7//JzdPVqunABCacHHW3bkApSa5BJISEr7Sd5GSVJm60vQtdcfEb7BooklFpDANMgDYBCbn5jBbfHY/CwEmmHIQ81AHc6YQRfe1Q6Mmm4ed1tNrRVWNrXkX+p5WjrtyjNh+GGlZhYR0ILhGaP11KHqo0OEUHZXFDmLoraNAs0sUz+FAZPo2GsG75MgrWmuGNUe2uL6WR88qGdZuLdvWo+TMWiIQZBw3fDY2N46dU38bNfvYOJyKQhjKTLh4zDU9xzkQWZ00iFZI0x1x6E0iy0UW1WG5+aUYxpgqivLOwCWwFnJgNvKmpWdU6txJpYpJ2ONdHKZAkrknbXtlNb0Aapxfv1wtI+Afrkkeeh2ZtVwRqEK+twyleHZKABWX81ChpVuVETaLFDRCgSKE9X1vfF1KE4G6TJRQYR6juBxoleuFjOKnwXG4rVy5fj93/j69i5eROqKgP3ZEfjbFhUxCDIhDjf3YP/8v0f46MDB8yagjIuR3Sq4EtYtas2z2jDF7dlnUYMhLlCbcD8atR9XSjfyS8Khn80qaX4E3/hf+WOneFqeDGjcxKMiKCalaiF6ueK1avQ2NSMuoZ6DMCN/3QmgtGYQiiGfFfAaEWlTw03Gq2qmEuLG4xjJgnX2EU09h1HKDp6aeKStIId69fhv//2b2LTujXFbdnuRs3uJrHoiEHQKMWeg4fx1z/6Cc51dV0hYlpnoKM8SUgb5pZFeQauIp+6pMkqBYaj7b+dvODQXC9+plQ5SDS6LttT5kGlvwKtra1oaKjDiuXLEKytRW0wSOvEAzcrlDxTqaKNkTn+6PgwjvVESGhLQXCuAVWLUh4X92YoEfSSIARCjUByEp7hDizrP4HKVEyV3VQJn68CTz94P373m1/HirZWy3SYBYuSGIRoLIa33v8Q//jyz9HTP2AEVYzuDwQQbGwyKp+NNn4qnUau3KJNheq1KgefMcq/2KAEJ591u5ywub2oqKhA0OdBhdtl5hV4a0Pw+P2o9HkRqKqGj+c+3uvUwQqkpbZ2mgfSIqa3MBkKzYcjMfwvh4eRit7Aeo/FAlUFaWj6LPcdCEuFDASThgwcsVFUkhDahjvhUf8Ry0rlp52cX/zsk/jSM0+a7Qws02F2LFpiULTGwxH8+NXX8cNfvI54PGFG+2pYsFt37sTmLZvNzj+zkoLAVGVJHCp4qf9TIXHWNbvDydbCDp/HDTftTQm9hqgM6bAimXuoMUyT/6tCOTmWzuFPTo/i4wthRuAqcVssKBd9eVhRWkGaQmSu8yj9vGTA+EtL8Ib7UDNwBg2TQ2bSkkpci/a0zP+Fp5/Ekw/uNPuoWqRwdSxaYhBkLvQPDeO7P/1XvEHtQfMbWJqora/Hw488jC3btrJVv8ZqNyXtKlI9tbU3WgUPD7UGJ7UBo02Urk29by7QHPsTkTT+46EBDIwnF5dwTS1qkUHZVCgvc16KZCAo7tkUXNERBKghNIx2wV/yuMQCRIBa387NG/Glp5/Czq2bjWlokcK1cUfXSlwPEko/1fv2lhaEo5O4ODCINCtxktrD6NiYWVIQrAmabcfLrfxcj+kQP6rjM8NDJkiWn4YzS/eW5WW2Z6dCfReVpclL+ye0SOgOSpoR9hJEAiKAXGloUaMKZiVnWUNYojBaQgQVI12oHziJxvGL8GkBnoqOKmZzQz2ee/xR/PoXnsOOTRuM9zCLFK6PRU0MggoxQIZXAYejMXT19bMu55BMkBxGR5HPpFEbqoN3njYRNQTBypbN5UkURYLI0NbWUSYV3TNVlKa/18kKWet2oCORRb/WPiyUjT5VwHUuIhABmHkGPAwRkBR0LKV+g9mg9OVScEaGUNt/Ao3D51AdGzOjDiwR2Kn1bV27Br/xwufx+Scfx6plbaazeD7qyL2ARW1KTIU6GU+f78SPX30Tu/buR4LEoIhXkDS2bN+BR594DHV1daZfYD4L/3JQxSFLLQ8X1Dchj9eGLPRr6cbyZ4qCt3s4jj8/NYqBiXk0KWYrLiMk1AjKcwuKF0kG6uMofZ/lsSUJpU/9BqkYfCMdaBw6j6pEBE7NTdBvzP9QqBbPPfYwnn3kIaxbtcJonZaWcGNYMsQgiBzOdnbhn155A+9+sg+JVNIIpbYcb16+HM88+wxa+KlOxNvdMih8h3pDL72HrRRP1cmlUQ9l6lg6j+93h/HDc+OMPCvzrUJFNXW0YCr022LyRTHvYPo0fyKThD3ci4b+0whFx+DRLmYl1tP8ks1rVuPXPv8sHti6BXU0M+/l9Q63giVFDEKaraLI4e9/8jN8+OlB5KXiMwmSz1BLK556/nmsX7saXu/8mBY3Cg1jlpEv2HB2Mo1/JDEc7IvOj+CqtJZWkd06lF71G0RHUD14Fq1jF+HhdzNLVb+znEPV1Xj20YfxpWefMrMZRdB3oPjvGiw5YhDk0KWj+6JZjfnB/gMYj0yayqNls7X1DXj4sUewmS1GVVXVHZ+8ksoV8PFYymgNPSNxMyHLwhwhDUHrUxJh+Ic60DTSCX86XhqCJGjWqf9pw6qV+LXPPYMHtm01M1KtCUu3jiVJDIJWY/YODOJnv3wbr+/6ECPj4+QGJcWGQHUVtm7fjq3370BDQyNbjzs33VUximcLeHcgip+en8BgOG2RwzXBvFE5ZlNwxMPwTvSjZrQLtbHidGaVoqa9yy3g8pYWPPPwA/jsww+aPVE9d7Cc7zYsWWIQNLw4Fg7jtXd24dX3PkBnTy/y+ZwZMnT7vGhdvQbbd+zAWrYomjF5p3YjVgZH0zn8oncSP+8MIxxVR1nxNwtlMEM0pJpLwRUbgy88iIC8K5EQtLitnGHqP1re3ITtG9fj+SceM9qChiAtLWF+saSJQVD0I5OT+PjAYbz8y3dx/OxZpFMp2vdsV5xO1Dc2YuPmTVi3cSOaGhvu2JCVMnk8lcXLF8J4/UIE8QTVYYscVIAkBA2lJuCeHIE/OozKiT4ENfRYmmOhbBIhtDTUY8v6tfjsQzuxY9NGsxpSKyQtzD+WPDEISkIimcTxM+fw2q73SRKHaFqEzUQljRC4vF60LG/Hxk0bsHHjBlRWVZke7IWG4jmSzODVnghe6Z5ELHavkgMTrf4DanxmoZPIIEINITKEQCJidpTW78oarUuRjwTt/vTofduwg+XXUBcyu5lZZsPtw11BDGVoOFP9Drv27Mfr739E06IHhWzWVDAbVU1tFrKcqueW7duwfMUKM2NyoVVQZfcENYfdQ3F8/9w4oiKHe6XPQVVN6zFoLthj46gID6B6cggVyTB8qXhRQyiWlpm1qJ2k76PJoI2JtpMQ5JjVR43PmpNw+3FXEYOgfgc5eDl86oxZnSk3cRORiBFIs0LT4UQNW5y1a9dg07ataGxqujSleqGgDE9kc9g9GMePz4cxoKnTdzM5SDvIZ8jccdjDQ6iN9JIQRuFJx+DWqIPRINSlaIPd6UCopgYPbd2Eh7dvx/qV7WisD8FHrc/qR1g43HXEIChJaWoPgyOjeH/fp3jpzV+hu7ef9TNfmmdgg8vjRlUwiPUbNmArW6T6hoYFn/uQyObx6XgKP74QxbmBCFntLioKQwbSDtLGz2Jgogeh8T74Y2G4SRLGIxYJQWUlUlYfQl2w2mwD9xke7a3NRsOTyWBpCAuPu5IYylDS4okEzndfxL+89Q7e+miP2Wla6x8k/0q4plBXVldjx307sJ1HdckBy/Sl2rcLaWoKZyJp/FNnGJ/2R2G22yNxLUmIDDTHQL4w5SSXpkJwrBu10VFUyHwwVa1Y3XingcPpxLLGRjz/+CN4+pGH0NLUYKYwW9rBncVdTQyCkiefDRGaFwdPnMTPfvkOjnd0Ih6LIaNVhqqoZAl5hZJNu3bzJmzYsN4szPJXBuAu2bS3U5PIkhz6knm80jeJ3d0RRKJpadaLG+UIGiKgOZBO8ojBnphA5Xgv6iKD8MrXIslCLvPMrTyUjxXUzKqqq7CqrRWPU1u7f+sWNNUzv62Vj4sGdz0xlKFkajr18OiY6XfQQqwzXRcwPhE2KyfzFE7Jvrw8ywFM27I2tK9YgZaWFtMnoZEMuXG7XSShLoZIJo9doym82zuJrpEYUvOxvmK+YKoJD2kFIoJMAo5MEs5UDI7YGAIkgmqaDN6M+gyokfF+5VLxKW1F6KJpUIlG5uWm1Svx2M77sLp9OaorK80ENIsQFhfuGWIoQ8lNJlMYGBnBgWMnsJckcfZCt3EIo34Jkx0UfA2TSYvQvoUtJInWZctQ19iEYG0QVX4/XCIJqrsiifmq1CqIZK6oPbzaE8b+gQSGJ5NSKUycFgyXSECH+gqy0GpGVzoBT3ISjlQUnvgY/CQCjSa4aJrZtbmb7iXKxKmZiFrDUBcKYVlTI7avX4fNa1ejqaHOuNHTAqfbqYlZuHncc8RQhrxDJVNpahCjOHrmLA6cOIWz5y+Y2ZMptnrqqJQW4VC9peCrktfU1SFYV4/mUA2qamoRqKlBTW2N8RCkeREa9ShrFLdS4dUHOUnt4ePxFPb3R3B0OIHJJLUHqRXzhpLgm1N9lr6rU5AEILPAnaHQpxKGEByJCEkgikAyDCfvMSaCIY5iGJqGpH4BaVX1NdVoa27G8pZmrKNWIM1A/jQCFRVwueROz+o/WOy4Z4mhDBFEKp3BeCSMrou9OHbmHM7SxDh1vhN9I6OwURgLpiUUSWhPC5txDuur8MNH88LPFrGqOmh8ANSRJKppO2v6tTE7KAAiiiJZ8FNkof9zIA0VSoYMMZxI46PRNPaOJHCG5kU6rRZ8LkUmoS19mg8+VxbkshaQ1TAphZwC76Vp4EzHqRHIROA5D09Wnym4c1lDBMU9N/gs42+c4fKfehBEmssbG7BqeZshhPaWJrOJi8yGAPNJZFAmTAtLA/c8MZShKdSaAyGns4PUIs6TJE53duEkieIMTY3JWNGHoO6RcJW1Am0446C2YDxM8/B4PfB6fTQ3KlBJraKKpkiA5OGngAS8bjhJGE6Xu+ieXoJiBEx8UfLvMA2ipDgJojdZ9CX50WAU50kQGfU/lAXfFKEEX98Jfde8AbX+Wbl+z8JJE0BzBjyZGIU/Boc8KVPgbbzHyetmCJHXnHKgy4BMhyHDUZA2/hERSHvKkeA0tNhYEzRDiivaimTQ1liPpvoQgkyrz+M1W7xZZLB0YRHDNCg31CpmMllE43EMkSQu9PbhDEnixNnzONPdjRjJQ9v1CxrxUNU3+1ToeR4SBje1BZeb5gVJoEBBkj3tdrrg9gdM/0SVyw6Ht0IuqMyzFWxVqyt8pnU1hDENEtU0A++NZ7B/JI7T4wkkaW64Cimq+hRsqv3aNcsIMQXcp47BkuAb0sml4TAmAFt/DdeWYqv7DUokYDKA7zcLzvgp4dZ6BBHdiuYmrFu1EiuWtZlRBDlCUYeiXyYC01Z2qW+RwdKHRQzXgLJGh0Yt5EouEo1haGwcZ2hmnDzbgeMd59E7MmaWgGuLO91r5kiUnjemAyFtpCzsZn4Ez5082J6qKTaCZIiFX+VEVrfPBt3n4v3av0JLuXMkMAdvlpCXDwNe07buJUnnoXcVBd+kSZd1zkOai8PuoNmSZdyKpCSXdW0NdVi/op3mwTISQasxCzS/QP0EmoWofTaM1kNYRHD3wSKGG4Q0hAxbaHVcGo2CxHBOfRIkCY1u9IyMGiLR1nrMXHOuZ9SRqayeKkM6nSpUZcG9FnT/bGJoyGcK9M1oCmz5TT8Hv8tS0XCsOv9EIyKpUKUfbU2NaAnVml22lre2mEVK1YGAmeilYUaZDgrHIoB7BxYx3AKUdeq81PwIubVP8VOb5PQNDGBgeMSYIP38lIepSCJpFnmp4zBHmz+dJnlI9ee/LFtreaQuEoh6Fa6EBFK7KJlzHnYjpOrMlEdqaSAMln8k8LpP9r28WUmoq7XTliZq0awJBYNm6XJdTQ2C1VWoUX+A12MmFskUkMlQ1gREJhbuXVjEMI8wRMFD7u3lgl7aQlau7lMpxEkM0XgMUZoj2u5fBBJPJhCejCISi5l7pIWkpW1MKRKRggTeR/XeaAsSeG2MQyF2la5rVKBaIyQUcL/Xhwp++nxe0yFaoe8l1/pq9Z3afask+GUtQIcFC1NhEYMFCxZmwNIXLViwMAMWMViwYGEGLGKwYMHCNAD/Pw+mI272W2cAAAAAAElFTkSuQmCC;" vertex="1" parent="PJXzIF6TXpeEWLcsnp0K-24">
          <mxGeometry width="80.86" height="50" as="geometry" />
        </mxCell>
        <mxCell id="PJXzIF6TXpeEWLcsnp0K-6" value="" style="shape=image;verticalLabelPosition=bottom;labelBackgroundColor=default;verticalAlign=top;aspect=fixed;imageAspect=0;image=https://d1.awsstatic.com/acs/characters/Logos/Docker-Logo_Horizontel_279x131.b8a5c41e56b77706656d61080f6a0217a3ba356d.png;" vertex="1" parent="PJXzIF6TXpeEWLcsnp0K-14">
          <mxGeometry x="110" y="230" width="166.13" height="78" as="geometry" />
        </mxCell>
        <mxCell id="PJXzIF6TXpeEWLcsnp0K-18" value="&lt;font style=&quot;font-size: 25px;&quot;&gt;My PC&lt;/font&gt;" style="rounded=0;whiteSpace=wrap;html=1;" vertex="1" parent="PJXzIF6TXpeEWLcsnp0K-14">
          <mxGeometry x="60" y="320" width="280" height="60" as="geometry" />
        </mxCell>
        <mxCell id="PJXzIF6TXpeEWLcsnp0K-19" value="&lt;font style=&quot;font-size: 19px;&quot;&gt;hello-world.war&lt;/font&gt;" style="text;html=1;align=center;verticalAlign=middle;resizable=0;points=[];autosize=1;strokeColor=none;fillColor=none;" vertex="1" parent="PJXzIF6TXpeEWLcsnp0K-14">
          <mxGeometry x="-40" y="20" width="150" height="40" as="geometry" />
        </mxCell>
        <mxCell id="PJXzIF6TXpeEWLcsnp0K-21" value="" style="shape=image;verticalLabelPosition=bottom;labelBackgroundColor=default;verticalAlign=top;aspect=fixed;imageAspect=0;image=https://ko.wizcase.com/wp-content/uploads/2022/03/GitHub-Logo.png;" vertex="1" parent="1">
          <mxGeometry x="60" y="40" width="86.67" height="48.75" as="geometry" />
        </mxCell>
        <mxCell id="PJXzIF6TXpeEWLcsnp0K-23" value="" style="shape=image;verticalLabelPosition=bottom;labelBackgroundColor=default;verticalAlign=top;aspect=fixed;imageAspect=0;image=data:image/png,iVBORw0KGgoAAAANSUhEUgAAAQYAAACiCAYAAACjz2NwAAAAAXNSR0IArs4c6QAAAARnQU1BAACxjwv8YQUAAAAJcEhZcwAAFiUAABYlAUlSJPAAAFDOSURBVHhe7b0HcFzZeS74de5GN4AGGhkgwZzTDCfPaEaTFEYaBVvys8rycyjXq91X5a3det6q562t8tuqra3a3Vfr9Oz3HNaWVsnySGNZmixNICcyDHMmQYAgcu5G57jfd7qbBAGQBEkQBMj7kRd9+/a95570f+f/T/iPrUDAggULFqbAXvq0YMGChUuwiMGCBQszYBGDBQsWZsAiBgsWLMyARQwWLFiYAYsYLFiwMAPWcOVdivDkJP78H7+Htz74GMlUqnT19iGfz8PlduOP/+D38IWnn4TX6yn9YmEpwtIYLFiwMAMWMdxDkGqYt9mRm6cjD1sxYAt3HSxT4i7FdFNChDAZrEc82MjzeRBo1hp7Lo3qsX74YmEUcjnLlLiLYBHDXYoriCGZRNpTge7NjyG89QmWeklRdDiAbI4necDp5gfP8zzXdaNe8Lud5+KRbLZ4buezOZ6LXBJRtO5/Ew0XjgOZjEUMdxEsU+IeQcHmQMZfDVTWGIFGkoc/CHs8DOdwD1Bdx5tIChNDJAkKtQR/nOciCZKKY6SX5JAGKqqAyCiJIMVnQsh7/eQQy6S422ARw70Cya6EPRlH8NxBBDoOA7EJVJ7Zj9a9rwEkCPeFk2g89B4wfBHu/g6EDr8D91A3MDaAZfvfgPPiKTjCQwgd2YXg+SMkBxKFhbsSFjHca6B54Ka24ErGjEngikXgnxw353Ze88UjQDoFRyqJAH9zSvipKQSiY3ClErDxPnd8kmHwecsKvWthEcO9Dsn2VEtghlVQvGDjfWUasOjg7odFDBYsWJgBixgsWLAwAxYxWLBgYQYsYrBgwcIMWMRgwYKFGbCIwYIFCzNgEYMFCxZmwCIGCxYszIBFDBYsWJgBixgsWLAwAxYxWLBgYQYsYrAw6+IH2ywrI8rLKMyntWDiroZFDPcg8nY7D4c5L1DKM3K+IirQdX5qdXaBVSPHk4K+8Mg4nFOesc2PFygLixYWMVwFcmyVzWaRTmeW5JHJZI3n5hnw+DDZvBrxphWAL4DosnXoX/cA4PUjG2rD6MotQLAe6domjLVvRrqyFgjUoG/N/cjUtSDnr0a4fRMm9TzJwsLdCcu12yxQlsTiCXRd7MHw6BgK+SWWRWzMU+k0fv7Oezh88jTSmQxS3gA6H3gesfufvexghcSA+GTxe01D0bNTJsnrVVQrsvweK94jAoiOG1KRNydEJwCnC8hm0PL+y2g4+ylsDONed+2Wy+XM4XQ6YTda2NKFRQyzIM8s6enrx/d//ip2f3oQNra8VLBLvy4NqFBjsRgSqZQhurTLg5629RhvW3e5pZc5UC5+c64T/imbCfpt6rnyQF9LzzhTCbSdP4Ta4YsoULu6l4lBhNA7OIjO7h60t7WipbEBbhfJc4nCIoZZIBW8s/si/tuPXsLbn+ylxrAUHaXb2GpdjrX8MubsDtO/UJTuW4dCcVCzsOdz9/SGMxKhweER/PDnr+GVDz7C/Rs34N9+5QWsX7USHo+7dNfSgtXHcBUU2bKoJ9jZako1tOng+bz9U7ilsM2hsOftKFbYMjTK4Mpl4E4neSTm5XDxsMtj9D0M5fFkNIY33/8QL//qXYyNjGLXnn2mUdl76IgxSZdi22tpDLNArd95agx/86Of4J1P9qj0kaP6Ha4MISvbukQbV0AMMltOXuO6k+p35eQY3LTVFX6iqhZp2fSS6nmAjS25f2yQQpxEnm1A3OfnESiONJgbeJTjVn7l9Lhe7TrBygN/LIwKmhQFvute1BgSiSTeo1b5p9/9AUbHxnhFFFyA0+HA2vbl+NaLL+CxnfchWFW5pPodLGKYBbMRwzgF6uLjX0O2ru3yvgran0F7L+hThU4700iQg+Shzjtlrex5uWVnmGZfBl3TOQnGHh1D08e/QPNoHyZJOj2PfRnxNfcpBgyT97ooXBRq893OcPScwtd17fOQz1zuL9C7DWkxXiQaE59MCs2v/B1ae84g6alAx4aHkFj/YDG+QjnOip9L+0rwU+kpDUuac7mPvxQmz02aS+ln3OoPv4eW7pOw8/d7jRjS6TQOHDuJP/vO/8f60mP6pgz4IXJQHrU3N+Frzz+L5z/zKOpDIUMYSwGlGmLhetCYvtmUhULkoyA4xgZgyyTh6euAe6zfkIV3oAOugU4jR7aJIXh7zxrhdIVH4e05bbwwO6gh+LpPGM/L6uEvlOcGUEgLbp8R1MC5I3AMXDCC6O46Dn/HUSBJ1b2/E57OY7CxhXYOXkDg+CdAPAZ7ZAK+0/thHx+CfXIc3nOH4JgYMaMI2RJxqMrmRRxMh2ukB87RXiP4rqEuVHQxfFZqe2QUnt4zZs8Je5ThkFAUZ41U+C8chz08BFsuDXffOaZ5wJBGQYfy5h5DjiTa0z+IH77yGs5duGi+51iGkUAtwtV1pj9HGlXPIO/5xat46dU30d3bh4wIfQnAIoYbgVqEVBw1p/fB3X/eCGF1x0EEJEzxMGo6DqGyU/stJGHn73Vn9gMigsEuVFNwHeFhuIe70XjyYyBCtbPcwpSh7/EIao7uhlf7NsQnUXn8Q9Qd+8Bcr6BwVh37EI7RAbhJEHX732L44/zej9qDb8PVe46C3o1qPu/mO4sazDQw/gESm49Cr+FJP4mngWHqupPP1Jz5FJhgPEd6Uc34u8aHzTsaT3wEG8O2RyfMdb/SLC3iHkU8kcD7+z/FoVNnjIapxiDir0HP5ifRs/15jDSuQoaaYz5XwMj4BF7+5Tv4J5LDhZ5eMz9mscMihhsFhddhVHpTF+DM05407TG18VweLv4mV+uy771Sxalh2Hm4eG7Xs7zHK1NE6nvpuRngvbYchY73uyjcDoXDt9l5u5PP2vQs36PwjDnAcJy8x6HvhF3xK8VxBti6S4dw6l6d6x2le/WcR3ErhW3CMSqxHW6+k7Ey73bxnuJv9yY0NHmhpw+79h1AIp4wncZppxeDK7Yjse5hJNc9hKEdn8NQ63pkZKIxLyejUbz1wUd4+c23qWkMmDAWMyxiuElc0YFX/DMLplwv3V8U3avdX8bU33Ve+j7tsWJY06FpzObj2ijH/ypQ2CYcwXxeL8B7B/FEEp8cPGxMA3W6mmtV9Yivf9jMEtUs0szyjRjZ+UWSw0ZkSQ7KvSjJ4Vcffoyf/epdDI6MFjWNRQqLGCxYuAGoL2FgeBifnjiFiclJcy3rcKN33YMo1LaUNDjC5UG2aRWGHvoS+pZvNaNO0hzGw2G8uftDvP7e+zyP8NLs9H6nYRGDBQs3APUPdFy4iL7BIVp8bPGpCkxUVCFFzcCMRk0FySBftxzDD38V/U1rzeQyEcHg6CheeXeX0ToSSY06LT5YxGDBwhyhtl2CfOTsOQxRuDWxNGdzYLB9S3GtSVlbmApdq2nG0BPfxEhdu1mhKrOiZ2AIv3hnF06c7TBrWRYbLGKwYGGOUJ/A0MgYLvYPIJXOkCgKSDhdSK7YStPBW7prFpAJCqEW9O/8IsaDTaZ/R52P+0+cxGu7PsDA0PCi62+wiMGChTlCpoPWRIyOjRttQaM10co6oLbVCPs1QU0h27oOg5s/g2iglo/azMKz3Xv34+ODh8zw52KCRQwWLMwRuXwOQ2NjmAiHjTkgZzYT9e2Ax399YhA8PmoX2zG4+n6k3BUmjPFIBK/v+hAdF3oW1RCmRQwWLMwB6l+Q+TBEbWEiGjPTn7Mkg3TdstJU9DmAGkahsgax1Tsx2qQJUMWRitOdXXj9vd2ITEZLN955WMRgwcJcQAGOxeNmFqOZ1qxhRmkJNY2UohsQI5kUoRaMrbqPJkWIF0guJJy39+zD0dNnkVkkHZEWMViwMAdomFErKTVJSeda2l5weVDwVc7NjJgKlxeZto2ItqxFzkx+KmCCJsVr1BrC1BoWw9wGixgsWJgDJKzRRLw4qSlv1k5iojKE/LVGI64GkUogiLEVW03npWbR5rI57D1+Emc7LyyKtRQWMdyDuMH2zQJh5jBQY0jycDgoNjYHUv4qFJylZe83CocT2abViNc2I8+wNMqRpKny7id7SEB33rmLRQzzjlsVOzlhu3qluPov0997nXio4l2z8un30qkFI6jJTBqxZNKc55m9MZePrf0t+FfwVGBo2RbEZY4Qmuh0+Mw59A9qXsOdzXyLGK4Cm/6x8GeIFy/Kx0FBPcw6tzvMOnz1OGecrtJvFG19l1MOnud5rvuMysjf0/LrwGtXBcMxfhrM/Qy/5EchZ3ea1Xpmai3D0W/8wYSVc+iZYpzyOr9q+AqH9xhioFbM9yjeCl/Pa6mwznWfftM1nRfTwnN+lxcr+Ru415DN5Iz37cut+YzacWNQGbasQSTYaMpLvkVHx8dx9JQ8e5c8ed8hXKN2Lm5oplgylUKMqp0mh8zrwVbBVAAzG21a4bs8mFi+AdkQVUAyfaRlNaKhVjNGPa5C5iGHLvlQC0ba1gK8J1HTiIm2dcj6g0jWNmFwxWagIsDAZqlYHj9tzy1INa0E3F5M8l1j2uuhguE0LkekfTNylbXINK/A+NqdJpxcTQMm1uxAmmppNliPSYafDWqK7pTwy6cklmhDO+KN7YDXh2hTO4YVvtODDOM5vmw9QPs3zXDCPM/6q81qwcH2TWbab84bYFo2IFrfxvDljKQUrnkBiTKXQzw1/2USM59JY3/fKTXb9CxMffetRkMEzPyNNK82ZKsOzWgsjoOnzpi03kksSdduIgUtW33v00MYGhkhu80iYLeEAiKTkzh04hQ6L/aY8h+jcPQ8+iIJgSQgXwlSIdWayn+BClgtqM4VF9mdWo6rQy2w8Z+gc41b8xbdRwG1xyfR9Mkv0DzSi8mqEHoefgHxlVuLDlAUXoWf+upk8T0kCVDgTFjeCpi9IDIpQ0gmXHlakss3xUX3mTjk0fz6P6Cl9yySvK9jw8NIikxMkfPQc0qL1FbGpxhnhi/tQPeU46w0yeOUzqU1mPTzM51E09HdaLx4Gg4Sgp3PPbFzB9qXtcIhV3TzCAmltKinGP7m1SvhWmDX7Bqi3PXJXvz5d76PgeERZFnrzqzeifgT3zREetNQHnefwPq3v4NAIgJ+w9aNG/An//7fYSXz8Vp+ImcTXZHLfGBJEoNapeOnz+I/f/cHOHbmrHFgMl8ZcgnKlrIAEUkK+HDramSoAczHmxSqNmmp7+tAIBlFmoIfppaQYksvc8AI+HSYh4qnBorfNe6zUZhrOo/DH5ugiePACDWKeE3TvOWVXeEPXURldFwVqXhRhGGCn593lKHlzuro+59/97fw9eeeRoWPhLiAEDF8sO9T/CXrXM/AIDJMnyGGx2+RGJRv4WG0vfE3aBi9aIR99fJl+B9/57fw0I5thgB1zbiOYxz0qf6HLBuXdKaoPSkIU2X4z+12kpSLHs316WC5y8/kjTqiXZrEwAw6fuYc/pTsfYT22KUqOM8pMfJTEiIFXe4nmDcw613UAIxQMVz1ReiYL6gTU3s+lIU2x7CzPOYrCQrXwfgbT1ICP81Z6eu8oBRXCYP8S/7R730bX//cc/BXLCwxZLM57Dt8xBDD6a4LrAcOXKDJN/7kt1Co1ESlW0Aihqp3v4fVnQephxTQXF+Hb3/ly3j+M4+ZehGNxzE+MYHu3n7TBzEZT5hhU83ATKYzhiycJSII+Lyo9FeYI1RdjZamRjTV1yNYXYkKr9dsguPkIa9T18KSJoY/IzEcPX3GXFMi5lOoylCll4ApfKmy+jZfUEi2wmXB1Uax8xm+ILdyJkQJrYjHtBzz8w7lisI3xGDCL5LbfMKQG8MuE8N/kMZwB4hB6xiOUUv96+/9CPuPnzTX+hvbMfj8HyAfbDTfbxo0Ce17XsG2w7+EE3kEKirw8LYtWEXN4VRXN3ppumQ0IkKCSKdSzBMb0pQBHbkcNSnmj7qTpAlKO3BRs9KntIYK5pOXhFBTWYkta1Zi05rVWL2ynaQRhI/XnU7eNwtJ3DXEkKJ9fWblNuS0L8N89KmywvuiY2jpP0/bj6o+wz+/+VGkquv44/wIljMWxqpTe+Gjqq/w+xpXIqwptrcyBDYFtmwKq84fRmV80oyW9LWtw/jy9RSw+bDPWW2ScbScP4K6kV5DbsN1rehrXsXsnx/7Xx6pa0Z70DZQdGyrkZg7RQzq1+qgkP7tP72Ed/fuR4HxSVYEcObF/wnZhvbSXTcJ9Tmd/gQ7dv8IDppnEmjTslO4tT7D+GtQlWMe62OupqBE2wg377eTsF0uJ3zUKJpqa7Bj4wY8+dADWLdqJSoDfkMmU3HXEMOYvxqdT38LqKJaV+4oUweeztURpoSnEkwxSUMdbWUPxxo61D3qBNIsNu2ZoILi805WyJZD76JufAARfxUufOXfI9O6uti5x0Izz2rfB71HQ35mDwhCnYPpFMPhO9RpqLAZ50vnptOwAvaJITS/+vdo6u9EmPHv2fE0kur9N/s2KJ6eUpwZpuJmOgr5vN5bDtPD6ypChak4iBR1n9LPdNXvegnLBi8gzfeZTW13Pm8qioHCV5z1Po2lKx+UL25eN2HyXHml+1Px4ntNmkv5mIyhefdP0HiagsLgjmx8BIWtT/CM9+t5xUfxNJ2time+GE/lg6BzU04MS+8SYU0tJ4ZadWY/lh/ZDRfvvaPEwPT09g/g7/75p3h91wfMsiyyzL+TX/5D1on1l/P0ZkDSwbl92P7O9+HMsjwUFrNPYl0OVflb1ljNMHWBvyjfTD5dhpwQF+lAZmTREbHMSaG470VxGF56ZG0wiM8+eB+ee+wRrFnRbjbF0Ya8Ih7HfyLMU0sIYm/tQv3JoSPGk44Q8/gQXr0D9mQUXlZUeTOmkgVnx+HisCMruPf4RyhMjqPg88Pecxb2sQEz19198TSPU8hJGxjthYutYF73MEMDFFq/0RjcmFi1HXlWTteBt1GgXWijkLgYptzI5ylM7iMfoDB0EYX6ZbCdPQjX2QPIewNw9nXAceZTFCqqYBu+CN+R95GlXWqjgFTyeoDPpyjgGvrMen1wyYU736mVeI7Te+Ea7TdDlI6+87D3d5g424cuwH3+EONcDxs1DzcFSDPobBRaj/aJUCWi9uS/cBLV0QkzJ3+8bS0ytY1wKn9GelAgGblOfIKKU/uQ5m823uvieZ55aRsfhPPknqJ2QfKo2PsGsiQcpdl5aBds8Yh5vpL5GBjpM2UwqCFQag0Kx8n45UlG7oFOeLqZt4EgCpERuE/vQ44kq/0q3MwfOVPV4ew8Yj61u7ZH7vKpRRVqGuBjGdWQ2FThJQiP7diGjatX3ZENYyVYZ6k1HGWjpLhKaIdqmpFvXGHy+6YhgR3tQ3PXIbMXqCCTTPNX0m4f0t5KRCuqMRxahpGmVehZtsUMHw+t3M5jG4bat/LYgqHlmzHYug5DLeswXNuCSCBETdqHAstM81zECDQmi2RD+UjRLDnXfRF7jhw1ruqkNQT8fuatcz507kUEZrCTanN17xl4WbERDaOZguSZJHmwcodYQYP950xnTyUFtJaVF4lJ+HlezQpuS8VgD49imfZciEWKBVaGIWESDFuz1nMH4eYzDgp0TdcxBLTJDMNs6j6Bip7T5h5tPNOmPSai46giWTRRpXeFh+FkvFo7DpjrJrzpoDbSwjgHGL7iHBzsQojmDBi3KqrVIWoxDgplgOp7e9cJxjMMV2wcrXyvKzxi0tp48Qx8E0w/1d0ZYJg1DK9S+04ozL6zaD2zzxCRZ7AbrYyzbWIYnrF+NHccgpdx1r4SK87uJ0H1wUGBres6gloS5qz7SpA8vCSypkH+TpKu4HmQcVOctZfG6ou0z5nnTpZNLclYv2tb/UaSp94pbaS69yyqlWZpGosEakW9Hg+a60K019loqLVmpXCzTGbNh5sB60OG5B7zBzFa344eCv65LU/h1MNfRednv42Rx34dkfu+gMK6R4CV9wEtG4BGarCNNN90NPG8jRrn8q0orH8M8fs+h6HHv4GOJ34Dp+//IrrWPIihpjUIV9UVJ80R0r6HR8fx+u4P8Wff/SF+/OobOH2+8y4jBqLAzJX9Z7QECrY9T+WrJOBGkSqpqNraXqqW7jHPqEUSyPyGUY2aZs5mQHs4UOHlfQpf+0WU31XcP0Lnal3K4es+7fmg0HTNOBEtvmVWaN8Kp5414fOcz+rcwbSoONWjfOlduo+/63510hXbMUJxv8orpE0p/SZu2fK+FXyHSYcuK3/4bsazmHd6t+5TnPR8MYyrQb8p3xWWeV4Epfv5vEmXgjRQHHnwHoVv7jXvViquEvk7CHXUtTbWozFEzVJlwLgGx6gtkVQV71sCW/Xh+hXoJRlc2PI0uh/4MsZIAmmRQPMaQJ6iqDlAu5XJvJMGYMywaYeuSehlJlJjA7VU+ZwsUJuIbn0GfQ9+BZ1bn0fvih0YrW0qzcIVB2fNtow/+MXr+OjAobuPGEwqp2LK12LRXb4wsyj5myGD8nEtzBIOL009v24Qt4ypL5gSnzmnoQRzfwnmtPR96jlRTtvMfJuGKcEZXPF9enjTby7jatfvHDQc2NzQgHpqDeU8qKJ5hOFukl6pYblZBBvRu/05jOz4AhKrdwJyRU8zVDNSjcBP60uYO5iPelZEIqKoqkeeZsfofZ9Hz5bPYoSaicwWEbEWh9VWBbByWdvdSAwWLNweyJyoranG8uYm+L3FDlRvNo3ARe1FmjLfbxo+tuzUGEAzwnTwmj6L20COagSkVVD7yFc1mNEwQR2W6nh87L7t2Lx2jUUMFizMFSIGjf1vWbsaTfV15rtMyVAPiWF0gNJ1XV1qJmRaaWRI/SnXMF/nHSQ0DzWd+uELRTOR721vbsTjO+9DbbDaIgYLFm4E6rlft3olVlHddpY68KqjYbjPHSwK+I1ARKIhW617udU+ihsBycg+3oe6c/vgT0aNWeR0u/GZBx/AJpKeRnwsYrBg4Qag0YhQMIidmzeistJvOplduQxaLhw2Q443JODqkDUdswtICnpXfAKBU++jbrzffFeH/KbVq/AozYhgZWVREyrdbsGChTnC63Hj/q2b0d7SCs1SlPpfFR1F9ckPKHThuQm6OitT1BYWckhWRBSbgOfUR1jRc9aMrokE6mqCePaxh7FhyqpVixgsWLhBSGtQH8MLTz6KYFVVSWvIoqn3DNyaXKaZoVcFSUOkoJmxmmm6UNqC+jKi43Cf2YeV5/YzvmnwCrw+Lz7z0AN44oGdV6xYtYjBgoWbgDohH6Mw3U+Twu5wUr4L8FFrqD/5EVx954pCPwMiBXU2LnC/AknLFhmG/9werOjYC386bvoV3C5qPps24otPPo7G+lBp0lYRFjFYsHATkApeU12Frz33NJY1NZjp92aEYqQbdSd2w6mZm+pYnIqFJgW9g3Gwj/ag6vTHaDv3qXEGozfLZNi+YS1+7flnaUKsmrGIyiIGCxZuAlqvo+nEVQE/mkK1cJTWSrioKdT1nELw6LuwD/dc7kOQfb9gpMDw1akZj8DdcxJ1x3ejpesw/IlJ85vmK2xbvw6/+eILeHD7Vmo/HkN0U2ERgwULNwD5ZZBfhAs9fXh91/v4h5/+K8739F7yh6A5SXKim3e6zWpQXuRTElQSg1aQ3lZSYNimUzMB2/AFBE5+gLZj76Kp7zR8qZi5w8F4PUwy+J1fexEP8VOrVKeTgmARgwUL14H6D+QTITw5iTPnu/DyG7/Cf/6H7+Jvf/wyPth/AGMTYaNBaCp6zF+Dvo2PIbzjORRCzZQwipgxIZIMiJ+3CyVC0JCp58T7aPn0FSw/tw/BiQE4tQyf8Pp8eO6xh/H73/w6dm7dck33eHchMUxj5ClftZhp6oUrebL0mxjdsPrl+2bA/FT6nR+Xwpl2Xr6l+Fn8cvmd5R+vg+m3XfG9/EWfxXOFX174NGdMbcVKzxpfUleEo2tFXE7DVTD91Vd8nxre1PCn42rXFwYiA5kK8trcPzSMj0gA8t70J3/5X6kl/Az7Dx/D8Mgo5TFn7s24vOhvXoOOR76GiR3PI1fXVlzMJFJIUmDnawXmJTB/RAYZEo6GSIc6UXn0V1j+8UtYc/ojNIz1wpeO8x7low31tbX47a98CX/wG79mpjxrpei1cPcRg82BggpEzizI1nJqcclPo83OfBJra++F0r4M0gHVqyzVT1Wevxd0TQU6VWCmIOuwQcVcYPaZPRakMvIZfWbNajW76eE1a+D5mXfYkZF6yfDlSclWmjE3E3wvn83SBizvSZEz5yom7fNgR0rv4Tepq2mFoxaJaVa4ef4mn4HGRZzibirFNChMu9JeXJiTd7nMXhVG5WWY2kdCqzfzSht/N3nHa2mnx7xDuLYLN77bybSW4q/PvMJXPHmYMBQmD0MNiifDUnzMHhbmNzkkuY2t6yxQPGQmJJMphCOTxj/B/qPH8d2XXsZ//D//H/zxn/4VfvrW2+joumA8iOdyWVN1lJfhqgacePhr6H/md5FZ+xAK1BpMeueLFExZMiwRgUY7kjQLJseAwfNwHd+F+t0/xEYea059jAZqCN50wqz8VF56vB5s27AW/8O//Rb+zZe+gBVtrXPysL1gjlqU8fN1yPnl0OgY9hw+eslRS1xeluVIxedHzOtHWowdCGLS7UO2psksTpn0eJEI8XptI9JuDxLV9QB/S/LZmM7rWlHwVCBcUWnUQHsmjcqyoxbeM7HuAeSr6zDhrkCuZTXyDCfOd6Xk2itYj4gvgHTDcqBhGXKs3BN1LUDTSiR9lZgMNiDfssrsRTGudzWvYrnZLjtqYfgR/p5lmBEKYUpxDjYiSWFN1DahUNts4pmorDVx0/3hyhAKje3IM40RxjvL92UrqhFlnDLa94Gf/gsnio5aSFjjrWuQaVmDBJ9NhRg33p+gQE4w/gXtIcF7wjUNKDBuWX8VIpU1yDYxbQxzlHmZ5/V8TSOifD6udBpHLacvO2rRtaYV5l1RPltgGlKMQ7QqhLziw1ZqzMu8rW81+1NEKwLIMM9RGTRxNq75mb4YiSSh+DGv5dshWHLUoslEWuSzftUK04E2W9243qE5B9onUvuGmP0qYgmM0xQQEWg7ejl8ffWd9/D//uRneOnNt3HgxCmMjI8jzfulQanMzMY8rANhpu/8+kcx/Pg3kF+2oegFi+Ulfi+SAltzah0zoLTEJ2GPT9DEiBvnOjMPXk9FYU9MwhYdgz08BMd4Pxz9Z+DtOoTGE7vRenYfmkkOwdgE3NmUiZ9Z7k8y9ldUYHlrK379c8/gt7/+IrZv2oiAv4J8dTVCvxIMiyHdZsg+G6LaNVqyxW4VOWZsZ3cvXnrjLbOGXJigMJ9/7GvG65FhVrVoan3K58qQcg+xWi1dV8pVkAWd84u5LnbmfWLboYtoOf4RaiIjiLLQu577LaS1EYxaAD2nllwFb8Lnd4WvSqGWXPdcCpNp1jukQeiaeoxZse2RUbS+8yM08D2T/kr0bHwU8bZ1DEARY0B6tmQfXo4zf9MyXHPOcBWm7te7FQc9p990TjWz+ZNX0Uy7M0Nh7tz2GUS3Pcl7lDelMMvxVKuu5xRXXTfxZJg6Vz5OT7PeRMJs3fs66juPmttPaNObjQ8V7yvHU3HUoXNpAUq7whT0vhnlpHwsptmWyyN4/jCWnd4LB9+v+QK/89Uv4YkH7ofbzfheB0oiX26ERVsOSCOQD0XjZTkcMTtMT7L1HxgeQQ/NhYGRMbPZEGNhNAI1QILx4WFjGCS8uIg32GQ23Uku2wRU1RV9HygNBso3psWMQCgd/D4VjIttcgR+tu6VAx3IkdQzRsssP1+EfFo4c2m4WIaOdBKeTApO5oFbz/PWoq+Pojem8huczB+5Z5Nn6Ae2bMJnHrwfK6khqC9BbuRvBLedGBS8XF7//Jfv4t09+0zhlErs5sEYJ1iAI+MTSGhaKaFt1i42rkT+qmr6jUHs6yNbhyaGTKEYZ6rN2lfiKjtI3ShUuNRImvo74E3FGb4Lo9Q6Yqx4l0yfW4Sdlbt56AJ8qaRxfT8aasIktQ+b/AXeMgrGcakcwfqp8ej7GFv7CWkc1JbmA1r1FyR5BsMjpjzsJKW2hnpT+a/n/rwMtfAiBu3BkGSrL1fsEWoJKQqtTAHVTzn1UXgiAn0v9tLLXKKMU+hj3irkqNXEalsw3rIOuQYtj65mBFnXrojHFFIoE+50sEw0hNh84A2EIsPm+auWt4lL6VwNFslJfhNM/PQcL3tJkJXUDkK1NWhrbsLOTRtoOqxHc2O9IQQ5lL0ZLAgx9A0MGu+6r+7+0Ng+xYy/NZgC1VH6LpS82c0bFFox+4sotR/m73xBfQJlqNjnuzAuhW/y6hqV8CYgYTWh6Q/Phfl2Hz81fwQJcJaahCYUzQVaTlwWjnKdMSMI/F7MCf6VkDHehghIoOpIjFdUIV1ZZ7bti9S2GjPNeFGSdlDWeK4AQ7weKQjUsqpOf4j247vglkZGlNX7cpxURHkSQU75yy86FJw8SPlcLuNeXpOr6kMhagcNWNbYYPoOVixrQ1UgYHw23qiGMB0LQgydVPf//B+/h/cPHCpVpGKn1rVebO67AZj7b0dKGHC5wKzwZ8HtDl8oveMS+OXKJuFqKDmIM3+EYp0TLYjknayH8vQcCdQg4a9BnmSQoyaQ5nmK13JV9UXNwHSeUtAksbOCocoUkvZ6LVKg6u8Y6UHDwTfQPNhhouVhi99QGzRLuNMkA7fDBheFurg/hMvsC6GWX0d1VQBVfj9qqDHV19SYjWRCfFYjDOpzMXtJXDWON4YFIYZTHefxf//NPxjvuiqUuMeP0Zpm4wH3qlDL4/bAZmxoCxZuHWbCEYUnb3eZTmaHt4I2vhcpb2XRRGS9NG7uy6MoqoPXFTSRAmnGdDTO0qcwFTRJvZ2HsfzgawikYgzeYfoCvvCZx1ETrKaGQLKifSMXciIHTVPWqILIw0fh18Yx2hvCTcKQliFXbGWNYr6xIMRw9NQZ/O9/9d/Q1dOHLN/WW7cCI1ufRr5KHYWlG6dDBmBFJXNKHTOlaxYs3DRYiSRARtjZ+lPw2MQWv5vOWFUy/W5uniPKpKAhSZkF1xYlW3gE1QfeQHvPMdN/4vZ48e9+89fxteeeQSBAUtI95i8hgZ/yWRb+20ECs+G2E4M6fo6cOIX/7S/+Gj2DQ8gymRdaN2L8vs8B1Q284yoJVQb4mFnqTFygzLBgYe6YSgrSFK6DXA7Oi8fRvvdnqJbXJMqFnKP84e/8FnZu3WxMgcUE0eXtBTNAw5XxZMpkhjqsNFRXZGoKvIT+aodQ/rRgYdHgBklBSMfg6zqCSq1j4FeZBfdv22w8Mt9qR+HtwG0nBvUAJ0gKGkc2mpYEXeaBOnMsWFhyYCVWXb7a5KXZQLPBNjGIxoFzcGgTYzaKrY0N2LpuLaqriq7UFhtuPzFQQ9D4scaNy1aLsZosTcDCUoPq79Qhyev0KVxCKo6KzsMIlFzMO6gxr1+1EmtXtM/wg7BYcF1ikDDfajeEyEFHOSMvzYm3YGFJgPVWw5HypVAekpwrKeSysI32oqX3lOlw1FONdbV4aOtmfl7pNWk+cKuyWsZ1Y5VhSx+Nxag1zVFtui5ICGbGmMihdMnC7FAhz1NBLyhMvEvndwPUnyAtQcuaRQpzLhPel4qhsovaghY+Eepk1M7SWzesM8OQ8wn15Wmqt5ldfIu4JjGIfSZjcZw424FzXd1md1wLCwRVxmiYx3jxfKlALaumSM/VW/KiBuOv9KjeX/K8dANpooDahy+icbATdq2VoZas5c+Pbt82r9qC5FRrPE6cOYdT5zqQmYdG/LoxS5Ep9x49ju///BUcOXnarFG4UXVF01iLHSw6CrBpkYxZXGN+nh8oTibM+Qz0DkFpSEzCd/QdBA68CWgXaFXQxQ7G2zY2gMpDb8J3dh/M8uAlWx6Mtwg5lWRTfJNLp1NxBLuPoiIRMV81VXnzmlV4cPuW6/pDmCski/IZsefgEfzVS/+Cjos9psP/VnFdjUEjCt19fXhvz6f4zsv/ig8/PYjxSKTUZ3B9iBA8Lhc8VKHK3QpmZ+n5bAUVl2QUuHgKGJniZ28pwrS4Y3Ad3Y0VJz/A8tOfoObTN4Chi6ycbLUWI5T/ittAJ+r2/RztjHPz8ffhPflRSeNZAqR2BaaQgswH7Wjde7pYx+ZY70Uk9qFO1FJjUN+C1kBV+AN44oH70BCqnRdtQeb94Mgo3tj1Pv72n3+KT48cQ+/AIM3/W6//1/THoP4FaQk/f/s9hEkGQyMjOHr6LNOcRUNtjbGRrjc/WyvX+oaG8P6+A2YlpLJ1oqoOyYaVxSmoV3tW10tTWIuaxixQIYkEJofhO/gWVvFQ65rQUtjy2vilAlMR47D1nkH9/lex/Nxe46dPuxz5I0OwjfcZHwyazw+HZoNePc8XFIp3IgrHuf1o2/MvaBrogJsk4WHcK0Z7kKFJkVZZeHwsD81fWSTxvirKpEBC0DwFkkLDgdfR3HUU8VwaWaXFDLdLsK9RL2PjqCVBhkZJDDQjHE5Nf96Ib77webMXxa0MUUoj0CrR0+e78ONX38DLb72Nnr4B/pAzPiYe2rEFNcGg0dRvFlclBnVgdHb34KXX38Lxs+dMWhUh9Tkc43fNZtQyVS351ASNMkHMSDC/j45P4OMDh8yzhhgCtUg2roLZ5vtakVdLo47KK9hVEeGRTsI2OQpnx6do/+hf0HbxBLxkdD9bW40ZJz0VyHtZiDOWxi4WMA3KDLYsNgqPnQJVdehXaOcRGu2GS6qr4s3DQROpknZ7Zd85ZKITyHgrUNA6k2su7LnNUNmQEGx9ZxHc/xpWH9uFagqDmcDGOClW7kwSNRQsf/dJJJnGHMmhYMiB5VlK2+KC6paIjiZQhHWLWsLy/a+gkQSnpfFVTEthYgBpxl8ev4rpKKVlKkmQGF2sj40XjqCCBKks8foq8Aff+Do2rVl9U7Mcpb1LS5+MRtF5sRevvbMLf//PL2MPzXw5pxUJ6D2RKN9HTWLdqhXw+2Z39DoXzCAGRUC9mx0Xug0pvPXxHqOyGPbhoRdpstJoOIIDJ07iODUIObzIUViLfQ+654pswvDYGD7Yd9A402S2IxwIIdG4utiqXzXiDEt+A8puqMxQUcI4N3GqVTqzF/USJLZUgRjJQBWVYRkhio7BM9RlWistp73krVeFKFz1nbcLSos+mHp1DJHA7LEJOEd64Tp/CFVH38GyY++hcfA8PJnizLjpcdQ3eempZiX19Z5FJhZhuuSKjb8Ygiin7dKf+YXKVvEXIdM80KYq/uO70XzkHTRRZdbORpeFpASeiyg8tNGlUlddOIrsCE0iCpl8RRiTUmEqvlPjvdDlo7QpLknGa3wATqat4uwnWHn6Y1THSXYqPEZJW7pVsU5VsZxsTEdBGl6e6ZDWqjBK8VaDFTq3D7UsK9VHEcET92/HN774OVQG/Lzt6ukrylDxUw2xZE/awdDIGDWETrzx3vv4zk9/hveogUvuyr4kBIWby+VxcXAYbmoodbXBopMWNqw3ShBmrUQxEgVk2EoNj47hVEencY394cEjNCfSV1VJ9JxsJSW8kXbT5rWrsaa93WzfVc9I1VYHjXvq7v4B/MV3voeznRTWXAF99csx/MCXkattvZSZJmPNJyuKCkkdlBoDZvjuFFXViRGSwgh8wxcQHO+FlxXUqUzR/TPix7D4X34WY4Egxlo3IlW3DJlgIzLVNDPcFSxlEo4IY7pKeIMZeCneZZjvej8PpUMtfyYFB8nAJc0gMgYHK58/3I8AWyBPPAo3VU3jo0+47vsVNoNm2iZpVow1r0ayaQ0yNc3I+INsmpg2rRC8mbRNTYvO1ZOu+Otg/D3Mfyfj7h3sRA2FoyIegUtpFOYSNu+RB4cUCS3pq8ZYqI3xbkKhuh7ZylqkmR6tery0wrFMNCbsaeFf733TMSNtpXomolPZhIfhGulBxdB5VA13I0BtSEQw63v0OK+rDKLUgiaqm5CqbUa2iulgGnxjPWg+s4cNVtjEOlQbwh//d79v9nCQv8VyiCZGjIs+JUsaTRARpFJpagYx05cnZ0T9w8M4Q1L49MRpagRRRjtnSGM2YTdJ47+qQCWefOA+PP2o9qRcQVmsNu+ea9+GLZVKFTTUMTA8QsHtxqGTp7D30BH0ywMuM+9qpDAVSpQSZ2dBiiT8Xg/JIYTlzc2oDlazDArYe/CQ6WuQe/0IK3DfxseR1Hp3Qq2KjYl1sNWxUQ1zsoVxak45P+3pGKpYaB4KlZNE4eSbDBnohdeLm3KJUAGmaFLE+N4oSSnjr0GOhJEN1CBTUY287F/Z7VLxjJsuVUg9OUv4pTBNBKR2SmgMkbHVUAcc4yxXXC62Ji5WOPn2cyQi8FKoKiOsfEn1G1ADo+5k1G4dc8jjGeBzRZ8WFDSSXKwyhFh1AytnnTnSTGuG6StIyKT2Km3OkguyK9KmOOiDaZFWpjTwsCue8Qm4acJIu3FMDqNmtA8+psfFVrJYBjcR93L+8Tk51pFjFDmCTVZUIsJ45xnvrL+Wn1VFt2ck8Yy3tBxaZC5TRP1ORpMsVfIr0jMF5l08WLfMrlClMnJSvXeK1NQ3IkJg2irH+1Gh7ezZIMmtmsH10lZKv9IhzTTBfE76/PDwHQH5dGQ4aq01b+Grzz/DxrLGmNySkTwFIcv4ZBg3aeAigzCFfpLaQXgyilE20JLJgdFRRBNJVjNqJqV4Xa/1V7Qkk06XEytam/Hwtq3YsWmjmWlZS3l0u13G/FfcrgbbL9//qHCGZoPUlI6ubuP4UsxVSvMNQZEpQ2diJ1Vcp/wEUojKIxkS1LAqriqquSQ3YRR6EQMrnXbzcYsReb9N7qz03JSwbwXyMJTRQQLQGvw0iSHLVkoenQtspew811x2eWdWhc0bX4XMC6WEBelQvHjYGc88CSFPYdJ1OyuUXLWpBRIpqPNNNradxCF1Un6PmRRiftIxE0bhpaDZkaJAJZU25nGegmU8MzO9dtn4Jk3ySUDhYp5qWzX1mktocinGVz4Gmf8OEoPIWP02Tmk8vFdpEG5XClRXBHnIzskrNcsjxfJIy4EsiSFHYjCu+5gGB9OjcpK3b5Wp8UatNBGqLyofhymXoqqfVyNDE1mNjwjBrV2a0nE2QinT2Ji6xs9bShsFpvy8UqIqKxkKUJ2XO7ryEKUEViq/TKmipp5FksSgBjqRTpvfTC4rAJ2VPm/UHNBzyiPtzt3a2GgIavXyNqxe1mrcwNXV1sJDkhBRiSSmahO2b/7hfygMkp0mYzEjvIrCDfLBrCgm5TIUprqkymkrFoM5uYyi5Jhrl+PAM/6fHt7NwITJzDJhlSNSKkyRlj6l9eiaKplxPW8qm+5lZSOzqxWwsTCNbWn+6Sf+xmeK2arI6qr5pUhqxbPiT6Vv8w2TmtK7ypqEkqgrhpD5RRVL6THEwHSau1jmhhj4qfsUjkN/LkWU18ppMOHeHhTjf+mPSUMxGvzL/7rKbOcn//E3h7leLCfjlk2NkCkrQWVFUhCB81PflTaluFz11c4rzHKVE6ac3jAYFcXoEpRlJj9NNIt5L2QZpzJMnSldN1q3DvOtiKnh3SpMWpk/wYAfDaEQQqEaLGtqxFoSxaq2VjTW1ZnREg9JRARh+6P/4/8ysTGsNJ8xmQKZEoNUiU6dv1B6jw2TngAitDPztmKLfGWulj4FXs+T0Uwn2zzjcojKgNJpCap818JlgS/h0u3Fk2m/3hFcEuOpkWG6psfNXLninuKf6fctNK4sgWlxLOFGy0kmq4j9EuYlkQVquUk0RodNw6E6LuFa0dqC1oZ60yJfSszU91076vOL0ntN41A8MV6h6oJVqA4EzCHv0iuoTYSoSdgu9PTOS9ZcC9lsDnsOHcbf/finpvNEm3R0Nq3HZONa6lW0Ha8FJcSnziiqkNepBBYsXBUiCJGCmd4sLWIeQTPSNXweG3qO0OQqTmZaSVIw+zlsWE9iKGsyiw9lTUaai7QF7Ueh+Ukkz+lN3/wjRxtq3+Fj+IvvfB8dFy8a924XQisxvvIhFDRh53rUSZWeMVbsSxcsWLgBqIqnMzzSxmSaHy2hBI3cTA5hxendCMUnGHQBPp8P3/zi5/CtF1+gHV9zSfgWLZQfjOLUWBpRu92H1Cp1vtSHag2bqqAqEmHafywoc8d1YHpj57M0LdwzKJOCNAV16s1rNVLYcdT0HUNNMmy+y2zYsWEdnnpop3HxrpZ4ujwsuoN/9DkVl7shbyPEmNWVlWioC8FGKpKVU5WchF2bbpaGYK4LqoEWLMwZIgRqqkZLEClM7VeYL2RTcI90oW1E6yHypp4319WRFB4w83k0NLlUsSDEIEoKBCoMMWgbLcGMhWvvPn5eFyrUVEkNtGDhehApZKglxJNAUvXmNpBCLgPnRD/aeo/DTc1Xb/DT3H3kvu3mqPB5F78JcQ0sjMbAQx0abY31qK+pLl2jOREdMRk8J6iwLVi4FsqEoEYkKS1BpsNtqDf5HGyxcdT1n0ZVKmoaPs0q1Pbyn3/yMTTW110xJ2ApYsFiL7WqtanRDImISTXzrzY6ZGY3zqnwTKFTu7AIwsJsEAmIFKQhGO3yNtUT1T+SQdXQOYQiAzQhsnxVAaGaWnzps08aX45uMytzaWPBiEFrHtRDq3UUWoKqiSUVyRhsk8OGga8LFbRsRosYLExFucGQhiBCUF/U7awjNBv8Y91oHO2CJ5sypOD2ePD844/g4R3b4PNeZ/h9iWDhiIFaghZ2rGxtRZCf+q5+hspwL4V+Dv0MQpaFrh5mixwsCNIS1FiYuQmsF2Yq8W2E5iuM9yI0eA5+mRClUYhnHnoALz771C37WVhMWDhi4KEtu9evbDedkCpC9TPUjfexUJNzE3bdc7tbBAtLA6oH6lxMkBTUYNzuKkGt1j45gtr+U6iJjpgZjupHUH3+9te+jOUtzdBekncLFjQlMiGWMQM1V9usSSA1+LWSb6zn3tMa1LLcJa3LgqKsJcTlh5GfCzJSVYCNGkL18Bk0hvvgLM1uDFRW4re//lWzatFMe76LsKDEoMke2nlny5pVqK2u5BUthimgdvyisd3mBpbI7eptvp0gBzhddppTbtTW+BBq9CPUUIGaoAcer0OZU7rRwqwwnYsiBGoJIoXbbTZMBTXaitFONA+dN+avSKGSpPCtFz6PnVs33XWkICy47iNzYtuGdRSOGqP9adlvKDpshn/M9NLrQQ+pgiylEQrKfMDnxBOtlfhft4TwF5uq8Jcr3PivayvwZ/c14htrQqgPemG/i1TReUPZfFTnYqKsJSxguWdT8I50oqX3OLyar8BXaz3B5x5/BM8/8Shq7qJ+halY8Joodl2xrA0r21rNEKaK2CvHFqPdLASaCHOCKstCqZG3CNYZv9eJ59sq8e1magtDF9Cx5wN8+t7b6D1xHCvdwO+1V+IP1tSgidqDpTmUIAk0WoKGINW5uMCEoDomvyBj3SSFY6hMx1SUcHvceHj7Fnzl2afQ1tS45OcrXA13JFVy9/bojm0IGnMCxh9AbXgANs2EnMsUadWPDFuRpTAbkoK+vtaL50NuRM+dxi9feQWvv/Ia3nt3F3r7+kx6q50OPBny4ukmPwIyK+51iADUj2S0BHUu3gHtkI2Ua+Iimi4eRpD1Usu3NT9hy9rV+PIzT2HtyhVmUtPdijtCDMrgbRvXm04buZjS6EQgGUFAfQ1k6TlBFUUVRmrmIkalx4EdNR7jvfrAvn3o6uxCWpv2MN4peeyJxxGNTsKRjONx3tcakK/De1RrKGsJGn40WkKpk3mBOUF10DHei6aeY6iLjfH9RReHq5cvw9c/9yzu27xx3reXW2y4I8Qg9Uv+7x6/fwecJAmVvTuXQnC8D/a4+hrmqAWUW5bFSg6U71qaEWt8Doz192FkoJ9RLTq4lfPXcydP4u3X38AvX3sdez/+BFWZOKpcLJJ7jRcuEQIbhUTy8qjTQhOCkEvDKVKg+RCaHKKmUPT0VN9Qj6+RFLQOotJ/bU/PdwPumIEk/3eaKbZmWatZcSlBCSQm4J/onbvWIJhZb6xMi9KksMHJCuRhHZI/v7TiWpJ6ucEYHR3FJ5/swYcffIgLXV3Ip9lS3RFpuEOYSggaadDnnexUzmXgCPejof846iYHjYmrmY3qKP83X/ycWTWpSUx3a7/CVNyxFCpzm+vr8eXPPsUvDlMA3qy0hl44onOcJl2G+htUsRYdORQQy+Uxki3AX1kFp9eL3JQ6r704Yox3nALhlv9/twcFCcYiN4/mBSoraQaxEiGYSUp3kBSpyTkiA2igplAfHoCztAaigtrBb7/4Ar701GdIEMF7ghSEO5pKr9eDR3buwMrWZqpmUq/zCEZHUUVyQJZawI20nqpYCz2+fT0w+iPJLE7Ec2hYthzL2tvhcrsoE4wjK50+5Xq8oakR69avR2fBhYEcNYq7ufIp7eo7iMWL/QgiwTtJCAJJwEENob7nKBppzooUcoyTr6ICv/O1L+PF5z5bJIV7qO/nmntX3m7ITvO4ivtfHjx1mvWl6God+QwSvkrktMWc7QZ66dXnoOc1H2CRCJfkIEfhb6/xY1NTHVLJhNkoWC71HR4vGkkKTzz+GBo3bcNPhzI4PCxyu8OCcjsgAtChUQYRw4IOPV4DMh+oKdT1HkGztNXSrMbqqmp88/PP4Ztf/LzZi+Fe0RTKsNHWvaMlpNdf7B/Af/nuD7Br36fGP6Q2IempX42xZTuQr6gRg5TungN0q2aiURsxviIXFCImHWQD44a+VJmcdmxvqMA3Wv1Y58xiuLsLA4NDZvuw5rY25Grq8cuxLN68GMFEXB1vxceWPJQXhhlJCDIbdL5YCEHIpeEa60Ft3wk0h/uLpMAKFKJ28OLTT+LXP/88mhvr7zlSEO44MQjJVAq79+7HX//gx7jY12+uxd0+dC+/D/GGdcVdiG4EC0UOJut4GAFg5dfuU/EJuBKTxY1sgk2MR2lYy2nDiqAXj9dXYIXXDretYDSJET52LJzGnqE4Uok72PE2XyjHXyQg805Dyne6/2A6FJdcCu7R4jyFUHys6PadDVB9bQgvPPUEvvrc02hrbjTD6fciFgUxKApDI6P48Suv4ydv/grxeNxsIjJc1YC+9p3IVbeYDsobwu0iB2kDyjIt+jL7HmortzB8sQm4o2PGK5WXxDBZVYf+tY+iEFp22azRrEaHDTVeJ3zUIrIMZyyVRzZNwZEgLSLZuWEoT3SYUQVpCSVi0LXFBMUtHYd/pBP1/SdRq01rFUeSgpwIffHJJ3g8bnZquhvXQMwVi4IYBG3meezMWbP3xL4jx6h95swWcT217Rhd9TDgCfAuCpYEvvjn+rhRclClKb+j3F9hKrwElwc1Am3uqj0p/dQMtKmr2aw2EYUvRYLQxJjSM3GPH6c2P4VC26aZpDY1+otMbm4YJn94lE0FMyRbStRiS5vKMBE23pcaeVSmJoukQOJua2rC16glPPf4I2iq1yYx96amUMaiIQZFIxqL452P9+B7//JzdPVqunABCacHHW3bkApSa5BJISEr7Sd5GSVJm60vQtdcfEb7BooklFpDANMgDYBCbn5jBbfHY/CwEmmHIQ81AHc6YQRfe1Q6Mmm4ed1tNrRVWNrXkX+p5WjrtyjNh+GGlZhYR0ILhGaP11KHqo0OEUHZXFDmLoraNAs0sUz+FAZPo2GsG75MgrWmuGNUe2uL6WR88qGdZuLdvWo+TMWiIQZBw3fDY2N46dU38bNfvYOJyKQhjKTLh4zDU9xzkQWZ00iFZI0x1x6E0iy0UW1WG5+aUYxpgqivLOwCWwFnJgNvKmpWdU6txJpYpJ2ONdHKZAkrknbXtlNb0Aapxfv1wtI+Afrkkeeh2ZtVwRqEK+twyleHZKABWX81ChpVuVETaLFDRCgSKE9X1vfF1KE4G6TJRQYR6juBxoleuFjOKnwXG4rVy5fj93/j69i5eROqKgP3ZEfjbFhUxCDIhDjf3YP/8v0f46MDB8yagjIuR3Sq4EtYtas2z2jDF7dlnUYMhLlCbcD8atR9XSjfyS8Khn80qaX4E3/hf+WOneFqeDGjcxKMiKCalaiF6ueK1avQ2NSMuoZ6DMCN/3QmgtGYQiiGfFfAaEWlTw03Gq2qmEuLG4xjJgnX2EU09h1HKDp6aeKStIId69fhv//2b2LTujXFbdnuRs3uJrHoiEHQKMWeg4fx1z/6Cc51dV0hYlpnoKM8SUgb5pZFeQauIp+6pMkqBYaj7b+dvODQXC9+plQ5SDS6LttT5kGlvwKtra1oaKjDiuXLEKytRW0wSOvEAzcrlDxTqaKNkTn+6PgwjvVESGhLQXCuAVWLUh4X92YoEfSSIARCjUByEp7hDizrP4HKVEyV3VQJn68CTz94P373m1/HirZWy3SYBYuSGIRoLIa33v8Q//jyz9HTP2AEVYzuDwQQbGwyKp+NNn4qnUau3KJNheq1KgefMcq/2KAEJ591u5ywub2oqKhA0OdBhdtl5hV4a0Pw+P2o9HkRqKqGj+c+3uvUwQqkpbZ2mgfSIqa3MBkKzYcjMfwvh4eRit7Aeo/FAlUFaWj6LPcdCEuFDASThgwcsVFUkhDahjvhUf8Ry0rlp52cX/zsk/jSM0+a7Qws02F2LFpiULTGwxH8+NXX8cNfvI54PGFG+2pYsFt37sTmLZvNzj+zkoLAVGVJHCp4qf9TIXHWNbvDydbCDp/HDTftTQm9hqgM6bAimXuoMUyT/6tCOTmWzuFPTo/i4wthRuAqcVssKBd9eVhRWkGaQmSu8yj9vGTA+EtL8Ib7UDNwBg2TQ2bSkkpci/a0zP+Fp5/Ekw/uNPuoWqRwdSxaYhBkLvQPDeO7P/1XvEHtQfMbWJqora/Hw488jC3btrJVv8ZqNyXtKlI9tbU3WgUPD7UGJ7UBo02Urk29by7QHPsTkTT+46EBDIwnF5dwTS1qkUHZVCgvc16KZCAo7tkUXNERBKghNIx2wV/yuMQCRIBa387NG/Glp5/Czq2bjWlokcK1cUfXSlwPEko/1fv2lhaEo5O4ODCINCtxktrD6NiYWVIQrAmabcfLrfxcj+kQP6rjM8NDJkiWn4YzS/eW5WW2Z6dCfReVpclL+ye0SOgOSpoR9hJEAiKAXGloUaMKZiVnWUNYojBaQgQVI12oHziJxvGL8GkBnoqOKmZzQz2ee/xR/PoXnsOOTRuM9zCLFK6PRU0MggoxQIZXAYejMXT19bMu55BMkBxGR5HPpFEbqoN3njYRNQTBypbN5UkURYLI0NbWUSYV3TNVlKa/18kKWet2oCORRb/WPiyUjT5VwHUuIhABmHkGPAwRkBR0LKV+g9mg9OVScEaGUNt/Ao3D51AdGzOjDiwR2Kn1bV27Br/xwufx+Scfx6plbaazeD7qyL2ARW1KTIU6GU+f78SPX30Tu/buR4LEoIhXkDS2bN+BR594DHV1daZfYD4L/3JQxSFLLQ8X1Dchj9eGLPRr6cbyZ4qCt3s4jj8/NYqBiXk0KWYrLiMk1AjKcwuKF0kG6uMofZ/lsSUJpU/9BqkYfCMdaBw6j6pEBE7NTdBvzP9QqBbPPfYwnn3kIaxbtcJonZaWcGNYMsQgiBzOdnbhn155A+9+sg+JVNIIpbYcb16+HM88+wxa+KlOxNvdMih8h3pDL72HrRRP1cmlUQ9l6lg6j+93h/HDc+OMPCvzrUJFNXW0YCr022LyRTHvYPo0fyKThD3ci4b+0whFx+DRLmYl1tP8ks1rVuPXPv8sHti6BXU0M+/l9Q63giVFDEKaraLI4e9/8jN8+OlB5KXiMwmSz1BLK556/nmsX7saXu/8mBY3Cg1jlpEv2HB2Mo1/JDEc7IvOj+CqtJZWkd06lF71G0RHUD14Fq1jF+HhdzNLVb+znEPV1Xj20YfxpWefMrMZRdB3oPjvGiw5YhDk0KWj+6JZjfnB/gMYj0yayqNls7X1DXj4sUewmS1GVVXVHZ+8ksoV8PFYymgNPSNxMyHLwhwhDUHrUxJh+Ic60DTSCX86XhqCJGjWqf9pw6qV+LXPPYMHtm01M1KtCUu3jiVJDIJWY/YODOJnv3wbr+/6ECPj4+QGJcWGQHUVtm7fjq3370BDQyNbjzs33VUximcLeHcgip+en8BgOG2RwzXBvFE5ZlNwxMPwTvSjZrQLtbHidGaVoqa9yy3g8pYWPPPwA/jsww+aPVE9d7Cc7zYsWWIQNLw4Fg7jtXd24dX3PkBnTy/y+ZwZMnT7vGhdvQbbd+zAWrYomjF5p3YjVgZH0zn8oncSP+8MIxxVR1nxNwtlMEM0pJpLwRUbgy88iIC8K5EQtLitnGHqP1re3ITtG9fj+SceM9qChiAtLWF+saSJQVD0I5OT+PjAYbz8y3dx/OxZpFMp2vdsV5xO1Dc2YuPmTVi3cSOaGhvu2JCVMnk8lcXLF8J4/UIE8QTVYYscVIAkBA2lJuCeHIE/OozKiT4ENfRYmmOhbBIhtDTUY8v6tfjsQzuxY9NGsxpSKyQtzD+WPDEISkIimcTxM+fw2q73SRKHaFqEzUQljRC4vF60LG/Hxk0bsHHjBlRWVZke7IWG4jmSzODVnghe6Z5ELHavkgMTrf4DanxmoZPIIEINITKEQCJidpTW78oarUuRjwTt/vTofduwg+XXUBcyu5lZZsPtw11BDGVoOFP9Drv27Mfr739E06IHhWzWVDAbVU1tFrKcqueW7duwfMUKM2NyoVVQZfcENYfdQ3F8/9w4oiKHe6XPQVVN6zFoLthj46gID6B6cggVyTB8qXhRQyiWlpm1qJ2k76PJoI2JtpMQ5JjVR43PmpNw+3FXEYOgfgc5eDl86oxZnSk3cRORiBFIs0LT4UQNW5y1a9dg07ataGxqujSleqGgDE9kc9g9GMePz4cxoKnTdzM5SDvIZ8jccdjDQ6iN9JIQRuFJx+DWqIPRINSlaIPd6UCopgYPbd2Eh7dvx/qV7WisD8FHrc/qR1g43HXEIChJaWoPgyOjeH/fp3jpzV+hu7ef9TNfmmdgg8vjRlUwiPUbNmArW6T6hoYFn/uQyObx6XgKP74QxbmBCFntLioKQwbSDtLGz2Jgogeh8T74Y2G4SRLGIxYJQWUlUlYfQl2w2mwD9xke7a3NRsOTyWBpCAuPu5IYylDS4okEzndfxL+89Q7e+miP2Wla6x8k/0q4plBXVldjx307sJ1HdckBy/Sl2rcLaWoKZyJp/FNnGJ/2R2G22yNxLUmIDDTHQL4w5SSXpkJwrBu10VFUyHwwVa1Y3XingcPpxLLGRjz/+CN4+pGH0NLUYKYwW9rBncVdTQyCkiefDRGaFwdPnMTPfvkOjnd0Ih6LIaNVhqqoZAl5hZJNu3bzJmzYsN4szPJXBuAu2bS3U5PIkhz6knm80jeJ3d0RRKJpadaLG+UIGiKgOZBO8ojBnphA5Xgv6iKD8MrXIslCLvPMrTyUjxXUzKqqq7CqrRWPU1u7f+sWNNUzv62Vj4sGdz0xlKFkajr18OiY6XfQQqwzXRcwPhE2KyfzFE7Jvrw8ywFM27I2tK9YgZaWFtMnoZEMuXG7XSShLoZIJo9doym82zuJrpEYUvOxvmK+YKoJD2kFIoJMAo5MEs5UDI7YGAIkgmqaDN6M+gyokfF+5VLxKW1F6KJpUIlG5uWm1Svx2M77sLp9OaorK80ENIsQFhfuGWIoQ8lNJlMYGBnBgWMnsJckcfZCt3EIo34Jkx0UfA2TSYvQvoUtJInWZctQ19iEYG0QVX4/XCIJqrsiifmq1CqIZK6oPbzaE8b+gQSGJ5NSKUycFgyXSECH+gqy0GpGVzoBT3ISjlQUnvgY/CQCjSa4aJrZtbmb7iXKxKmZiFrDUBcKYVlTI7avX4fNa1ejqaHOuNHTAqfbqYlZuHncc8RQhrxDJVNpahCjOHrmLA6cOIWz5y+Y2ZMptnrqqJQW4VC9peCrktfU1SFYV4/mUA2qamoRqKlBTW2N8RCkeREa9ShrFLdS4dUHOUnt4ePxFPb3R3B0OIHJJLUHqRXzhpLgm1N9lr6rU5AEILPAnaHQpxKGEByJCEkgikAyDCfvMSaCIY5iGJqGpH4BaVX1NdVoa27G8pZmrKNWIM1A/jQCFRVwueROz+o/WOy4Z4mhDBFEKp3BeCSMrou9OHbmHM7SxDh1vhN9I6OwURgLpiUUSWhPC5txDuur8MNH88LPFrGqOmh8ANSRJKppO2v6tTE7KAAiiiJZ8FNkof9zIA0VSoYMMZxI46PRNPaOJHCG5kU6rRZ8LkUmoS19mg8+VxbkshaQ1TAphZwC76Vp4EzHqRHIROA5D09Wnym4c1lDBMU9N/gs42+c4fKfehBEmssbG7BqeZshhPaWJrOJi8yGAPNJZFAmTAtLA/c8MZShKdSaAyGns4PUIs6TJE53duEkieIMTY3JWNGHoO6RcJW1Am0446C2YDxM8/B4PfB6fTQ3KlBJraKKpkiA5OGngAS8bjhJGE6Xu+ieXoJiBEx8UfLvMA2ipDgJojdZ9CX50WAU50kQGfU/lAXfFKEEX98Jfde8AbX+Wbl+z8JJE0BzBjyZGIU/Boc8KVPgbbzHyetmCJHXnHKgy4BMhyHDUZA2/hERSHvKkeA0tNhYEzRDiivaimTQ1liPpvoQgkyrz+M1W7xZZLB0YRHDNCg31CpmMllE43EMkSQu9PbhDEnixNnzONPdjRjJQ9v1CxrxUNU3+1ToeR4SBje1BZeb5gVJoEBBkj3tdrrg9gdM/0SVyw6Ht0IuqMyzFWxVqyt8pnU1hDENEtU0A++NZ7B/JI7T4wkkaW64Cimq+hRsqv3aNcsIMQXcp47BkuAb0sml4TAmAFt/DdeWYqv7DUokYDKA7zcLzvgp4dZ6BBHdiuYmrFu1EiuWtZlRBDlCUYeiXyYC01Z2qW+RwdKHRQzXgLJGh0Yt5EouEo1haGwcZ2hmnDzbgeMd59E7MmaWgGuLO91r5kiUnjemAyFtpCzsZn4Ez5082J6qKTaCZIiFX+VEVrfPBt3n4v3av0JLuXMkMAdvlpCXDwNe07buJUnnoXcVBd+kSZd1zkOai8PuoNmSZdyKpCSXdW0NdVi/op3mwTISQasxCzS/QP0EmoWofTaM1kNYRHD3wSKGG4Q0hAxbaHVcGo2CxHBOfRIkCY1u9IyMGiLR1nrMXHOuZ9SRqayeKkM6nSpUZcG9FnT/bGJoyGcK9M1oCmz5TT8Hv8tS0XCsOv9EIyKpUKUfbU2NaAnVml22lre2mEVK1YGAmeilYUaZDgrHIoB7BxYx3AKUdeq81PwIubVP8VOb5PQNDGBgeMSYIP38lIepSCJpFnmp4zBHmz+dJnlI9ee/LFtreaQuEoh6Fa6EBFK7KJlzHnYjpOrMlEdqaSAMln8k8LpP9r28WUmoq7XTliZq0awJBYNm6XJdTQ2C1VWoUX+A12MmFskUkMlQ1gREJhbuXVjEMI8wRMFD7u3lgl7aQlau7lMpxEkM0XgMUZoj2u5fBBJPJhCejCISi5l7pIWkpW1MKRKRggTeR/XeaAsSeG2MQyF2la5rVKBaIyQUcL/Xhwp++nxe0yFaoe8l1/pq9Z3afask+GUtQIcFC1NhEYMFCxZmwNIXLViwMAMWMViwYGEGLGKwYMHCNAD/Pw+mI272W2cAAAAAAElFTkSuQmCC;" vertex="1" parent="1">
          <mxGeometry x="160" y="40" width="80.86" height="50" as="geometry" />
        </mxCell>
        <mxCell id="PJXzIF6TXpeEWLcsnp0K-22" value="" style="shape=image;verticalLabelPosition=bottom;labelBackgroundColor=default;verticalAlign=top;aspect=fixed;imageAspect=0;image=data:image/png,iVBORw0KGgoAAAANSUhEUgAAAbAAAAB5CAYAAABY3nTiAAAAAXNSR0IArs4c6QAAAARnQU1BAACxjwv8YQUAAAAJcEhZcwAAFiUAABYlAUlSJPAAAHVSSURBVHhe7Z13kBzHdf/fxssHHHA4ZIIACDCBQYwiJVEiReUsS5aVrGBZtuUq/WFXOf7hX/kP/+dyucoKtmTJomUFysqZshJFSpRIk2IGSZAECSIDl8Pext/79N4DmsPd25nZvQNAz5dszN5MT/fr169f6O6ZSdUUkiBBggQJEpxhSC8cEyRIkCBBgjMKiQFLkCBBggRnJBIDliBBggQJzkgkBixBggQJEpyRSAxYggQJEiQ4I5EYsAQJEiRIcEYiMWAJEiRIkOCMRGLAEiRIkCDBGYnEgCVIkCBBgjMSiQFLkCBBggRnJBIDliBBggQJzkgkBixBggQJEpyRSAxYggQJEiQ4I5EYsAQJEiRIcEYiMWAJEiRIkOCMxGlhwPgkWfJZsgQJEiRIEAWn5IOWVuVSVp1KpZ51PJ0BH5ajG+DFmcCPBAkSJAiDZTdgy1ndmWK8lhOJAUuQIMHzBctqwKyqSqUi8/PzLvGb850iw6KMfD7vUldXl6TTp+dSn8+PQqEgxWJRyuWyO7cU/IAXHE9XfiRIkCBBFCybAfOV9cTEhDz++OMujY2NSalUctc6AVPWGzdulO3bt8vWrVulp6fHXYMGrp8OMFpoO/x4+OGHZd++fXL8+HGpVqsLuToDDBf82LFjh2zZsuWEUT+d+JEgQYIEUbEsBsyqIMo4cuSI3HHHHXLXXXc5pT0zM3MiCmsXKGNSJpORTZs2yUUXXSSvfvWr5eyzz5aBgYETdZxqpQ0dJIzXnj175J577pHbb79dnnnmGZmcnDxxvR34bczlcrJmzRq57rrr5IYbbnD8wIiBxIAlSJDgTMWSGzArHkV5+PBhuffee+Wmm25yRuzJJ59sW1EHQT2UuWrVKmfAPvzhD8s111zjlDaRDddPpdK29pbLJWfMb7nlFvnmN7/l+EH0hTHvNGgvBuvNb36zvPe975Vrr71WBgcHHS3JdGKCBAnOVCyp9jJlbccDBw7InXfe6dL+/fvdORQoyQxLO8nKIk1NTTkD+cADDzjDebrAeDEzMyu/+c2d8j//82O57bbbZHR09IRBsdSojYsl/14/cY31RnjCdOVSGMkECRIkWG4si/uNAgVHjx51615EGihUgNLuZLL1I6bnmJ48dOjQiWm5Uw1ogBezs7NuuvDXv/61m0ZlHdCmUZciAaYRicK6u7udUUuQIEGCMx3LoslQouyuI8pAcfubNjA4pKDSjZP8sgB1jo+Py/T09LOiDru+nLA6MWAYrEcffVTuvvtuxw+75rchDk/8e/37ARtZVqxYIStXrnRrhAkSJEhwpmNZDBjKFEPCmg/Rl20VX2pQL9EXiajHlPmpgtXPbsPf/OY3zojBF+Abm07BIl8MVn9/v1sXHBoaOmHA7HqCBAkSnIlYFgOGwSLqwHgtxxqMGQIMGIaLqUR2QJ4qA2b10u5jx47JQw895HZhwpNOP/fVCEwZYsAwXqRsNrtwJUGCBAnOXCyLAUNxM31IYiPBUhswgEHwDRhrbvx9KmDGiQeV9+7dK/fff788+OCDMjc3584vNYi4eIyACIxpxGQKMUGCBM8HLKkB8yMPpvGYLsOYmCFZyqgDUC/rXxaBLVe9PqiLqTqO0MIzX2zcWKot842AwWLti0QklmziSJAgwfMByzaFaNOHtvsQLIcBw3BS76lYA/Prw3g9/fTTbufhE0884Tay2PWlpospw+HhYffslx99JWtgCRIkOJOxpAbMFKQZMIzJckUd1E3EheGgXqKw5arbhxkn2r97926385Dn4QxLabwoGz7waq2RkRE3jWjnEyRIkOBMx5IZMFOeHFn7YcPCcq35GKibqUOMF4ZsOdfAzEjAA6Itoi52HvJcGlGo8WapYOUTfWG41q1b5yIwu5YgQYIEZzqWxID5ihllzRQeu+8wIkuptA1+HRgtpg+XM/rzYdEn616sf7GJZTkNKdEXGzcwYKx/JUiQIMHzBUu+BkYExO5DngEjElpOWKRB5McGEowJxm05IxAMOK+0YtchU4jwY6nht4+3b2DA1q5de2IKMUGCBAmeD1jSKUSA8SAC8Q3YckRhPqgXI2o7EW16bSlhRoSI61e/+pUzYPYMHHUvV/0WgbEGlkRg7YI+01Qjgl747VKCBAlOBZY8AsOAYTx4D6JvwJbTiFEvRpSpRH8acSlo8NuGwWLti40b7EC0CHA5YPXwCikeXmb9C2MGMG5+lJYgLOo8q+EAuV8g4WOCBKcKyzKFyAYOpvCWY/qsETBcGDAMmf8exqWCGTE2bPD5GKIv1gDBUhsOv3x+E3Wxhb63tzd5A0dbwGRp5EX0VVMnyCXOLY9DkiBBgudiyQyYKVKMB8bLDMep8Px9A0YUtFTwoyumKnnz/i9/+Us5ePCgM960fbkiMMADyzy8zAaOxHi1CzVc1XmRypSkSmOSKk/q37Pa6cjTQp+eUlvWocpPaRsSJIiGJY3AMFpMozF9uJzTZwarz6YQ2QW5HBEYdfDCXr5FRlrunYe0G2PJJ1R4fRQGjN+nC6Cv3bSs0GirVtTofXSvFPbfLbN7b5fZp34thcO7pTx1WG1YAY9lIfOphPIF1kRij92wkFKBv08DNOr/xVKCk2jEn8VSO7Ay0HWNkl+Pn4Kw83bPYui4AbMKOfL8l+1AXA7D4cNvuO1C9KcQWzEmLiiX+tg2j/FiByJ8WE5gvEisebH+ZQYM2paq3WERrN9oCpN8BP9eSmCgqrMqw4fukfknb5W5x26RuT0/lvmnfqnn7pPq1AGplaY156kzYie50Zovz8kLL2uqLKplqVaKeuQtMUyR1i+fSlg/+3LQKPkI/v1/FY340iwZ/N9xsNj9ds3qbJTXz+Mfm2HJDBjWE0XO2g9rQcttwIDRQvTHNCKRkP8qK9CKQWFBORgNNomw5sfb5h977DFnNA2dqmsxQIMd2UJPBMYORJtCXA4aqKNZAmZgSUxzhk3+faBR+ZYio+EtWhb/Fo5J9dh9UnvqR5Le9xPJHfylZPf9TGT316V833/J/J4fSmnscZX5MkTVb10i7d+sVOWK+1eZ4w6GRvkXuOf+rd+TVsNVlvL8lBRnDkqpcFz/LmiOpTXIjfqN5HvrYeWklWycagTpCZOaodG14L2Wx+dLI75Z8vM1KicMrA6/LD/ZtWC9Bp9mP+9iSOlN4SkMAYSPijFYGK7Pfe5zLvHhxuV4A0UzbN68Wf78z/9cXvnKV8r555//LGa1C7+sw4cPuweWP/nJT8qdd97pXhtFJ5BnOdptdRFxbdiwQT7wwQ/IBz/wQWfELAprJRRxEaZ95MHIsyaIPBCdIjOWrAzrF2jl/Y0YYI60gciSY6u36rfXt3U6+Ld67H6pPvNzKT36bZHJfeoRzSmtKanWslLLDYqsPl9yZ18n+S0vlszKbZLKdp+4/yTalzODX3JbLSTKqhZE5o5IZXK/VKYOSmVuVNK5Psn0r5fMqp2S6lmt7elduKNzaCUrXDfHE1lBTvjb5MTkgsRv5AO5YLMSstFMxjsx3uMgzNjwEYXOZmVX1CmBb4VCfZz5/OMe6oBP8IvE19pJjcZVK3pw1HHcWS6yGSfu8ftrzZo1bk2e2TB7sQR6CSfbHvGhr7mG3oTGvr4+9wyr9WsQS2bA7AHeT33qU/LZz372xGdUuNbhKkMBZf5Hf/RH8rrXvU4uu+yylh0SBbTH0n333Sc//OEP5TOf+Yw89dRTrjOXs80ICnUhiDt27JAP/sEH5b3vee+JF/lyrdngbgd++6y99DeODDzgyADiiJCaENu0LtdsgFnfQCeKyQYXESWCjLAj2DbYuI7yIplCM3ri93P9/lpNB+Ch30h17w+l8uSPJDV7WIW8JBW9XNV/qtWsVDKDkt14lXRte7lkt14vaVX6kkYJUIbxpXM8txINkVroblZZlYrUytNSpT3H1UAffUiqoxpFzoyJ5PolPXi2ZM5+qaSHL1RjtgFGutsj1tYQvqwYgrKC/kA2mMFBMbJ+zTmukZd+NkfG5IMH9dlxy5G/uY7McPTlIL5MhAPt8+vgbxsPZjwagXtIyK+lVrC6rHx4ZI5hfdap/hWQ6en6FzmMf2ZUjHeMKftiBY/e2HgjGR1Bvlk7OI/B4QO9OO/0F2OZ8zaeGbcXX3yxbNmyxX1Oij0C0PKCF7xALrroIjn77LNdXja8PfLII875B5s2bZKrr75a1q9f78a8X6c76onG3IwJIxjhg9BPf/rT8oUvfMEx1K51uMpQwIq/+93vlje/+c1y7bXXuk4xWowZcWBtoW1MmX7/+9+XL33pS/Lzn//cdSTXl7O91hYG8Qtf+EJ5z3veI295y1ucANm1dtrrw29XsEyEE6XD828IK4JZH0jTzpkxA2Yba3wDBiiPPjLPmgFFYnAx2GgfRpnEGh+CzuBgzY98YDH6WoN7te+qOtj33yrVx78t1X2/EJkf07Lqk2s1NWCkSlUH+MB2yay7WnK7fkcyq7dLumvFiTLqOA0M2Al+lNV4TUhZDVbp0P1SPninpCefkMzcYUlV1FOvZKSSH5H05pdK1/aXS27TlZJK52Hiwv3x5KdRf3COfmesICP79+93CU8e48X6ObKCzJgCRkaCjovJBV4+Cc9+0+ZNsn3bdjnrrLOcTDSSgehyER20zyILjvwdhMk7bWKsoqx94+GjER8pk/J57pSlC2a82LgG70joY/QTetg3YDa2zIARDa1evdoZlHPOOUe2b9/urpnza6Be+5vfGC9e2PC9733PGSD6j+uUTbmU9+IXv9j1BfaAtxKBV7ziFU4/XXfddY429Oa3vvUt+elPf+r4cPnll8v73/9+Oe+889zY9ut0Rz1xkqoOwIpj9yHE3HTTTY4gmMY1v+HLCTyzN73pTfK2t71Nrr/+etdxBmNGHFhb8HoQni9/+csuEX1xDixne42/COHrX/96efvb3y433nhjx9oLgu3hb/qXPmfQMHXMVCpHDBjeGYqIAcQAhi92NMfG5MMvGzoZZAweDJlFY7TFvEMGCH2Lh8bgwJCZMYMHKAJDtHZDBwasLBWNvqqPfk2qquhTlRlJMZj1arXCxgc1ZTXleWZEqoPnSuqc10j+rCslP7zdlXIS7fE8CONS6FIdX2mPGgA1wuXjD2p77pLa4XukOvmUpIrjkq6wm1KNc7mi8Zk6PKsulOzO10t+x6sk3Tui7bZHMaK3xe9X+pu+R1ZQtMgIRgs5wYih/JAllC7JZAUZMTlBLkw2TD6QB4vQcWzWrlsr27Zuc4p427ZtTi5wZLu61TCkThqGdsdDM0A3beNxGj5kS5tohxmwRrKOfCOzGOFLL73U0YwBAH5+AC9wAOEd+oY6MF7oIXv3LDSQGGfUyz1BJ9HGFGMJR4D6cQoxOiy3nHvuuc6QQRN5fRjvGOt79uxxL234yU9+4iIonI0LL7xQrrzyStm69Wy9f8Q5Ih/72MeckaPPbrjhBudks7RD/3/ta1+Tr3zlK24THMs+6GpmzphNWpYIzIpDCCHmv//7K2pNf+bOk6i4w1UuCqsP6w2z3vnOd8prXvOaZ3lkdowDaxceJF4D3gVeCJ1n7TwV7UUA3/e+9zmjTQjut7Hd9hoYDAxIlAztZ7AygBA+BpF5gQxcpjM6yQ9rJ6AvicgwWBgxvDXazODjbxQaA497wrV9gT4tv1pVxblHo6+Hv+zWwtK1oqRyXXUDpoqgpgo/nc5KpdQr5fRaKa+/SnrOu1F6t12tQZc/2OPzvG04PmG81FmYOyaV8Sdk/qmfSurQbyQzttu1qYZCT6lh1vbUkN2q8je3RtLnvF6y571ZciPnabtZC6OsaG2xfjJ5IVLAwUGJMeXEtDtRun2xHVkhbzvAqGHMULo4MxiDyy6/zE1jsZww0D/QUacuCIwFOvBHP/qRc+R/+9vfOoPCeTMgQUADdCPPGK7f+Z3fcVHLzp07n0UfvMEoEVlhtDAabBojqsGYMeYsUo0LaEBnYviZyYEOpvvgZyPdSX22ae+LX/yiM0LUz4zXO97xDtVHax1tt912u3z84x93BheHg35hZuzlL3+5k4Wvf/3rTn+iTy655BK35POBD3zA8QODhyz5vMj8P8XC77ZhhUM4wviLX9wq99//gPOqThWssQgrnjrKjWQKDfgMiQJrL94NnQPzESQGpw3aUwWEj/AcDwihM8RtK/DbxCBCEaGEfvGLX8hXv/pV+e53v+u8r//93/91BowBjEIyY07djRIInsMz9M/zt3/dEkDeTDEia3iCDz30kOsTBpXN6yMDRseiOKGjVZmXC1I7ep9GKne7zQ7cWt+kofVKRqqpvHrzfVKeVTmYUg+3qlHi4DrJrdqso4u1F20HfGtV51LAdVe9z9ghWWGzxoHfSO3JH0r6wB2Snj6gF9Qg01jW7JTW+mNg+k81LeWqjhGNvNID6ySzYtNCu8O1w5cV+I3iNnn58Y9/7Jzb73znO3LHHXc4p8ciBsZSUFasjFbJlxFAnThXRP9McSEXz+x7xilCvHmiNMsL/N9xYbSjgJFBlhNoI/sB/GlzxkUw2XnuhW5oZGaBSATDRvts3LE8g3G8+eab5X/+53+cgSSC4X7aDYwX1i7/72AKji/GlBkkjA1RJHXjDDI9a+MT0Gb+JvGb8Y9RRd++9KUvddODvb196uDuc28mwtBSB+9o5R4cCsYnhh4+US/twPHAaJKoF3Cfj44ZMBNYKoCBCA0M3r37EWfMghUvF6iXhADABBQ6CetvNMWlze7DYCFATJUySPAgTyUYoEyVEJYTetsUBIjTVutbYH2LECJwGCyOeE8IH7xggNlUCQPBv78Z/Dw+jZxvRTN5SAwwFCD8t+lMjCi04LCgsE5GYtzZpNyF0+zSqxUmpXr0Yakef0SkOKGKXge6GqZaukev67Gc1aimJqXpolQKdWOQXbFesmrAUt0DWlamXlwMvkeD8e9kPQsjst6GsX1SeuYeqTxzp1SP3C+Zuf3qhRQW2qM84ehuUq9dozAMWFVykmY34sotklm1VSOwHldiK/h9ifNCPzz00IPO0UEncGS8ELGjrFFYrWSl2XlDIxnxZQKDgFxCC4m/uceic1PIrWRtMRiNlEHb+P7fLbfc4n7TRmixRFuDyc7DC+jZuHGjm75jCpQxDa/QLz/72c+c0eLIs6ZmuFpFXc142Ix3lEWZNp6o33iGToFvBs6THyPNWhhRNQaI6I2oF/BKPXiCjsAwcx0DSf9QPkYSvcxMCnmYwrziiivcTArRNDQFaT1pRjsIOgABOXTosGPsqYQ1GOGASdBVrpx8K0izTg0D7qVcpj/wOugA6ogD6LQUB/69CAHKutmGhiiw+xBOpi2Y60b5EOYzXfrf//3fzoiZF00e7mnUHs43Sz6C5/2/GyWD1QetyB00Mcjx9jkSFc7Nzeo9KMqFmxaDllObn5VqqR5ZVUWNVqpLU15dvwEto0+q81kpTarxmptXbV2Q1MwxkakjUp06LjWVM2s91YWpshWal2NX6lfr/yr9GkFWxvZL6am7pbj751Led7/SdlRpK6nRUurSWW2LKiI1tNzFfxzZqOK67sSbOTw45gXOLcD6gyOKz+Tl+9//gXzxi19wEQMGjKkvDAq6Iigrft9aaoVm91i5/I1yJRJDdpEJjvzNmLX8dmwXOE7IH+2HD34bwyToYCxxL7KM0WVqnuiVqO4b3/iG3H777c54kYf83Gfg72BqhmZ5jRaMGGOb1+KxwxqHlfZx3gd9SbBi/CQCw9jxmzHJNehFP2GUMWzoT4wd45P2Ytgw2ugvjCSbSgg+mmFJDBgeL42AYJjbLvyOiQuYCF0wCcZbJ8WB3UunEPYjWL/+9a9dmzkXlV7yU6aluLB66XwEgaPN88fhoU8LfMOTZNqHxyJuuukmZ7SJxhBCQB3WFvhgqd12hYFfJ7+tvTgsZnCJkBlAxaIq7wU69c6FdBIn/oLuYkEjLDUCs2rEiqrsq73qHa9Qvd4nvEFqbnJOSrNFNV4VSbFjcU6VshqvMtvRebDZoX35jYJ6u9QT5w0ix/fK/ON3ytQDP5e5J++VyvhhyeCkZ7pEctqWHOsZTHMq3+hHIjA4gAHLaFTGdda+vE0PzZpjfcwRr5rpwm9/+9vyiU98wm1suvPOu5xOQNEB66OgrLQDKxNQVrBcfiMTTHGxToNBZVoLen362wVGB+NFuQajpVkyejnCI4wWThfLEsguY47E34w7n07/Xv98XFh5JAN6kyiKsQT/MGI+v7lOm9GJGCl0ENOEgHLQjxhCoknW6InAmDqknUz9M1tE1En0ScSFA44RJD/w6zIsiQGjAf76R7voVIcgTITyszPqVXsdEweUh1LHg2M+Gm+Lv6OCTiEUt4f5bCqjHbChAQFBePyF6jiwyBWBxetjIGGsWV+in31ngGOUvqLtzVKnQD+jsFCmeI6/uuMOeWb/M3UjpdU4mt1/+nshAXekLeWSVGfnpDwxK/PjJSnO5qVc7JNKIa1GqqRpTmoaobnND+65YM07MyHl6XEXgRlSWlYnWkUZjctZuKIk86s6NyPFI0/L3O7bZf7RX0pt/0Mik8dFijgbPZLKr1LDNKC8VuWA4VLj60pgHQz+0w/ZLkl3D0qqd0g1hXnBxiFyn4T1O04iSswiXxI70nB+0AcoZpMTS51EmPKQCWQXmohomI7DGUNOQDvyR/2MCcYMitlvbytYPhK6CvrYGPb5z3/eOQDIr83ydEKvhoVPF1Es05hEf9BizgiAJjZukQcDhg7CiUaH0PfQjf5lipBrFqGhr1jyICIjP04OOpF8jXY++lgSA8bUAELspuu8BkaF7cihIShjmBJXuGA+tEAT9FnUEBcMAjoF757FWtobR6hoH53EPC+LmXRWuwrcDBjHuDut4Bc8YqBjpJkmZKMG0z9MmQb7lfytQP1+snOG4Hn/WlTYgDPg+eFo3PrzW3XgPaFtQ7EsXAyQfvJPNTqq2GuFealMzkppoijFqZSU5vJSmVO9P6cRV0H7nDzYAGVJtVhWgzctFTVgaum0DHWUrBkheBQfWgnF0+7yvJRHD0rhyftk5oFbpbT3t5IaOyApjTyFdbu0Gq6sGiXpU5rTUi1xD6oARdGlRbDLslv/1Hw9qyXdy4PZeMFG/7P7xXiN/Nt6MBuacHhQukS9OHfWn2FkBTSTgXZkw+rmfpQpMmFGDOUbxwkFVi5HdAzrRSR/nIRtN4CXOIlM28FHaMQJYzz6zneUMtsB9cAz6GIssZaFIYOHds2cRfQ0kRSbT9DbnCcfzjm6nC357CrEgJHnggsucC+X4IFmoi7yE71RBvmxA836uyObOIyJVMJvGkaYi1eDko8KI5ZdODSQ7e80Fu+OKUka2KxBzUB+QlGYx7ZUGIRy53yUsqyz6Cjm8ZkiYQrCD6eNH4vB8kIPD1a/6lWvcucwDrQzahvJS6Ju5pCvuuoqt0UVD8euh4W1kb7DeLHWxQBnqpQBbu0L005AWX5k6d8X/N2oTGtbHATvRaGwtR4e5fO5heeB9LqXJ60kuD81b3XiiJQOPqLpMTVWs9oOXmGljlQto4asIEUdmBm36UFvqCj/1Rike4clt1KdkfU7NIJR/vP8FM2izJjtaIkFvlUrGhUePyDzu38p87/9sZT3PywyO+EiwKoaoUzfaslqSivN5dmClGaKanxzGkH2qMxpZFlRo1bR36kVUuvfIukNl0tmw0VuGtFNNTqcbIP1F3xlGoiIgXVRIjAUsO/UNerbRjB5sb5bLMWFfy9jmahhcMWgDK0cetau3aigvTiz7DxEyVMujiD1hW2/D+71ne1gOcYHUpBndr1TCJZpDzujY9Ct6CxoJZrCKLEBA17aNejDSec8449r6HgMF/qKczjwlMdOcXYfMla532+Tj45GYDAWQuk0hNnmlaMw0SeUaTV2DPJA7ote9CJnzOKs6UADiUGGBwN9wQgiDHzBYQ4a742E1wn8662AV4F3wrMOr371q12n4pUwJ2yCGBVWP5EXW13NQEehi7wkDBU7DTFcNl1gzoPlawW/Ly2/CSieFoJOnzIQtm7d6hJ/c57r8MLmv0E7PAGmXNgWjLddIiIJ4EQN7jblBf9imCppZ5xIgj6pZvVcRv/GaKn3WdJIpkw+PTevho/NIvPqnapBcYhOengstLE2PyPVo/uk8NCvpfDwnVLc94jUpiaULlUsmW41XKvUlvZIRdtdGB2T+bFJKU3NS3FaI8uZkttJWZ6el9JsWcolbV/3WpGeYTVefUr/gqFvYLwYU8gHb6EhMcXMmPCjmVbyYrLiy0uYBPz7wsLuBdDPDtrbb7tdHnvsUedA+tejAL3C1CEOLVNmZnzilGdttGTnQKM2N8oP4vCnEaxM2kTb0PE4KbbOR+RFcHDNNdc4fc045hz6jDUtDBRb6nft2uWusUmDN23wzCZ6Hr3F+EcX4tSjF8x4NUNHDRhAwdE4m1KLyzwaTdRFw2iMPZVuBszvoDAgv2/A6IQodFl9HGkXSpAoM7jzsBVdxg8UOYuYPKX+kpe8xLUNxe4br7D0+fnocOaRCb195R8GRjt8QgGxdsE2YKYuaKPV06qNPrgHOjBG0ESbmS5FcNlii6DzrMjLXvYyJ9zwgvN4X3hheGzm4VFWWJ74gF4SsklUyZQW/WcDz/DcktUgkXhxr5tq0xy8NqpGRKUJo6bn66meh2NFDVhFoxsMmHjrYKEAa8Ozl8bxjxpKNTpjR2T+iQekcO9tMv/4A/r3MbXaWn8q7146nO9frfzLSll5UBg9LsXJSY3C5qQyw7rdjKZpqU5PuR2VFW1famC9pDVa47GBIN+Np/CQWQMijm9+85ty2223ubUbn7dh5cX6lzHA+ED5ofhQbDh7yDWygCxxDZlYbLwE/w4CushjCplHQXjsZ2ysvtHE2hgGlo/7mGIjIWvm8LULnxZotmR/wwf4YanRtFvw77igTTizOPEWZUMbfca0H0aMDRn0FXRAG0slXGNMM/tl/Yg+wFCZw42O4F4Sv1vR3PEIjMZgIPBA6Mwo8ImlE2gUDaRhWGsYYBGKdWZYGG0IlRkwELZTrT7uQzjZjRNc+I1CE4MSw0wERkdBG8bVj3LCwtpgUR2RK0f+jgPoYO6d9QumR20nKe0L08YgT1E8CCRP1X/oQx+Sv/7rvxZmrv/u7/5O/vZv/1b+8i//Uv7iL/5C/uqv/kr+5m/+xp3nOud+7/d+z3lktMf6PWyfBWEDj/7DQMNzQ9MSaxiwumEyQ+UMl6a6UdMsLgLT6/zm3HxFynMafcxrijgGosD6gt2DbNuffex+Gb/rVimo8ZKxo5Jx72lUBZIbkK7+Vcq/HkcXxoudlaliWVJlHQckDB380FRLd4v0r5X8uh2SHVhT57fX7VYv/MMLZ7qQrd1s9IG3hlbyQrmWyEf/8BvlxvQSETnTSzg0ODk4O+bYcI086ANH3wL832HgtwWn+5FHduvYfij2Whg6D92HjoljxBuBe41PJOOVnUc/MsYY9/CEhL40XekjKn+agSiVNb6gnocmS40QvNYof/DvxdDRN3Gg3GkUD7LZtnKLdMIQZMxF8SLEzIvilTMPCsMYHGyYsOdHwoJyrWyMBWEqi4Z0elSgAHl4kEVV2okBC2twjAamxxiEb3jDG5wBQzmjUPFiMYoIftgO9IEg490w4FH6CLF5YlZ3M1h98JYdlXjT9jmYKAJlYOAwv403xmtomCZFCcF3ztGnTCMQZdMnDD5L/M15rpMYkMgRvPej3TigHUS70MA8PTSChvzRqKYyOSqlZx6T4jOPa1Q1q45Vj2S7B1Sf52Re+76oxt5tS9eEGNTKyqdcn6QHhqXnrHMls1INQE99HbKOhXqadQfnF++qOrQdZKuWS47GmYfvltn7fiXzj9yjnUjkpcozrX3f1Sf5wVWS6+2XUmFeSlPjUp2dlJRtl3f9qiXxk6PekxneIrmzL5eu7VdLZsU6jcC6NAt5VA6oW4GCx3gxDng4mdkIxr45Ba3kxec3MspYpF+YcWHcY6wY+xyZYiJiZ6yQmI2xN5gjG0Rj1GdTf1Fl1WhBxvr66tPbrE0jG2YAWo0fA+MH3cezTUSiYe9bDH4ZNq5w7jHiTMuxe49xhXGHP/AGh5ExBn/sIeB2pkYN0EJC50EDfeCvtRtatduuB48+WpUBOmrAULysLdCBhOOm3CEkDONMWIi+UGImxCg1yiF6IiJgmyUDiHLDNNLyQQMDhWkp5mkxHGHuNyDgzG+zI4/deGxqMLRqn9FAQvCIvlDqCBn3siEEA0b7MM6cC0ub5SNMR6BsCg7BDTMAjXbyMOigg80prAv4XmQYUAaJCJPomQ04RF60lYGFgeWaTQGhvIKJ81ynf+grFBvA22O6yhyGxdrUCJYfujBezMU3MmBww/2l/V2ZGpPiPjVg+x6X8sysZHLdku3q18As+2wDtrBOpiGP1Pie1qAqjrPPk8zQWkmp8ThZ6kI9J6uLjoX+ot+qSt+80jZ5x49lXo1Y7eA+SSl/eLdhKpuXrBrQfN+gZFQO5sY08ppR41Wa1/p9z3yBLrbU9wxIfsul0n3uiyS7/gJJd/E2kXoek3DqZfoIWb355pudo4MxMzmy42IwOUFmGd8oXKbTGe9MJ+Ps4PhwDrnB4WPqmd8obPqOcWS7bZEJZg7QC6ZzwsJoYdwhf9BE+cgfcmhYrEyumX5gzdh2JkehoxmMPujCKUV+4QGGHuOOLiPBKwwZRgx+YYRx1mkHfYIDiIMRpn+awWgBOJn0Ac6yBQP+9UZodL3R34uV4cOX4raBACDYdCLbJk3RRGUYStc6C+FGqBDS4LNNYRvpAy8EL55jGPq4RqIuBgiGBgFFudv1VvDphHZ27iBwTIliZDASRDr+Q55RYOXDJ4toECj+bgWffvjBg5NMH+KI0Idheezno/+IcIgwedM0jgh0+fQYXxslA/RQFh4xa2MYZbw+DByIShtl85v76Ydm9584yw/3/BNThnq/JracV4tVPTL1prRiuBbWv0iVov7NOpkag5rw1voFxV9bKJWDV+3i0sNVZJS0kHOBP7SlWixI4cnHZPpXP5fCvXdL+dARVzcbSlTSJN0zKPnhjVJN59V4jTpjV53n7f9ZpXWBZjadaBvYmJLi5cN8CmbTpZLdsKu+ecNVVp+ucj/1iLyyeQknxx5mt2uWrxl8niMPOFy8s5Op5Q9/+MPuZdvICy+RZayzrsI9yAGJ37YRiHGEg/TBD37QyRm/kRXyQUez/m0Eo5sokl3UbGBCj4FWbbLrjBfugR+2tNAOfPqRWYwFvPqDP/gD+chHPuLe0v67v/u77kW4GC4MPI6AveUCJ+Ctb32L/PEf/7G8732/775KQURGWVH50wiMT98gtlteHHTUgNEYpsLoRKw9DWzV+Y2AYGO8EGCbx8Wg8TeGzAxYFBgdDD4MEaF+lF1SXMfI4HWyqQFjY+fDthG6LeQmmdeC4LMYyuAxowrClmtAMDH4NvANYQSLvqN9RJWs7xHt4lGGgZXP0dqIgWbAMJhQKtAWVcDJb2USuRGt4sT4bYsCyuJeoi4UYGsDr/W755/Yccj6lw7aQlnKcyW39sVGjrTknAFz61+aqmoM0mogsqWUzB08InOHj0hJecnrqxqhFUfqBtDLpT9V4twD08Unn5CZ+34rM/ffK5Wjx1SQNFrW+iupnGQGVkvXqvWSKlelPDUp8+PjzniJ/g0pZpBpk2tXqkdq/esld9Zlkl13rqT7h8V9PsX12cn6kVWmx5iBYAqdaf2w04aAPMgCMkEE8cY3vtF98gcHhaiBKWPGBeO9kcNj4Jo5uUQZRCJ8ZYLZB2QFhB0/ftkYHnQYkT7rWK3g1wFv0AsYMHQMCEtDI3Av8orzh1Hnze4YLAw1Bop249DBS/QizjA8QWci3+gBPmGC4bvmmmvlta99rYvSGENWfjvg/nbLaBcdM2AoBwSZzqMTbb41itIyZiDgeAq+B8bRdiT5YX0Y+EyGRoQUGhG4xWD3caQ9RF22LsS9UdqGEYZ2BA/jhYdJOzBYlMUUDJGh1RmVb8Yjoi/qoT67FgYYdtqHcW40dUj5zZJdtzYyhcGAY90CZWQeseULmwzcj9HBOJsHGRWURznwHBptfbARoHSB2pMGrKp52ayBAZudl4pGL+zuy6S1D4lm0OEEzxrRZDSlZkoy+eiTMrX3aSmO8VaOSr3ckP0BThquk0aMuzFEpWPHZe6++2VOI6GC9ldtlg0jXNS6u/sks0L5NDCsUdeklIjspzQiKKnlwo7yOWl8E5eUdoxz9ypJr9kpXVsvl9yaszX66oZpmkGxcGTsMI3LTkOidJ4RxAkM2ybrA8Y1kQIKFaVMVMF0F/0SFZRJP+I0Mf1INELZcR0m2sg4ZDzi5IaBtR9emAHzI7AofW6wdiHzTHdj6N/61re6F3Rj6G1mqhUoBwcQ/sIfHAUMWhz+nI7oiAEzRtgcsHUewgrCdiD5SDCcdQ+UMZ1E+SSYbt6Z5Y8KFDPRhUWJi8HKt6lRpk0wYNa+oAA0EgjOUQ404xkyr88Ao41cq1YrzoAxX24DplE5zWDlw2sMPN6areuEgbURvrD+xdQhA9giQYuimyUD+Wgj06JEXhhqvEBrC/RFaVcQ1IUsmEMTBZafIzQODa10stXSEHJfWiMspgOrSr8aqkqh4h7+LavST6W6lCaNXJiKU3vPlFwq3atGTpXZgTE5cvcDMrl7j1SOj2oerEscnGwrPOCB5OKBQzL9v/fKxF2/leJTz0hGI6+UGqVqTenI9cjA8AbJdQ/IvBq1GZXb8sSkpIm83LShlsPUpzO2+lvbVcn0SXbtDunZebV0bThXMv2r6hUugG6Gd0RbzEDwbCCOjj/d7ctCED7/cSCQDb51xbfq2LTBWDCQJ0oC1G2GkcifdTJfwVu+VrB86DEMUbNx3gwWgWHk7d7F+NIIVhftIZLCCeR7WqwjY7iQfx/kXywZKA8HwTZRwStft8ZB8N6obe0EOhaBmWFgGqxVZLMYTBFjwAiNYZAxBoXDORQ0+UBUpuFhTc9MP8vQNoN1Du1h2oTdh/7bBYJ1L0YLhgVPinUcNiYYyuW6AfPpCdsmX3jqirn+FgH4Y9f8PI1g1+EnzgGKHVoxPvQDid8Iv6Xg39RLfzElhFfNkTZSZqv6wwKlgsOBkQ87tRkE9KAUVq4cWjBgLTxYaM/WDRhrRURZGLCypmpNB79GX1lNzoCxjlRlyq1HIzSN2A+rE7DviFT2H5EqBoxt6lZmSDwrp8oERrB4ROXkvodk4tZfy9zDe6Q8OqX5lD5EMtvjpg5zaoBqxbLSoMZratZt63c0OgOG06RjyiKvdI/k1m6T/LZLNV3m7ue5L6sdUUQeGd9EXEwdcgwzvRYEMsoYsI0aTAmbrMaVE7uPI8aRaTUUNBFH1JkaA4YZQ4QuQ+ZajUejgXHMPURicWXUgJxi6OEVTi/ji7Hoj6kwPPPzwH82gOBkMtajGvggfIcyrM7qNNoyYBBthNNpCHVcA2ZMxEgh1L4BA9RjBgwFagYMROkAhHNmeqZuMGZbGzDzxoi8WNg1BRqmw/w20R68H9aE8H7sfpvSJOqJsiZnsDoQbpQyc+JRIjADg912N0En3h60Ei2iENiua4lr9tt2hrH2gJeIV815BgiAvij90whEdygS+oEowPf8o+CkAVvp5Chz4hP5zaB0Y8AyXVKVvCp9NWIsMxU1mlGjkU7nJaPnnSGo1t8jWK10SXm6KqVj05IZnZb0sTGpHBtVD4/Qp15qFMA5oi5lglRnZmX20cdl6je/lalf3yPFpw9LdbbsjFCFb3exaWPFGv07L6XJKTV2en2u5IyXe5sIJKhedUYMA8bzXgMj0r3tEune/gLJbtgpkufN8/X+MhFE3hnXOHBMHzJbwJQ6/RpWThkDREVESChkZCboaMWVE7sPhUrfIscYMBR2HNBedBmJtSybjVisreQhLzJq8hm3PcYrpuHZrcx489sSl1eUi4OLnoD3cXUogBcYL8aTX85yo+2arVNRwkyzYRjMgIUVbh8wBa/etscCKwcBRfljwOiMKEynDPIjXChDFCGGzK75R2C/Gbg8F8VuK6IvKwf4+YOwPNBMO1D0RCZB44LRwnjBs7iKGSBICOaaEY3A+p+7NbwVMGAYLIzQn/7pn8qf/MmfuF1O7AxjFxN/W/L/Ju9HP/pR+bM/+zM3LcT2Y2gBUeoPAt4af1GW7P4kBR+cjAIGGvwfHBx4zgA2UOOJXlX6UzmNRvL9mlZKOqPyWFOD5aIY9V414uKdiDVNRF5S65fqhEYro0WZn1QFX1RHZ2pGysfH1fBpiMQ7ExXNpaYB4IHSUVH5KOx7RqZ/fJvM3HWvFA8dVaOo1iilRlPpq7lNGyPSo47DzNiozB0/JjVVqKlKfd2r6qYLNTF9yCux5muSHlgvuR1XStel10tu005Jq7E+2WMnjRMyysYeHlRm6tAcrcXk34AMkM/Wva6//nqnkIPThu3A7ueI/qCuOGul1h6MEfoMPUHk2cyA2d8ccUQxeO3Ip/EKIwyvMGAYYtphdbXDK+6lLIwhKarhsbqNH4xzm4o8VeiY6TQDhmGg4w3BTm8FiyTwkIMelHlYGDALXaPA8iNsNj1g8On0f7MbyX9lVNQ6MQwMWDxOm9bwy8Brg2cYMJt2iMozAK/gGamn+6QBaUWv5UGY4T1TMMy7s9jLbieSvebJEttz7TfetL3LjGnD4DRHWNBmPwHKwHixK4wdbzxbQx/E5ZN5oIODKxZ1gE6c5brmI9JKV1UWy91qsHollenX1KORDpGZKoKa/p7PaORVkaIarvKsGqsyVkPbUqrUjRc0R6TX5ecWldfi3n0ydcfdMnnPfVLcf0jSTEkubONPZVQhjWyQdG+/FFn3OnpcDeiMVqkOWzWtSQ2gOyqNGLzuFZI/6zzp23W1DFxyreQ3nqP3rtR203JNVKt1wx/GClEFb5hnDLBMYHxvxX+fv0xbIVdE50QXPiinUwnZQ7HiNEZV0IAyUNDIHYYaA8a5xcB18uK82yv02oHxCiPGeAZRx1MzUI6lOKCt3IsDwixLfSbjDDVg1rEcMWB4HzYHHBcYJ6bBzEj58A2YKaCwHeHnQwFa1GNtCJbDea7zTAgPZiOYtIt8dk8rMIDwUJiSQ8HTLmuTlYNCQEFTl3k2ccCgRZgG+uM9ZmAgMmErM8bWpgsZSERnjRI7mmxO3W9bK9B242PwCPiNIsApYuqK1xWxxR+nw+718y8GywdfiOyRIVNuQVrtL3fUa2wlZ40pXc5ItaDRFkYsRYTL2phGYyk1bGrcqgVV9mq8SjPzwhecee4rpYljraK0lonAFr65RdmtsEAzuxfLYxMy++CjMnn7nTKzZ69UVGZ4MLnGQ9NqnNLZbulds05SeiyMTUl5fEZqReRPHRk1WCTW61IZNb55VeyDayW/7WLpu+Aq6T/3BZIdHNYyFmQGkt2PuqKanZuV/Qf2OwOGM2fOQ1gYf3Fu2J0K/3G2wvZdFJhM0LfoijBy2AiUgQEjIYPNaLXzjFub1WEsc0+curkHvcYUKDrD5xXX4rYnCMqD5mbtWgzQAH+hi3GEMwLNpwodjcBs+hDm0NAoDLK8KHx266GQg5YdRvkGzBC1Y6EPw4HQMSD9+82IILxsJ7fNG7QrDCjL2g6dCCPz2BgEFLzPE+pi2oEtuxhH41sUWHkYHl+YovA+CO61BE3+34slg/3Nvc2SD+OZ7zGjBOALhovPuRCBoRyAX1cYkJ/yiX6RLTNgxusgz/2/aumURlkavahNmpsoyJwaqeJUScoTKucFbUstJ4X5lEY+ZamwG1Cbpq2pGwHapIc0RmhqWiqFeS2QCyGheSszszJx/8MyfifPe+2W9MycZPQ8bSopH2v5LskPrJSeXJ9k1WilZsqysntQVvYNS1/vGunvWS39vZr6eD/eenVyNsnAig1S6x2WSu8qqfUMqnGzcXaSOGPx8WPH3dovYwBnAtB/rfrAeGr5GAtsDgqO204kK4s+pT7GdjtTebTPIrDFDJiB/OgH9B88snqNtlawfNCPbDILYo/ZdBq0BZ0Hja3aFYRPpznMcR9r6RTaMmDWIBjBVBgdaB0etvN8cI9vwEwgDfzNQOAaTItSh18OAofBRdA5+gqVMsnLebbN4/UjlHGmrYhMeHCQnVcMXuDTTFlmwJiqiArupzwEHeNlEV4UGoMI3tuKx+S3FAT3NkuAexhIKAv4zVSVveWfz5b/13/9l/uYHxEwCol8cWGDDtlCxoyG1lB6iWi7e4hJ3KaIyvi0FA+NSmWyoMKU1ShMozNEqKTOkLKBfAyttEZvVe1XngMrHh+XymzIzU0LvKxMTkvhiX0yfvtdMvPAI1Id5XkyeK1ZUhpl6FjIDa+WDOteB4/L9L6jMndM75mqyNy0KtWpqhQma2p49fckqSIzYyWZGVcDzBtDRKMUnETHioX+8/qRHbKHDh+SRx951PE/ysxKUB64n7HEDkYe1aCvma1pJ1GGlYPu4flMXmHHq9BwPP0lgiiAdmSNFMaA2YyObfqIGqUC5JGxS6Rq7wmNMqMRBug52hO2Xc0APYwlt+auBszoPBWIbcCs8TQGZrA7D2GK6vVY53A0D8RC52DHcZ3zMC+4lhQFdCTCDc0YMd84WXuYDmDjBlOIYXciGSgDOpl6Y9eVbRcOwgTfph1A2DaRz5IJE3xr1xsK1u/XY8nQjBech1+0j3ZhnBk0KEAMFXxH6eAYoMxYW2F9i00CbNPmFUVEXf/5n//p3jtJJBzXeBm98IU+gEf+5qDm/Vm/T1ssaZW1TH+fe7dgSo1Uja8zHz4u1ak5HUAZqeXyzqDwgDDFuQSvNLLhsyqFo8elPD5ZfxOGYlEJWqCH6UE2aszc+5BMsuNw7z5JzddlpKJ1VbM56V4zLF3quNTUUE7s3S+TTx2S2WNTMnV8VtOcTOtxhnRsTqaOzMjEoSmZODIt0+PzbqdiSstQBrkyDT5t8/MF2f/MfrdxwxSz3/+t4POWZwzpWz54yUPQjK1OJGSGI04P5X73u991LxjG+Qw7axIEdCOzyC5tbi4jdZAH3YdcI6et8gdhPGWKm+iLHcs4pJ1eW4Iu9B58CbO21wzQxVgiAvPpjFteO0hppbFqtdvoPJQRX2HFY+ZBR5QUCFM0nUc+jnQgn8/g3WbMAcMkK4Pr1IWQfP7zn5fPfOYzJ94EwDU/imoGi+jM03nXu97l3qHGOg4GkWvkYbchX1P92Mc+5tqDMTMhW6xNloeyMFq0hXe78ZYAK9/yQC9K4T/+4z/k3/7t39w7CBH+qG1BMRPd0Zbf//3fd0YT4wmsrrgIttWnv1HZXKePfKPFEafG/sZhMG+VQY9njueMEYfPXCMPvGGwURb8CNISFtDJvazR8YjA3//937tn8XCUrMxmfOJ6tabRuhqQie//RI5/76dSUWPEm9xr+ZwMnrNVejaul6MHDkp530FJHxuVGs+WYcw0ZfFMe7slt3WzrPn9d8jAVZdIz1knnwF8Dhboqarx4vmtyR/fLmPf+ZGM33WPVDUac19+ril/+ZL06iE566ILpZJJyeTxUZnd/ZhUNcJzTaEYV5YmXFQ9l9LQkPZk1g5L78UXyMg73y79F54n+TWr6xmA3gyv4Qd8Z90XJ+Jzn/ucW/+ysRanL5B/xrMtAbTjgDYCdCNj6AdkCxmKKjfWNhQyNDKm0EXsIGZzEtcYdwYrG/33gx/8wDldHP3xG6Z+G8s4of7roqDHUjswGuAPDiM656abbjqx4cTa3YpWo5N+5G1CvJMR/eavubdLa1TEjsAMZlRQPqS4c6swh0iC6Z1mO1vIh8JGuMhj0UbY+iwfAmYRGIk2GKCfTmbRmuksBgLg3rD10A62kzN1iKE0Ov3OpR6bBglOY0YBfGNwwY/gGkOnYfRDOzRjdNjazhoJ/GKdCg/7hz/8ofscy1e+8hWnAP/93//dGel//dd/lU9/+tNuADHYcXq+853vuHuYJsRrJuK190Ji8KIqoWaAR/CH6CvsJhfaS8p0d0l2gK30ObcmVmN3YVEHvpKV0bLSmtxUnCMTZaAH/aeifIJ+nuPKqIylQ/Qx9/JaqLmHHpPJ3z4gk4/skdq0Giaiu4Wyc4MD0ruet9z3SGl6RgoHDkl1Tp0fzZNSUU4pfWlLei5TVhr0PFFbXr37gUsukp4tZ7mpR+h1WOhb62OUHf1A5ESkjKJrB/QlfUp5RHRsy2ddrVOJ8ijX3iTDmI4rNzamSBha/g7CyuaIYWcZgHptHHM+TP3wm3ym11h2aKb/2gU8MQeR/vDpC0Or5SEAYLkCXb0UdEZBbANmjfENGPPQKLcosAEDI1AueGgcfcZYHqdMFvJZJ4dhfBDcgwGjM82AmSBxniktpiZs3cXqDwM6l7CaCJIHgPH8bQD45cAnFAMGzDa+xAFlWzjfSYHy+cpvFBqCTx+j2Ih+WW/gwVa+B8XUDetVGK0vf/nL8sUvfvGE9/7Zz37WRcxmuL7+9a+7T8/zwUymfzBaGEMbWOZQROF7KyAzrCvAK9/It6qD61mNaHN6vzNg5MeA8XyVsohpQta66hsh8FDr5WHkXJ9q/6QyaamqrNV47tDtUGwss5zFMJaOjcnMXffJ9AO73QuB+eAkU5luR6PKV/fqVdK/bq3Ml0syd3xMykSFZcxbWtIa+aWVxnrS3/of73NMd2kb1q2T/osukBVXXCb5tWv0XH7B5j6XB4XCvDzxxJOur/0p9HaB3NPHjLNOJsYQ5VI+8tqO7DCGMCbIDLMZQQNmY4M6kFXqx4AR+fnjphWMRu7BUKI3MGCM407CaII3OBHoPHgVt0/RcUzFo6vhDe1oh9/toCMRGIYAxUYHmvIJC2MuSgWrTicSwTRiCOdgHoJFvrjRBh2HwNOR5q0BlDRTJSwAM3UYdg7dOpC2MA3AlAPPcRB92fUg8GhR2vCNeowPdgwLeEBkgdDDm0Z1hQV1W/LbhLDj2fI2EiKrm266yUVTTLH+8z//s/zTP/2TfOITn3AGC+N0yy23uPUIPGOiWAw1vKad8JiBRB9YW60uS4Brfp52AX/oD7xqM/JWV1O4uonAuiWrUY+GbhqB6ZDhvBoTpvoqapCcUdPz7prmdy+e1+upFJ9Tz0hlviRH73tQJh99Qg3ZlBq/hTHitc14Pj86LhMP75HRu+6VwlP7Jc1nWyiTPNm0ZIdXSd/IsPRo9DWhkdfskWOSLmh0tFAWU55V/a2cc6lI6lLDqwZr5JorZPXVV0jPzu2S1qgS+BwwGhgPU1OTbl3ywIGDz1J07fSHlb+UydAOnZSDnKCHiNatXL98g2/AkPGosDIxmMgna2BmwBrVFwdWDrSanmZMG4/C8op8GCyMOgYMOn3j3il6oyCWAfMbjDKCKXjP/AY0JIoAkRfli4eMAUBwjDFBpqB8iGrIZwYsSgcAyjTBg25+M0gRQCICpiNsOhSEKZ8yoYe1L4wX62p0sF+nD8pmDhrexRUmku8NtRN9+fXCC6YIiURZeP/qV7/q1jdZe7z55ptPTPvBK6YPMVKsY9Ee+GYL2vDXvGIzRn4CQb6ARufaAbIEf2x3a6jyjT6SDtjUikGpqNKvallcIRU1SinMzEpO+z2T71IDk+OlF86gualGzVSeL0rh+LjMPbpX5vY85TZm8JzYCX5zXEhMHc4+vk/G7rrfHcsT0zDDvTSeepky7NqySVJ9PVIaG5fSQS1rUqM6V5TeX6+dP5xBZfMJ0VrP9q3Sf/klMnDtVdKN8SKapDzyLfDiBD0KnCscO9Zljx07+qxr7cL6fqlSu0A2kBd/CnExeYFX6BBma4hU44KZAXb0MZYxZoB6OzkWTFfTtziShih8gzeMIehED59qRDZgfmP5TQeitKzz4jLcIjAMUzBs98tESROBBdd7otZLfiICQmo6E/qJMuwzEX5UtBisXo7QxbShfXMH4bdrQcA3hB5vyBemsIA2yqWO4LNNjepbDNZOjAzthi54wPTg1772NRdxYcCIrtjhRSTGdbxOf3rJ6vZpWOxvOwegwee3fy0O/PuRGfhDn5hHHaZvDSk1XKmBfqnqwK3lss5UKPdlXg3Y3NSMltklOVV2NS27qmXXjVjaHUuFokZVE1Lad1jmnzogcwcOn3yxr49yRUrHxmVGo68JNWDzh0fdS3jZDFKuaVu0n3NDK6V74zqpaB1TBw9L9fiYiBrIeuR3ErSMB7Cz3T3OgA2o0Rq84hLpvuRCybJ2ls08y3gFwZoOTsj+/fX1pP8L8OURecGgYEh8Z7oR4BVjGD3C77jAWKLTWAqwTVidhhkwc9qjwHiDzoU3BBvoOxAcu8uJyAbMQKfCBBQYnnc74TMgksCAoWj4bQzx89g5GMgUYrtTZtBsc9csAN96663OgDHvHxZWP4aEhw/Z4Waf8w8C+i0/BgyhJ0qJCiuDgUY96zc899mmsHwxnnKEJgwTEda//Mu/yCc/+Um30YIdmSy+09fko+99Y0nifKPkR14G/z4ry8rz7+0EKNMMmD0nByKVr4M2pXzOqBFL5bvVQGikW0tLcbaoBmzWvbqrq0+95p5uNWCsg6nx4svIJNUTfMG5Ml2QuaOjMqURWEX5HAQPOU8//JhM37tbinueliqvokplhO+QYcCyQ2qINm+SnlzevW1j9MARN4WpDaxPYS7Q5KYudVi7N4jkGR9pyamn3L1hnWRWrnDToEqgu68ZGBdE1DbV1Cn4/X6qk8H/234jL+gXEkYM2bTrQWAMWApgxgIDERUmh+g0nPc4DlYrGN3QR9+2Y2jRc0ReGFqM+6lGbAMGiBzoQAwYx7iAwVj2lephopAbCQqw88ZEhMsUUlQgIKzNsFmDKIPNB2xGwHgRhViexWCCZgqSl/XyyigEkXOWB/hl+V6b1RUHZsDWrV0nA6zRRITRhJLCkPPWC6IsjBbGnAdPGZwIPXmC04DA/+2DdpPMMPnwy6BMK5d89C1tYkAjE8F7o4L6kRP6ByNv/QIW792TIGLJqHHqXjUkGaWrllbDokOnpJFUsVhSGeySjNJdn0LMCN/l4jpv8MCYqVVzRqw0OStFjcb41IlfeW1uXkoHjsnxe3bL9OP7nLEjfKuqMaIMDGd+7bDb8j5/XPtCDWF5mhkCvVf5o9m0OGSRezSlU1LuzktxaIVUt58luR1nS8/mjZLWNohe0xbVK/Zg/QVwVIjCca7MU2/Ux2Fg5ZL8fj9VyWBt9c/bb4wI0XqrjWKcJ0JF/8ErM2DN8gdBPuigPowlMyn8XgowfqEVvdOOzmFcMtXZju7tJGIZMOsgDJh1YFwDRlkICYvSKJkwVp1OhoEoJD+/CeVioD6jn3Ca7d/smsOI8QQ/7UGhhikLUBY08PAhDy3zHBZKeLH7EXZbK2rHG0KA4IMTKCIAhd++xWD5GHT0HzsK2UWIAWN9i/UvDFeQF3afpUaw/ByDv+lr6IZH8I0BgTPCAEZp8Mwc07DwkWkKi2StnKigPhQRCV6ZN22UN+WUX19GI8TebukZXu12I1bVgDFVWFZrUSkzzadGMaPGi4QBc6luwPjtIjLNVp4pSHl8Sqq8UsoZhnodZY2oZvfsk7F7H5UZNWR88oRrynmpqvHs1nq71HhV1QBNHzwq88fG3QPVznIR8WG8+A+aNfJi7SulzmDqrI2SvWyXdF2wU7qYOnQRWWs+zmo0gWya09IugjJwqhLwZdbO+XmQR+SOV7/hiAZh95OX3+gLnD+MQhRe+XUyDhjDGLBOGgV/jJrOaTXVCT2LgWlDG5e+M9jqvqVC2xGYGTCUHfAFJCxQLGtH1srqVfUNHK1gips54zgKzmhEeUM3ypr1L1PYIEo76q+MusI93IcSbgYrEw/X30IP4vCNtqP4MfxR5s2tLrxrPG22s7PFna3tbGmHL8ZP8sITjovRSH5Llpf77F6A0cLpYACw2QUjxcPF1157rfsQJg9F8nAkn2jhky2vfvWrnUFrB8gKfYKsIFuLTQc9Bwt5iMAwYBgRdiPW0llnnPQfZWJNioVi/Wv9GoG56EzrYA2sHoXVDZFbE5svu40Z5TGVM4yY5qhWyjK976Acv/shmXlyv1Q0ShMMpEZtZcrq75OhszZJVvt6enRcppmC1Ogry/QivNaylUI96m0aseZxCNavk3UXnCubr71S1l/3Qunfuc09UJ1aaLu7xYPfr/yeVZmcUE+d8c3foXjVBCYHAN6j9Ej8PhXJl0+S0YVTjHJmBuUVr3iFc0YZ16BR+61dRDRMtzL9Tr6wvLJ81I3RZHq70wYMWBtN52DEFtM5wXNGp53H2WQ8+QYsbJuXApHfxGHZIZrdZ0w1/cM//MMJxRcWPmOIXph++8hHPuLeWI2y8esB/t90BmtWbOOmfgwQgkAeyxcWVj6Iei8diFJG4N/+9rfLK1/5Sue1WZnBsknQyfZkPsvOVnR2ekWNwiiXsvAS+dQJ3+KyT7VYG/y6fdh1lBMCjfHi7QHwkb85b7C8UUD7MKYoA5vmZYCSMLSWuG6JPP5vDA10EBEzncmD0VFhPCLyevnLX+7eivKa17zG0XaCN3pszCUPCzwoT0zJxO13y+Fv3CKjP/6V1OYrUs5oRDnYL+vO2+l+z4xPuN2D7qFiMyzQgXkpliW7cUQGLr9Atrz7DTKwa4dkhgbctvmjt9whh759q0zes9t9tFKLcg8j1wZ7pHvDsGy+8FyZn5mWsaf2SWHv0yJqMDNqELGglE5SbSrZrrwa2H7Jr18jAy+4UFZee7n0XnOZ1rPCrYk1g9/PNS0HeeA5vu+pQ4PH7s7HkAV4jcNiH6dF6SEfIE557QKDYzuOfaOK0UDmkEu+voAOwrGCdtsoZjJjdHPEaMEnHtRnJod1MPJZ2YvB9BWGE2eON368//3vd/ojWGdcUD6JulgOYAMWOgd9GXYa0cYRoJwbb7xR3vGOd8gb3vAGp6fbpbFdxDZggC3UPPPzj//4j+75qSig4dbZfLaDD93x8USmj1B21OMzx+rlHAqf9+PxVgfWrXiDgwlExOacoMPuC3O/0YXw+a+k8l8ZBT0+/AHDLr5vfetbTvCZfogKo5eHpYlciFpQEgg+542+IPy2sbbFs248aIyh4I0adh/5/LzNYPk5YsxRUBghBiF8wYMl2uJvWxRHkaEoMG7k5R4UiPUffKI8lAHb9D/1qU85JeG3Kyxt5GNqBueCj23yHTO/X6y8xYBC14xSZYv7g4/JgZu/L4e//RORmaJ73irV0yUDWzZJbs2QGiuRiXt3S2liYWs7UZiec9SWK5LRPH0X7ZCt73ydrLjsfEmrAZt8+Ak58M2fyZHv3i6VI7ysV6PftJarN3WdNSK92zfJ8Lq1Mvn4Xjn+4G6RuVnRy0qStqN2Ir5zBi/bpXwc1LGzYUSG1HgNv+yFMnDJBZIe4D2czaMDn59MiX7jG1+Xz930OfnFL25zsxLcF0YpA6sDPiMDPBPJ17rt+Sauh+F7p2GyhQHD0fbHI+MYOUROkVkiDM5Bpy93wHjF/TjS9io49BF6ibxheGXyjuHEaKL73vve9z7LwWqXT5RPoi7eFck7RtE5RIzWjlbweYB+ectb3uJeWcd3ABnDludUIZIB87Pym91pKGI6EUVsjQ0D8pLobBQxXwI2RWyhqQ8rl3sQQDZb8FwS9UOHCUTY+tuB1cWAJALCu8eQ+B6mdarRY0eus1mC56mILgjpQRi6ff7yG6P/tre9Td761re6KQirsxH88uE5kRfrfrxBg77DmwzSuhj8uhBsDAVeKzswMeSmCPDSGJTkoV/tSIIXJL8saONv1lTZEcobPOCT5QlDGyA/eZmW+cM//EPnMfJ8Hue45te5GMyA8YaM+acPqQH7gRz46i1SOTbhPlSZymela92I9O3YLLkVAzJ2+281qpqs7xBkw4T+T521Uk0ywyulb9d22fau18qKy8/XEKVLDn7zVjn0w1/J+J0PSYo+oD4VoUw+I8Mapa3YuUXGjx6T2T1PSekpdsfy1hhtAwUreC+jSuPCWoCe79Yo7OwNMvyGG2XN62+Unk1r3auuQKM2w03Hk/qfbmwhm/AdRwslzX1hlLKVT58SSeOtv+lNb3IGDKeFPg/L96WC6wtNPqAJmpFNDBcOVTM67V5mCBg36D6cQH8aMYoBw4mDP0RfjGVoMLTLK2srdTHeGUf0LcsGdr0VoMHKYBy/+93vlg996ENuqhV9Z9dOFWLXTGcxvcD6F7/bAYzAMyd6sY4NwjrTZyYePfcuJ6xDqR/leMUVV7jpu0bGy4edQ/BZN2T9y3Z4Ncq/GMiPMsCAmrcIGvEtCOrHW8Qj4/2D7UwbQgf1MwCZVsCQYygw6vb1XRwSjCt9Bb1E1/AOJdFIofE3Cd6wvmCPGQTztQLtoHw8XJu+0kLq19y/4eDo4ah9m+3XaHF4SLK8AFfp57VRbLhgNyJxUJpXTWU0Ck4tbOLQ6+xIdBs5JOt+w16iq/LMvMweGpXx3Xtldv8xqcyXMT8uYpNcRvKbRiQ/NKhGreo2dsyPThFw6f2UQUIOaYseSfo3L5xio8fAOVulf9tZkl+zSlILCnEx/gWvoIBNNqPA6kAJ0+e8D5SvdRN94cjY9PGpTMiCzQZY4pzJ5mLGy0dZDT2GwNaxbdyEHT/kI1EfYwjalsoQoJ+JpNm0Bt0g6niCNlsGgFeMrdMBsTgG42EKnWcGLCpDDMYYhIjOBM2EgDq4xpG8MHM5DZi1ERqom00IKGoGaLMO9fnCfUwzoJh9YYoKykRJQEOUZ5u4ztQcr8pieo51RHvOh2ut7gfWHtpLnxF1vf71r3eeGcYLhQVfGJR44TYow5QNKJ+80IWCIAKIAu43GnGI8HChE0NmPXGyRzxA3mIkajsyfWp4R4Ykv2GN+4SK+w6YllbRaAul74rgPLsRnZGpGzLiI5dom+bhS83FiRmZeOqgTDy+XwrH2fla07x6v9bDdveeLRvcGzcKGs3NH1JZYdu8G66US9JWaDpRNr/VMeBt8ysu3eWMWH6w3xneZ7U30M5GvKCroCdklz0HyCNySSRu0+oGk7PTNRmNrcDY9Tdiuf4PcZ+BvMgpzieOsBkwk9124bfFdA60QnccoG8YRyT09VIZ26iIRIUxhc7Ca0cJW+gMwjLfz0cH0nl4aH743Apm+GxwGG2dEoAgrFw7MjDZPcccP16cCWSj+o02vFqiLxQzU4cmTHY9LKiDdjMHjUC14pvRRn30GZEXDyxbdAPC0mD5MAw2fcoaE9EW5wB5bEAbT2xwNksGfiNbDDg2CTHoosLKQz5Yg6N/iPqAX1ckpJXO3h7JaVTDJomqyi3PW/HgcrlUkeJMQUqz85IbUKOt+dw3u1gD0yHmojFNFU1lPZdWA0T0dezhvTJzUKOvOXUA0xkpqtFgWrF79ZAMrl3jyj2+76BUpubcbkd7/qye6sbLGTSN8LQEya0dkcGLL5CBi8/X3wsfUHX/hgd9hpwSVYaViSDgMfKJIQv2LQlZWKoUtX99muzeMGWg81hHZizjFCLvYWHl4wQioxgwohrOG8/D0LAYrBzoYjqecd+OzqEvcUpZJ8QZhF+gXTrbRSwzygtD8TpQxqS4Vh0m4KWjYGCMRTFhmEJe7iUCswhkOUC9KMWLLrrI7ZyE9rCGF8WAMCFIJkxxlAT1US/Jj3IawS8fY4Dh4iW7zN9DT5z6qZfpIba5E3Gx3kU/QBd9ZykuMKwoB3a2MvBAHDrhjW0iYdAtCshtRLK2w2rmrfLZlYNqwEYko+2tZdSIqTEqsyNxcl6qs2XpWrVSUgN9UsK4aYEnkxr1nMqJKvZ0qSbFQ+MytWe/FCcLUi1rDWqcytqPuVVqvDatl3Q1JXMafU0eHZUqe/R1qFKOGTAX2WEka1q23pdWw9m3c6usuuoSyZ+l9/f1wrQFwr2GNWunB5RetcqYPsnzKN1JXxFBN5LvpVR4Vpcvg62S5bej/W4F2obxYmrOplu5N4qcMl4wYBgG2xDRaUAbNEKrzfrEGUvQCp0EGr4BO9WIZ8Aq9RffklA2UbwPYEKCMaDjYEoUQwBgIB4/yRgap2OiAk/+nHPOcc98sZBpnn0YwCcMPoJk4XzYAeMDPjFFE/SGmsH4glHgRcVsoyXCAVwLyzdopS6mTFn3eslLXuJen+U7EOTxUxxg5Hkuj52Rto0bRO1fDJitv/n9FJWuE7n1Prapd69bIzm2pmuZvOapXFQDNqMGbE4NmJ5PD/RKSfNalMTalAZQkmKbuxqWmuYvHhqTub2HXfTlpv9SGVdeNx+cVAPJTsbZo+NSmJypl0M0R74FA2brbLwXsar8z29WJXjxubLyBRdKdliNaNfCWIrRB2k1vkGZasV6n6fIOVEJTm5cJykqrA7qJjqibmhgChp5ssTfJKOPvFH1F3UxS8AYppy4ss64QX+xAQpDthQwA2Y6h7/j0uqPpThlLAUiGTAjmk5n/hflQkea8EQVVAwYoTMGDGUcxYBxL50PQ5lG4++lBG2j/ShFdk2y9dWvN0yHYrDgGcaDeemo/DJYOB/0hprRYOeJ+ohqqJ8+5HwYGux+jtRN26+77jo38Ogz443liwqjweiBToysyVdcEBUiV8gJU9VGZxzYXbn+HundsEZ6N2+UzMCg8EKMilqnqkZVas0k29Mr6Xx3PUJi44alikZXvf0uQpvVNs2yrvX0sfqHJvVW1seG1o5I78gqKanxGXvmiBSOTUq6ogYKvth0JOtfbtjWoy9JZ50xHXzhpdJ/+S7Jb1nvdkY6xGgrsoSCgmdxxxQGAccWQ2HrQ0sF+tTkh3qok2UN1nd5NovNSuxS9hOvj+MREh4Dwqnzp9IXg8kPY4d6cEZtDTkOkE/014oVg89aJ+wkMFiMI1LUqU5gvGWco2+QC38MxR1PnUIkA2agA9m8gVWnA30higIzYKyBtZoKMxjDzIChoMz4LRUzrVyiRSIOps1YA0OZt6rT5wsGDOWMJ+gLUlTe0VamxjCgCL7R0IwW6sILY2DzUl6UStz+oq/YWcjnYsIYzyhgsDHIMF4oGONT3LLxalEQGK+26LN7lWfZ3h7pGVktfWdvkMyqFVLR9rsoq6yeP5EYfM1lJdPFi301SrKoSWUl298neTVi05OzMnV8SuYn1Ykpa/9of1YHemRgw1rJ5bukMDolMxp9lTSq43kvIjA3fciU4YmpSa1T78uftU5WXH2RDF/7AunbtslFeTx/FhfwCcVKP5sBCyMrfh76DKOAx8/UFXK/FPDrpB5eh8ZjNTw3yCM2N910k9vi3izx/Tq2lmPoMEjQTZmN2uufo20W0cQdSwB9giOKnEZx3qPA1zmML0MUmqGNsY6+QTaQkbht7jQiSzrEY8BYQ6ED/QgsKhggMAUjFjUsRXFi9CwCMwFoS1E1AOWRqA9hY+2LJ/X5bWhWp/GF6/wm6iJyRZjsfBxgOIl+UDL8bgarH8Glr3h2jkT/xekzeEy9tH316vgfFA3CaIEujCxvKmGdDuVg/A9Dr/GTvL6DY3TGafMJQIMe0l05yavh6t26QfJrV9Xf7q6GqlyqSmFuXgo8G6Z90qV1VzNZqagBw9ikNHLLE9Xke2RidFqmJ5i+YrOLltvTJZnVK6Rv3bB2lsj0M8ekMD6rUV1F0lp23YCp8cKYKR3uky3aPgxo/8U7ZPj6K2Xo0vOlWw2rI9X7F5rDtNr4TLJxFbV/jb/miODkMhXcThTdDH5dzCggM7yxBePFp3++9KUvuWeeeEk3RspPnOMaib+JyHDwTME3kxM7T9swmGbAANea3dcI8Bm9x8PePRq1m7MATI7bAWVAT3A3b9iyyWd5cZKhFT2LITudEMmAWYOw6ggnghMnkrB8pohRNMDOh2EyBgVmci8pTPQWFT4ddCJrX1e/8Go3F8zf0BuGVvIwiBkk8M0MWFQYf1As5g2BZny38/QXUwgYB3toOQ7oLwYcfdbd3Znoy+chni0Pz+IRm6EFzdrXDObcYLyY9jBF3A6dPtLdOendtl56t6yTLjUiqn1kvlDUyGpGZucKkldnbGiNGqNsTopKeimtxmZYnY0htkp3ydEDYzI9VZSUGrOy0pQb7Nfoa417zmx2fFrG9h7SyAy+MP0IzcpnzYchK1VVKWkUVhnql7VX7pINL71aVr/wUsmuGtT6mn/nazEe+nyBd4wn+tii+7D8t3wW8bOGyTQdjhvgetS+9GH3k4wu6rn99tudMSLq4q0y9Q9x1r9RSN2MPUsodM5hhBgTyBmGKIpTx704ohiGsNOPwOczvzEKOIM2k2HtahdWDm0yncMxKowW5KHutNa/1Xg6IbLWx0uh00xArNOjMJ578DgInZkKMwMWpgw/D4qJzkdZ+R5Mp4HiZqfdhbsulEsuvsTVF6W9wAwYBiSOMBkQICKvKN4QfYbRZM6+nWk5BhlGs6en/maNOGX48BUGyoT3tfFORtYv/DVCP18Y+NGXH4G1C/VJ3X/pfFZ6z1or/ds2SO/GNSogXVLUaKkwOy8l3nmY75ZeVU4VpYMX8irTpG/rRsmtHNIorSZjh9lIUJSKGrhUb7f0r1klg2rwJienZOr4uJTZmahNrm/DX9isoZFapZZ262v9m9fLGjVewzdcKYOX7Kw/sMy6l3aHPWtmsB6K0lcWGTA+o44r6ytkjuiLaT1bdzUayOOnRgjm8fMhv0Q+jz32mHunKF9Q4OOrGEzGFrKD8iZfMFEOR+hDLlgSYFOS7wS34hUGDP1HXYxr4NMXBvCVcYxhsBcRdAI+HaZzfKc5Kp0AObANHKZz2h37nUIoA0ajreEwBWagcCx8jtIYy0unMQfMMxBmwKIAehA4M2AmfJ0G9FIHzzldtOuiEy/NjQr4hgGJI0zQYHxDmPCOfWFqBQYszgYDDzriCLGhrgji328wGigPhYPXjCeNB43ii0Oj8QhZQLYwXhj6Tjs3aY10ukZWSv/W9Zo2uW3zlVRGlWbVbalPZXKS69Vzmq+S75J0/4Dk1VErpfPOeE0enZW5gipRdiWuHpT+kdXSO9Avo4fUKTw24V47xdqZ272oyW0I0fGSXtGnhnO9DF9+oWy84WpZee0l0nX2ekl11ddirf1BhBmd8Nt4buuc8M5kvVnZi4EohbVMnju0dwWaEfH7N9jXwWukutxVXQTFOKK8X/ziF8548fJh3+nxeWG//XMAp5TonN20PMuJ0Q4rJ7YGhv7DEPrltoLRgfGkTgyDOVhBPrSLRgYMRKkHWus657lfi47S7qVCZK2PIiR09r2POGBgmAeCsomL4I6pTgkBnWODATrtoWU6M6ynBoweG3gMapuP5lpYeq0ujHVwa3grOiwCY4ADyx+VV3i1RJB4nwxeFAqwdkRJBmQIz5k3ZaOMeHjZHCPg5w0LZAGZgkf0XaciMN8SpNIp6d0wIisv2im5zRslpdFVLdctpbmKlPkCs8pItVuNTp9G6z0rZHoyJU89clgeuXuPzI3Nq1HKiQz2S/85GyS3akBKMyWZ3j8qhXE2BajRwoipkauqQVSBk/zGYRm8dpdsePcrZNM7b5SRG66QnpFVktHIKwWPFvqUfxeXhtZAxojAeEs6/IsK+gwZw2FiQw7fmaN/+U1/cy2YDHavJcYaid+MIZwb3pH52c9+1m3E4GXiyCPT5OQx+fINpSVgeRhDrGXzUlqiMN8BJo8P/15Au5h2pE4QzN8Mlo8j+g8D1lH5XIDRawbM1zlxwKzL6tX1HYgYfsoP2+alRiwDxtZTlLEZMGNYK/iNtgiMaAKjEBcocQQBJqO4wtKyGHw6oY/nvXhJLdOIUb15K8u8NoTf1nbioFE4HwbUiSFrB/Q3CoSHoVFGKJS4YPCzJseaFwruJz/5iSsX/viGMQ7MgDHgOu4xUgTlaOoeXikrztsivedsluy6tWqwBmROWVLAAA30uOnF7Kohma9k5NDTo3L46eMyeWxa267tUvnPr1whKzavd2/tOLb/iBQmZvW3lr+iR9JrV0pu24j0X7JV1l9/uZz9qhfJ1pdfK6svPU96t6x3Ro+pTPdW+g60y3gDz1GuRK84bEzx2/moQN7QF0wN89UINkzQz0RlfL2C8cC4IB/lWx30P7JmuoYpSLbDE2nx8Vk2aVAeGzeYCUK27X6/HB/WPgwVY4gxzWd2mFlBfxiCMuKXxW/opU5oNwMWFlYWBstmB3yHuFPwdQ6GFuc1qq42kB8aobft3bxLgMicgxkIVTACC8sYYwCDxLxk24wQByhxykBZ2VxyJ5hMGShCvNArr7zSfeYFgTNEqQPewDciV5R+VCEyUCfCxNQHg86md0AresyLbQcMWLw5HobmeRqMmcmBGR1APcG6aDOKBgPF4EeBoZR4Gz5vxec3g82MbFweAfoNz5ZIotPerY/8il7pP3utrDh3i+Q3rJVSvk+m1YDN6bCqDvRK76Z1klYZn56rypFnjsvEsal6dKYGLtPbI92rV0rv0CqViYocO3RcauW05AYGpWvTiPTt3CwrLtshq190kay78SpZ++LLZNWundI1vErSGGX4C4tbdClcDMtJ6zP4h3yh5FkfQs6sT4P92gz0HwmZQe6RF9sFyG7BX/3qV+4zSBgnHu3AmSGxqQLZICrHoWENjTepIycYL3YZfvOb33T3Ii+GxeTFaOaIjmBM8xYdPq9DpNlsJiNYps1kIL9+BBYFlIlM4hhjFNB9nTZggHpwAOC9TXWGhfGBMswZRMfaWFqM18uN0Jwzon0DhkKisVEaZHnpOBQxCrkdJYMBw7Aw4HxvOy58YYc2PDSe+0LYoBP6g4LeCD5P4BNeG3PR/AZhymgEa695Q2Ho4Tq8IfyPA78tGCoM2Fe/+lWnjFi3wpDZlKJPC7+NRowcUz0PPPiA/OCHP3Cf6+BbX2xpZqca8mR5/fqiwO6jn+gvDNhSwdWVTTsjtv78be7tGTNK/8RUSY2YGuucOhf9g2rMMjI+VZByqSbpKk4E70PUKGdlv/SvXS0zc2VVNGUpV7ukb2SDjOw8V8669FI55+or5Rx1nDZcuEsqfQOy//ioPKxR76j3EPpSwHiIvPDAOo4bEb/JTtR6KY97UKasc/JNKqb/+BjtJz7xiRPpk5/8pPvYIkc79/GPf9wlznEPGzYow3cCOdrvRvDpRS5oC58+uuGGG9yu4mZOr5XJefuNfKP/kGNSXGcLXvqvODMDFqQhKnw6oI2NM+jqOIYWQBfGCzqXYjdvJxDagBnR09NEEvVPcMCwKI0xBpuHTCf6ihiELc/yMdBsusiEEUShqxEoF+PFK6MuuOACZ3DjlEm7ECA8Nt+AxQF8o514Q6ZQfKFtBruPNrTjLFAXyXYM4hXjEd90003yhS98wRk1zrEuwZoH6Xvf+54zdDw0Svr8f35ebv7yzfL973/fPX+D8WOqAx6Facti4H4GHX2HfHEE7cpCENRTLVdkdnJGJscmpZJRHg90S6a/TwqFmkxOFGV8sigFvVCqZaVMRKahEjEqDyNnevKSU8OX7uuR0SPsaCvIeDEt4+kuOVZJy8Hpouw7NCFPPnFEnnhII5IH98v00Rnpyuald7Bfcnp//auW8GtxntHyKK03XiFfTJnz3CNjwGZJ4vQR96BQcXKIXoiueM6PDTs//elP3dQgcvOd73zHHfkbGSLyIjJngwbRGXLnbwRpBWsLR+SeDVhMG/KdMsY2xoOx0Ug+OBc8TxtwtPwILA4/zJD6jihoREccQFOpVH/VVTuPzZjewHiR+Pt0Q0sD5neQ74H4Vj0M4/08dCCdxw5EBorVEacDbTEUb7uZNxUWdh8dhQLklVEs9LIjywxGVNA2jL1FYPAtCn1+XtoHXRYNhgXtgUfcS1RpZcblk0VT7C7Do8Yw8aVXvGSexcGYMd1D4m+iLb5ay3UiLpQTz3rZ4IqjBILw+w7DxcAzA9ZxKLm1SlUK03MyeXxCZtQAV7MpyalBKpdTMjlekONqcNgyz2aNVC4vNZ7dgkSN2vqG1Nka7BXUyrEDk8rLOdFb5GihIs+MTsuepw7L7oefkt33PyF7Htgrx545JlmN5EbWqdIbWSXdWs9zrRI87CwfcZSYRmSnHlNevoMYB5RNIoJiPDB1iHHCmCEPJNbH+NwP61tMLyIjRG9+dG/HxeDnZexiMJhJ4dM/LAmweSwqMGCs/WMYOPJ3GFqCgB74yXiMq1cWQ13nMOvz7M9dhaXV8pnewHj5U4inEyJNIeL9TExMamha77w4wENmIKCEzYC1A/O2icLaGWB+51IWr0pi5yGvjPKvhRUCU8q+AWP9yLyhOMIEXQgTvONvsFg5dg3BY8CwnoFXbTwPS0Mz0DaUC94x04qsa2Cc8KTZUUiy9Q4iNvs8ivEAWYAG41UnAF9wajDUQXnoVD2wja30+d4uyfd0ydzsvMzPlKTCw8fpjMxNq4I+NOZ2EWZzGY3MeCA5rZFYStK9edlwzmbpGezTcTQpRw6MyszYnFTUeM2Pz8rMkUmZOTwl81PzkunKydA5I7LzlZfI1pedL6vP0/Gi97MDsj50Sfpbm3WiZfzoHDtPvLgZpc96ETykz+LIDvdaH3A//W8yEEx2jQS4zyIvK6MZuN+APDBmXvOa18gb3/hGedGLXuScG9CqnCBwPom+iMJ84xW2HMsHTegsIkAQlY5msHI4MsZGR9tbtoBOM2AEHGe0AfO9D+tAQ9gOMOFEscAQf249CnzB4X6mN4jA/E0NcUGZeGfsOsT7RPG3A/hE1ArP/B12UYEwMfAwXmG9IeMTebkPZcQCdrueNIBPJNrDAGEakDZiqJERIjQGO3/Tfq7jecMPu5cETC4stYPFDFi7ZZ8AdGbS0tXbLSvWrJR129bLlsu2yrZrd8raizVaH+qWwrxGljpE0hmNnZQOhgtTh33rBmXFulVSq6Zk4qAaqlk1fHotxVebNURLV5X+bLes0v4a2bJe1p27UdbsWC/969Vb71PjlWnQBj2lFNV/dADGJ/oHmWOt6JWvfKX7+jjT/iZ77fLTl4NWKQx8+cHwIQes4b3iFa9w615MhfpjJwz91E0+5BwH3tb/w9IUhM0Yof/MgHUa0Ipjib7m6OvqKDC9EQwO2u33TiK0AcP7QDE1MmBhYI3maFETzDFhiioQVp4JKgMtrgHzO4QyeC4Ej5Poi3JNiP18YQGfUOITk/U3V8cVfNqJ4MOzqN4Q9yKEGDDWATD2KHoQp01BGG98HvnH4DUAH4wXja7HBe1isDUyYJ0EtOa78zKwelDWn7tBtl+zU867cZdsfuE26d+4UiraNt6PyJsxeEuGSpB0r+iVwY2qQAc0aiNK2z8hpWK1/m5D2q79lMnlpae/T4bWr5G12zbI2nM2yMBaVSBq/JRjC5XXDw3BtfbZeKIv4CFGix17fIEApw45xHFsp8+s/8OkMDA6ODI26H/GL895velNb3KRF85bFLm3usnLOMYBjfMmHe63+qDLIpqlmuJGV7OBAzoxumF5aCA/9NL3OPDoDv6OWs5yoKUBM6JNEfshNIjaKAQIhjAIiJxsiqAdUIYfgUWlyYSLDmOahHUvvE2EDdj1KLB7iE4OHT4kYxrOM5VoEVhUGhmUGH0EH/5F4ZvVxVoe63oYMtrGeeiM0z4DZdAmP3HOUvAc8Ou0PP4RxKXJIjBkaykN2AloN9S0mq5hdcq2rZYNF26WlRtWQ4hMTs3KbFGdFr2eU6M1OLJSVmiampuRw0eOqFwclumy5qnOyXRlRqZrc1LIF6XUV5H5vrJk16i3rsawe7BHDZsqXlgTv6siw/oAY8V0P0aMr2/zMVPGr99XyGOzPovbl4uBMhvVC02MDwzte97zHnnXu97l6CbyIi/X49DD2MUosM0/qgEDVid6ihkejJhtjIlDTyNYORgwIkX0NXRbP9lxMVAG+RhH6Aj0Ify0a6cbIkVgtvuG6SAfrRrmXzcjQQfigdi1dphjyh3h8CMTylys3OB1BIqpQ3ZedWqtCAFC6O0ZMB9RaKNdeEMoDvMiQRjayINQcv/FF1984u0DwXLClBUX1B8cSBgaaILnrLNw9KPLsDT5eVBS9BvTM74sLCl0FFVdm2puTaxbB36+u1fmSvNu2m/k7LWyautq6R3ul3ROo7FMSlZvWiPnXnWe7Lj8HNl+xTmy4+pz5YIXXyAXXn+RXPDyi2THdefJ+gs2Sv8wb7DPuHWvpeyfZrA+YNwSwRDJvOUtb3HR2JYtW044CdanjbDYtbgIypLpAOSbL4W/4x3vcFOH7CDmvMl6XB4ydpmSY00pTgRmR2Z0zIDZFKLxuF1YOc5pVjrR1b4BA4vV41+jX9E16EGOpytCGzAiLjwQ1jNgEEzxG2zMa5R8oLQI7f0t9O3ClDvKj/KtTP/YKNk12gItrMldc8017g0EUaOcRqBs5w0dqntDxjcfPj1+smuAwYdxRZgYjCBYTjP45SGIO3bscM/AXH755c6rhl++F2v5/fvaQbA8kg0OFCBGiwX2N7/5zfKqV73KyQaOSHDQLZYsD6AtlI9zZA5IxxFkvf5dLVelUqxImr5a2S+D61ZKbrDLTf+NbF0na3aslcH1g9KlkVjPih45+5JtctXrr5bLXn1ZPb32CrniDVdpulIuec1lct5LL5R152r/DHZrme3JYbsw3jImWFNiJ9/rXvc6N1aI6n3HMdgvnUSwbI70MfXjFBMZslb3tre9zRlZ1ryYcjfEocnkkHHMFCJruxx9+HQ1Sn4e5B5al3oKkWADg+vrnCAtwWTXALTBu+eNAYMJWHObOjRwfrFkYHoI5YKw8QwGnYjwBRkXB5TDQMKzwcPxI4tGNFnyr0MPT+ez8xBPs11Ye2g389AIkg+fjkbJ8nA/nhrGBm8Sww+i8svyMy1AOxngDHSMCMLqT98B8pPoszjJ6vPbwznqwlHAg3/ve98rH/3oR+V973ufvPvd73ZeM+cZNMDubZV8IAu0EWWLcV4SBFgPDdl8VroHeqVvVZ+s2blatr7oLNl1o/bXznWS7c/J0FkrZeNFG2TLlWfJul1rZeNl62X7ddvkwtdfKBe+cZec+9rzZdvLd8j6yzfJ0NZVku/P1w3Xs5t3ymD9iaGif3CC3v/+97spRabbcazMYfD7pR0ZshSUJRLncFRQsqxXIzsmS8wwoAv8qMvKiAvGB4aBSIwjsDb6dAWTfx3+QBfr0J3egeiDMqERXW3jmuT/bpR8oEfpZ5YbbArxdETm/ykWfjcEDaPzYQghKdNhbAfnHMKMEDVLdBgJRYLhouNQnnja/IZJhnYEzGghQiSx8wYgwEaDJeiCHo4oU2jAYL3kJS9x3hsRAYORgQPaFXyMPvPRTCEShVGu0dEqGX0YfAwrD2EiUJyHrji0cQ/30x9MY1A+0R3n6WOEnNQJwH/awQDA8PJmB/r/ZS97mVOA/OYc1/DyGNTQQZSPrDEArYxgPwYTeWgT0TPTkST60XgUh1dRoL0h1UpNCrMFyXRnZHBkUIbXD8v8XFEmx6ZkjRqltdvXyKrNqyTbm3FRWK+mnqEeyfdp+3pyku1mx2LGrXe5rfKQvLRkRwZ8pE/oK/iLDNF/wWmxZooxLmzcIK8mSxguHB5kiWiQqX8cUeQAfdCJvudeEmMDvcJb8InAcEihh3pMBu23L6/oGsYbERf0QSvTsDhx5Lc6Ogl0DhEY04joHcoPO46gFaeAtXLWDpmpYfz6NHaa3naQUgFbVMK4DMFEEbzGhbcr/OxnPzvxTBPXmhVh0RrMQ/DoQBQLHhJTfjDMyo8Du5cjdfEgJE/v820g6Avu+jOPzowTAoSws02YzsJIdIIuYPcj7DyUyUtMee0SipnBYGX79AVh9DEVgoGFPl8ptwv6lGezeKGuvZuOXVZMPZinCV+h0ej06TU6OFqCt9BtAxfhZ7BieDEuLK5jkFF4GE5kw3hFfQw4XtTK2xhQFtBh9TQD16mTusxA8tAqf1vZS42aGq9SoSTjRyfVAKWlq1ujv2JaHrxtt+x9eJ9ccuP5skGjsb6hXpmZnJVatf5OvJ5+dUYyJ8cQhtAdl4HmuPBlAGcHmeaNKrwSDBlC3vkbhw2lH0aWgLWZIwlZQj5MsdKfjE8cTqYLmZFgShxZYpzYuDV0goeURzm0gecdeYMMbxDhW2S0yaIaywuMfhJ9jOHAKKD7MLgYB85x3crvBKws3njCeyR59VZYXQ24zriFn9B5/fXXO/4yTv22nU5oacAMdBSdiIIhoiDSWWyBkPM2/0on4oGgyBBAjBmCSf5OMYR6MBYMJnvtDIMHIQM2EDha3RYZskOJxACB1k52EnxDoOAbggTfgtOJzQAt8AqeWbTEuXZhfcaRPiTigT7efIAS4u0IvCUBLw4eQi/JBqzBnAFogrfwE2GHVqY8MVpMUXLEM8b4Mr2Hl05+47PPbzNiRPr0o71jcTHQn+Y5MvjgF/3K+eUCBqlaVpmfL0k6m3bK+vATx2TPXXtl9MC4XPbqXbJu+4j0rezRSE3bo11Au900oXsllA/44Z/rnDx2CiZDgLYiR/QVzg+vmnviiSedA4KDhDFj7YjND+gQ8pvit76FF/SXGS0UPHKC3qBPkR9kiTVS5Im+DsqSL0f+704AOv3IhrFsr0CzNvg8sXGBXDImzPiiZ5DNTtPnA3roC/Q0Ywiaje8+jQajBXrhJ3qaKBd6oZ+2nK4IbcAMKDI6Eu/dZ0iwQzhvQgoDYAzMMM9jKUBd0ETnQR+dZsJlA4Mj9ZPoMOgh2bWlQpBvYQA9GAWSr/A7Ab/b+Q1tGFeEnsGJwkEZoXQYqCRotz6FFuiDh2a4GJgYWQYrxgrlw4BletCMbzMe+22DV/SdGU/rw2agTPgDDSZjyw5lJ3zBkMHaucmCPHL343LsqVGpztdky65NasDWyND6QSW4fotKIf8o6AvrD06QTvbPQqbTDr4MGVDo8/MFdSTrj9zgUOJMIlvIEn2KrJHPN2SMP+SDfjTjhTwhS8gP8oQsIVP8Tb4wstRJQCf0mn6hHYsZBZNLEmOEdnGuGd2dBDSZvoHeZobW5xV0QSPjCHrpj6XiZacQ2YC1A6vqdGTK6UzbUoE2k2iz327OIewYEaJalA7JjK/dYwMUo4E3jJHiuJihalangWug0bXTCpDZhMTiTFnGD0/Kw3c9JtVifRMOmzzWnzMi67atkXTebqzzoV5Yvd2u0JqmZ0VlC/kXqfNUwfrL+hTY0b+GMsUJItpHrlCoplS5bsaLhBJFjlCk/I0sNZMVq7fR9dMVRvPpDGgEpzudsQxYjFtOYDkYEpe+pabtTKDL6uIcCQVjnrJ5cD7Ij4Ih+RGuoVHZiyEujwxLzSsAhc+pRU8qx1z9x/dNyOEnR2Xi+JT0r+6RnsEuOfjYMVl/9ohs1UgszeZIK0CPS0/x8iHYf9YfJj+WLJ8dyecnkyn7G0SVpaVAO/J5Kmg+0+iNiuelAQNRaVwOuuLy7XSmLSyitOFMkK8gHMn6DzsRn3n0sBx44qh093TL6o2D0jOQlz3/+4wMrVkhm3aulZ6Veclk084QGk4N1UuD00mWlgJx2nfq5DJeX5xqHodFrMlYGhc12X3LhWD9rdJyoFG9YdJyYLF62jUoUdtg98RJpwLGHvhUmGFTzKzMFQvSP9Qrg6v6pXegR/o0lStlGR+b0oi2HskataeG6qXDUvXHqexjH377jJ7guWA6VWhES5h0pmDpVxMXcCYx5f8qgkJsyZ/KiZr+L6Bu4Nl1W5EjB8ZlanLGrXOtXjcoAyt73SdVBob6pFiel8NHDku5dHIX6vOdQ41kIm46XXE60/Z8x7IZsAQJno/AdqG/SmU+mzMnBw+Oyrz+HhwekO6BvHsmjOe8cv0ZKUpJJqZ4LqriphoTJEjQHhIDliBBTNjUIR54qVh2U4dj41OS6crK8LpVku3KuBHGWzVyfRlJdaWkXK1JUQ1YuZwYsAQJ2kViwBIkaAt1Q1TWqKtUKUvfyqyMrB+UdRuG3NQh1zOZtPQP9srwmlWyWlO5onnL9j49d1DwIzFqCRJEwbI+B5YgwfMVhUJRZmbmZFqjsMHBPhka4gWoOrRSdSPFowgz0wXNV5Kenm7p7uF5J/+tKjYMk/WUBAnCQeT/A7wRPCZ9UfFvAAAAAElFTkSuQmCC;" vertex="1" parent="1">
          <mxGeometry x="270" y="60.00000000000006" width="102" height="28.57" as="geometry" />
        </mxCell>
        <mxCell id="PJXzIF6TXpeEWLcsnp0K-25" value="" style="shape=image;verticalLabelPosition=bottom;labelBackgroundColor=default;verticalAlign=top;aspect=fixed;imageAspect=0;image=data:image/png,iVBORw0KGgoAAAANSUhEUgAAAZsAAACLCAYAAAC3OTTXAAAAAXNSR0IArs4c6QAAAARnQU1BAACxjwv8YQUAAAAJcEhZcwAAFiUAABYlAUlSJPAAADq2SURBVHhe7Z0HWFPn98ePiANEBGUp4t4bFffeu+49q617j7pHHdRZR22tq2oddVRr3XtvcQ/cIgqCgoig4uj//36PwfqjkNyQ3JCE9/M891GumNx5znt2iv8TkEQikUgkKmKj+VMikUgkEtWQykYikUgkqiOVjUQikUhURyobiUQikaiOVDYSiUQiUR2pbCQSiUSiOlLZSCQSiUR1pLKRSCQSiepIZSORSCQS1ZHKRiKRSCSqI5WNRCKRSFRHKhuJRCKRqI5UNhKJRCJRHalsJBKJRKI6csSA5D98/PgPPYuIoDsBjygwJJRCw1/Q+w8fNf9KZJcmNWXzcKc82bwoe2YPsk+bhlKkSKH5V4lEIvkvUtlI6B/xCES/fkOPhWK5eOs27Th6ki7cvEUvo6Lo9dsYehsTQ18+JjY2NpTOLi05pktHmV1dqLpPSaomtsK5c1GmDI6UOlUqzW9KJBLJJ6SySebEvHtHp69ep417D9CR8xcpIDiE3gjl8s8//2h+QzuwaGxTpiSn9A5UJE9ualC5AjWvUZWyZXZnpSSRSCRAKptkykehTJ4IS2bV9l20bMs2YdU8U6xgtAGrpnzxojSoQ2uqVc6H7NKmJelgk0gkUtkkQ95/+EA7jp2keWs2kN/1m/T67Vsy5kNgI6ydrB7u1KJWderVqinlzuopYzoSSTJHKptkRmR0NK3YupOmLl1BYS8ijKpk4gI3WrVS3jRraH8qmje3dKtJJMkYqWySERGvXtGCdZtowdoNFPYyUrNXXWDlFM+fl2YPHUCVvItRypQpNf8ikUiSE3KpmUz4+PEjHb9whZb8udVkigYg0+2i/20aveAXunb3vlHiQhKJxPKQyiaZgISAh8HB7EZLCvxu3KIRPy6kS7fuSIUjkSRDpLJJJqS0ScmB+oyOjpo9ukFQP6WNDW+GBviRlHDovB/NWLGGi0QlEknyIuVEgebvEivGxiYFuWfKRDHv39O1u/e4WDMuUChpUqemzC6ZOKBfqlABquBdnEoXLkj5c2QjD7EfxZwx797TB6E89A334feDnz2njE4ZqET+fGRrK+M3EklyQSYIJDNCwsLoh+W/09LN2zjlORYE7j3dXKlW2dLUsEpFLtB0c3b61A1AGDX/98//0cvoaAp8GkKnLl+lTfsO0ZXbd+nV69eaT1AGFFrBnNlp6cTR5FOkECcQSCQS60daNsmMdHZ23FYm7OVLevAkiN5//MDV/1Aw33XrSF2bNBRWR17KJKwPWDmwPtAhIJWtLTnY27FCglVStbS3sJScKSziJW/6xGEiXkVRGqHEyghlY582rWavRCKxZqRlkwzBLUeDzS0HDtP1ew/Iu0A+alW7BjlncOT4jBLw0MTExNBF/zvku2wl7T99jl10SsnpmYV+GjWU6lQoK60biSQZIJVNMgYZam/expBdmjSUMmXickXw+Fy+dYdGL1hEB86cpw8f/+0OrQ24575u2oim9OtJzo7pNXslEom1IrPRkjGwYuAaS6yiAYjBFMmbm4Z0bk8Fc+VQnLX2TlhBu0+cppv3H+idaCCRSCwPqWwkBoOYTuWSxalP6+aUKUMGzV7dPHoaQrtPnmHFI5FIrBupbCRGAQH/FrWrU61ypRVbN0gq2HH0OD17EaHZI5FIrBUZs9EBYhAfPojt4wcOgEdGRVPU6zf0OuYtDxx79/6D5jf/BZlb6ezTkl2atJTBIR05OjhQarEPmV2pUtoa5LYyZ/Ao/XngMHUbO1lcn//W8cQHMuE2zZ5G1X1KafZIJBJrRCqbeIh684YeBgXT02dh4s+nFBgSQk9Cn9HT52GfFM3bt/Q25h29EQqHxyXHuYS2QrFgVDJShxETSW9vzxMts7q58VAxLw93yumZmfelFb9jTaBos06vgXTj/kPNHu3ABTdjcF8a2KGNZo9EIrFGkrWywamjUeS7d8JiiY6mWwGP6OSlK3TJ/w7deRRIT8PC6VX0a65FwVx+NLNMLCiajK1XgbWTPUtmyuWZhcoULcTdkLN7eJC9XVrxO7Zc7W+pwNIbPmcBLVy/Ka4Ojhe43OB+Wz99smaPRCKxRpKlskGs4HnES7oX+ITOXrtB567f4HqTYGHJRAurBqOSoYTUvDQQspjvYpcmNc/yzyEsnWJ583Cho0+RgpQ9s1A+mHKpMP5hLuCard21l76eMJXdj0pAa5zjKxYJK9Bes0cikVgbyUbZ4DTh8goICqaTV67Sn/sO0cnLVynqzVt6bybZUFAscL15urlQ46qVqXY5H1Y8TunTKy62NAdQb9Nq2Bh6GRWl2aOdrO5utH3BTKF08mj2SCQSayNZKBu0Rznid5H2njzDlsydgEAO8MM1Zo5A6cDl5uLsRIVz5eRZ/vUrlae82byEMkql+S3z5cSlK9Ry6BgKDQ/X7NFOJidHWjZxjFCwlT7tkEgkVofVKhucFjobbz10lJZs3spV7pHRr1V1jakF4jxZXF2oQeUKNLBDa8rl6WnWGW1Q7K2EskH/NSU4OtjTgpFDqWPDepo9EonE2rAqZYNTeRsTQ/efBNG2Iydo84HDdPP+Q3oj9lnDaSLJIEO6dFS7QhlqU7cWlS1SiK0fWEHmxO7jp6j18LEU/UVXaW1AmU7o1Z1Gde+s2SORSKwNqyn4gDJ5FBxCP65ez/GCCT8vIb8b/pymbC36FNlw4ZGRtGHPAeo0ehJ9+/0PbLlFRL4ym3PEcTx59lxxnU0s1nKPJBJJ/FiFskF2GWas9P9hNvkuW0W3Hj5S3BDSEoFgRtbcTmFB9PWdzduek2fohVBEST1yGZl8R85flMpDIpH8D1ahbO48ekxDZ82nXSdO/89AMGsHAv1Z+AvauO8gdZ84TWy+rHRQeJpUsj70RQQdvXBR85MeyCkDEolVY/HK5k3MO1qwbiNd9L+d5Kv6pALuNXQ32Hb4GHUdN5mGzp5PR/0uCEvnFY8RMBWwJnccPUEhYS80e5SBNj6oNZJIJNaLxSubCzf8uVX9eyt2mykFhagoVl2xdQf1nDyDpiz5jc5evc4JEqYArWo2CStL3y7OaOLpmtFJ85NEIrFGLFrZQKgdv3SFnoaFafZIACwMtNv5ef2f1GfaLJqzah1du3uf+7mp5V5DW5/ft+8mvxu3NHuUg/5wnq6ump8kEok1YtHKBnU0D58EKW6LktxAn7Krd+7R9OWrOHNt/roNPKzM2PNjoMT+3H+Ift24hZuY6ou9nR2365FIJNaLRSsbBMjfffjA8/Al8cOZa0Ipn7l6nSb8vJQTCRDjQi+412/esuvNEOCi23HsBM1cuYYehz7j79MHdEvI6uYqLRuJxMqxaGUDQYX5MDKRSRmwaM5dv0mTF/9GvafOoLlr1tPZqze4nY++QKmERbykDXsP0Pe/LucWQIkB97Bovjz8p0QisV5SThRo/m5xpLBJQbceBNCJS5c/zZWRKAJKJ/BpiLB2rnEfMwT2kRFmlzYtV/Oj6ac24Y9amruBj2nplr/ppz82cep5Yi2kVOJ7v2nehEoUyKfZI5FIrBGLbleDAz99+Sp1GTeZxwVI9AdKxS5NGh7kViBHNvIukJ+8C+ajHFkyk4tTBnJ2TE82KWwo5v07znR7/DSUjl28zE1Nr9+7b3C/OTdnJ9oybwaVK1pYs0cikVgjFt8bDZlXqCtZtHGLTBQwAlA+6ezSUmYXF3JxzkBODkLZpExBMTFC2byMZIsI7XGMVb9Ttmgh2jpvJrkKpSORSKwXq2jEefrKNWr33Xh6JAShxHLA8Lix33Slkd07c62NRCKxXiy+qBPA9dO0ehXNTxJLwcMlI9UoU5pS29pq9kgkEmvF4pQNgttounnswuXP7WlSp05F3Zs34bHKyTmnycYmBY8hsITMLszjqVyyBBXMmV1mokkkyQCLUjZoMLl6517qOn4KTfxlKQWGhPJ+iKoCObJTt6YNySFd8ptjD3dUNg8PalylEnVsUJcqFi9KGRwcNP9qnrg4OVGLmtXIOYOjZo9EIrFmLCb1+XlEBP34+x80c8VqehzyjJ6Jn/Nk9aRi+fJwqi4EroO9HV26dYcCg0OSTaEnUpUbVq5A0wf1pV6tm/HfG1WrRJ5urnQn8DHX0JhbWA6WTIUSxah7s8aUKUMGzV6JRGLNWIRlE/4ykib/+hvNXbOBQsNffKqKF1bOpv2H6EnoM81vEeXOmpVa16lJjkm8qsf0TNSNONira2VBaJfIn5fG9/yaKnoX487J6YTCxQjpzo0b0PDOHcgto7Pmt80HpFp/Va0yebq7afZIJBJrx6yVDZRKQPBTmrx4OS37aztFvX6t+ZdPYBInJlXGdjVOkyY1NahUnqr5eCfJqOS04vvrVSxH62dMps2zfWnZpNHs3lMLpCg3q1mVCubKwdbdl+DfmlSvxMrInEBcqUyRQlS3QlmZgSaRJCPMVtlA0TwUimbsT7/S0i3b6E08Q9FQ7/Hz+s10/e59/n3Ebrw83KlLk4Ymr9tIlcqWM+LmjxxCVUt5U/YsHkLxVaAaZUupFgBPmzoN5fbKmmA2l1P69FQ4d87/KKKkBMf0ddNG4vrIxpsSSXLCbJVN0LPnNGP577T5wGFuGBkfiESgbcr6PQe4hQqAYK/kXYzdSqbKckqfzp56NGvCcZPcWT0/fy+y5WLeGbfD8pdERkfRwj82cWt/tJyJb3jch4//mE38CtelQvGiVKt8GbIx0b2RSCTmgVkqG7SsX/LnX7Ru937+uy6gkG5/0QjSycGB2tevS85iFa0mEJ74rm9bNqXxPbtR1i9iEO8/fKBD5/zo6IVLqgXoMUIAKeBDZy+g3lNn0paDRykyKvrz970Uf78d8MhsJpgiA61z4/rkIjPQJGYGOpGgrCJGy4Z/V9IDEJNzdX0WNrXkgrlidh0EXr99S+t27aOR837mxAAlwE0E18yPwweRXdo0vO9lVBSN+HEhrfp7J48hMDb4zjzZslLfNi2pfYM63EMsFszZ2XbkGH2/aDndfhRoEmEPxYdjqFXWh7qJa1EkT07ae+osjVu4mIJCn2t+K+mwT5uWerduTmO/7Wq2I6DxKuBlwP3CYuGjsArxd+xFex68KVzLJK51ihQ2XCuE2KCt7afO46aypCXGBfd63+mztOv4KXovFnAJkSZ1an6GC+RMOA4LJbPz2CnaLz4PCkwbw7p0YBmSXDArZYOXG1bKd3MXcmKAPmDVvHj8d9S4aiVOg8ZJYSRyt/FT6dbDgE+/ZCSQCFCuWFEa0bUDVSlVgrOrAK5kZHQ0bdx7gHyXreJzMPXlxbmjgWaBnDkoICiYAkNChMBM2lsMIVy7XBlaNG4EZc/sodlrPmAx8lYsEJ6GhdPj0FDu//bwSTA9fR5GYWLB814IEDQhhVBydEjHm32atJTZNRNlcXOlvF5ZyT1TRmHZulIGh/SUOpUt3weJZfD23Tsuq/BdvoreiOcgIRzT2dPG2dOohk8pzZ7/gsWy79JV9OPqP9h60cbhpQupAtz9mp+tHbNRNlg5nr/hT/2mzqKLt27rLaQRA2hZuwbNGTaAOxgDZKkhZXrO7+tYUBgKhCayvKDQRn7dmYPvsatZHC/Sslfv2EPz1qznmJOZXNokB4J4yYRRVL9SebOJ1WDVCZcjFAt6652/cYtuPnhAdx89ZgWjjzWKxUY2oUTzZfeiUgXzU7niRSlfNi9x3s68GpYWj3kDVz1kxLRlK7UqG8RmN8/x5RZLCYH48tSlK4XyWqdT2RxZ/jNV9C6ebJSN2Sy/HouXfuZvq+nq3XuJEtLwpZ64fIUOnb/AFhJIK4RAu/q1qaBY5Rv6wuP/o+3+iK4daXLfnv9RNBBas1eupdmr1kpF8wV4Qfu3ayle0FJmoWigRJBMEWtBdx77PY1esIhWbttBpy5fo2cvIvRSNACLGljP244cpxkr1vA01J5TpovV7Xq64H/7c2q+RJKcMQtlg1Xmhr0H2W9qiAUS8jycVm/fQ/efBLGwh2grlCsH9W7TnBzs7D79UiLAyrVSyeI0/7vBNLxrB8rpmfmzosFYg2tCQQ6aMY8HiYWEhUtFowHxDLTQ+aZ508+uxqQCCuRF5Cvac/IM9fOdTb2nzKQVW3eIe3efuyzELlAMBW6UJyGhtO/UWZ5g2mXM9+yiufXwEfvzJZLkSpIrGwjro36XaOXfOyk6gRRnpUBpoUnnXwePiNXkpyw2NKaE26tsIoZzQVhmy+xOfdu2oCXjR1LdiuUotaYQEQoFwuuvQ0dYeO08flKn2ZycQNwC8az+7VtRRqekzT6DAjh07oJYEMylnpOnswUS8epVoqeLKgXKxf/BQ/JdupK6T5hGvwnlhjiQXIxIkiNJrmyehIbSL+s3051Hj4zyEiJA/+f+gxwcj8XN2Zna1qtNGRyUZ0Ghz1o1n5LkO6APje7ehfJm8/pcHInjfP4igpZs/psz3k5cumqUmJC1AKuvUK5cNEpct5IF8yep+wwLgt+37aIB03+ktTv3cHsjYw1+UwKe6NcxMXTqylUaPf8Xmrx4BT0Uz6ZUOJLkRpIqmw9CQO8+eYaO+F0UVonxBMDN+wFsacQqAKSoNqhcnvq3a0UeLpm0BuTQ2LJQ7pycAPDj8IHUvGZVypD+315rEBJo9jl24WIOAmJgmxQc/wsSAgYIi6ZiiWJJ0jYI4J4gdjZ39R80ZckKjqmobcnoAu661Tt2cTr6uWs35AJFkqxIMmWD9/7Bk2Bas2MPhUcqq6dRSvSbN7Rq227yfxDwWRGgIeWQTu1oTI8ulMsrK6WK05cLQhGKqNtXDem3SWNoWJf2YnWe87PbDCDTZMfRE9Tfdzb7+2Obgkr+BQkBgzu2pVZ1alCa1EnX++z+4yc04ZelNG/tBrNK2MCYjI37DtFwYREj+1I+P5LkQpIpm+g3r9kN5XfT+C8cPg0rWWS3BQR9qteBawcWCgoeN86aQrOG9KMezZtQm7o1qVPjetwBYK3vJPId2JtKFSrAFk4syMO/6H+bs5bg8z9z9brOgq3kCPrRDe/SgXq1aspFnEkBHiW4qSYuWkbrdu6lV9H/27w1MaSyTcmLjtgtNjkksaDC/FNSwkeDP0sisRSSrM7m7LUb1Kj/UAqLMK5V8yXIQINyQQv+jHFapMBvDzcGivmgWFCoiUK8L19+XBpYXX8fPk6/bvyLrty5+7kHm+R/gSIf0K4VJwQk5YwaCPFR838Rlu0uepvIlGMkN7gKSziLi4s4F0dyz5RJPB+frDS44p6GvaBI8T0h4eFsNaFeRx/S29vRwA5taGjn9lwgKklaZJ2NaUgSZYOK9pHzFoob/IfqbgS0cOnUqD7XeuTK6qnZqxu44hD4/2P3Pjpw5jwFhT5Lcp+/uQKB2atlMxrUsQ27K5NqtY7Fwy8bNnNMBO4qfYAbFb3tvAvmoyolS3BLkqxubpTJKQMrny/P6f2Hj/x8ILMMXSKu37svrN0bdOPeA3atarN6saDB5y8cPYzy58gmLRszQCob05AkyubBkyCq32cw3Xn0WLNHXdKlTUtVS3tTjxZNqGqpkiwcE8qQgsCC623Rpr84hRo1E9gn1Uz8pLe3Z3fk0M7tyMPVJcleHCwEsCjo5zuLuwAoBcIew+ba1atNTapX5vlDECpK+p3h1cH3vnv3ni1guG43HzjCcchXr1/Hu5DCiIWFo4dSqzo1zWr0Q3JGKhvTYPKx0LiZM1et4wJOYxXS6QLK4t7jICGM/Oii/y0Ki3jJtRdwiaFzctjLl9w1+qSwZFZt20nTxMOy+8Rp/j1TpslaEhDCyDrr2aopJ1O4ib8n1UsDoX5bCPrxPy+mS/53FFugiCtV9ylJPwzqy3E7jIfAPtRm4fx0WR34dyxa4IZFc9GcnlmosrBaMBwOXQOevXjxud4LwKppWKUiuxvTGVBkLDEuXJ935Rodu3iZ6/4SAgkvberW4vucEJA16MSOFki6ZAeSkdDmKLkoG5NbNkgb7jhqAvk/NE5djb5gNYk2Nghmw8JB7yoEahFIxuoUf7IlkwTHZklg9PWA9q2pR7PGrHSSEsRm0BoGxZPRYhGhhPRCObSrV4sGdmzDjTShYIwFuhU8Dn1Gu46dpOVbd9DFm7cohU0KKl+0CM0eNoBrj3QpMonpkJaNaTCpHY+6msPn/OhBkOm7IceC1Qb87chYunL7Ltc7XBDC4M6jQLZkUPUtFY12kCI+qntn6tO6OVs0Sc1D8Tz9ffiYckVjb0+dG9Wj77p1ovzZsxlV0QBYMNk83Klr00a0dMIo+nnMcPp5tNjGjqASBfJJRSNJlphU2aCb7lFhYsbIxoQWCVxGCKLPGNSPvmn+FSdfJLXYhFW67egJDtIrAcF+jO/+7utOPLpbTcGfJlUqKpInF3Vp0oCHxhXMmV3GaSTJFpM9+bAWrt65yy4FaTdYHsjWqlCiKK2cMo7a1qvJoxbMgQfCQt2wZ7+wVpVZNYVz56LRPbqQp5urSSwMfAdiOthMadHAOIcbB6ngz8JfcJYc/sTPcBMbAuIauN7oL4cu2fjs2A1tnDC4EOPQk8JD8Mlz8ZbbFH15XDhOHC9cZtbsucC5IRaNcADOF9chdkMrL5y/vl3NjYXJYjYImE74eSktXL+JT1hiOaAGqW6FsjSyW2cqWSh/krWgiQsCu+t376NeU2ZywocuoCBnDunPU12/LNo1R6AQrt+9z0Ly0/zQf0FyAWbnYGBgfAqMi5Bv3qaDZ8/TBf9bFBgcQh+EgLGFe09Yc1VLeVP9iuUoZ1ZPxZYWknlQVwTXM1K80Vk96NkzHjgXAwGu+T37NGnIy8ON8ufITsXz5+Ehg+4ZnVUfJgfFei/wMY+JuHz7DrtWMUoiNkifWtzvLG4uVDBHDvIpWogqFC/KcUdY65Yes4lVMDcfBIhn5gHdDQykAHHPI15hLpPmzogvQRJLNg8PypstKxXMlYPbcqEW0VSLIJMpG8RIkBhw6sp1zR6JuYNHEMkUaGI6sU938nQ1jTWglEixgh40cx4XcOp6jHHcGN6GGEpSJzQoASvR/j/MoX2nzvxnJYrR5+WKFiHfQX04gy4WXAM0Gp27Zj39uf8wz4iKLzMPWVXIivtp5FCt1wLfG/X6LQ+V23b4OM+KwqiEFwrbS0E4lyyQnzo2qksNKlUgV2dn7lNoTCBk0Zro9+17uJv3vceP2arShlN6ByqcJxe7gtERHtcDYyAsTdng/mCCLCYSr9u9n85dv0GBT0N1jrJAFwwPl4x8bzDSvqJ3MV64qL2INEnqMx74Yxcv0aKNW+VMDwsBOgUjj1GoiRoaU7md9OFe4BP6ddNfvILVhVvGjDT2my7cisjcziM+0Nli476DdOXOPWG1xXAKdewGF8ldsYrP6u7C54MEB6zgbwc8ou/m/kzrdu3lZJeE1C+sFCcHB2pes1q8HQwgxKDsdp88Tb5CAM9atVZYSX70KPgpeyiUgncdjWoPn7/EiThOjg48gNAYQg2KFTFgTMUds2Ax7Tl1motslZRTwPLDsEOkOuOawfK6FxhEJy9ftYjUZ5x7uDj3vw4e5XR/vANIcsL10PWdAL/zMiqabj8KpL2nzrI1CLzEsdilUW+yrEliNu/ffyC/6/5ilWR4nyqJ+uBh83Rz4zY/I7t3/jxm25yAQLxx/wE3c1WCT5GCVF2sSC1B0SgBQu3U5ess/CF84HIbPGs+bT18TKebGq4zuJDicyXic/2E4MIU0x4Tp9Gm/YeEMg/jVXpiXCA4Nlig+8+co2+//4FW/r1LkctTG0gKwfn2mjKDpi5ZyZmkuqyZ+IBCXrdrHw2cMZdOX71G/5io7s8QcH/8HwbQuJ8Wc59GLAKgeJQombjgHUJc59A5P+o7bRaNX/gre6Bwz9TAJMom6s1rrq+RmD8QxdnFCmdKv57UoWFds82eei8EDlZzSgQXhCriFIZMazVH0IkDRclwnf24+g86fA4j0XU3iIXCRZ1RXAsDPd4gfNHVfPWOPbz6NSaIP33/6zLusJBYDwfidFCGGPGx/chxFr6GwIr63gM6ev4ivTPws9QGCgX3uN+02bRq+y69rExdwNrDlOMJPy+hm/cfsiIyNiaRJMGhz+ne4yeanyTmjIO9PfVp05x9uUk9ylkbKOT0f6Bs1DJStMsXK2z0eEFSA/dhRGQkbdhzkOuMlApwBOud0zuQre2/ygauuhVbt9Ow2Qvo3PWbiVYGugh+HkazVq6lE5eu6C3QoBjQSgrFu7tOnDJY0cSC42DLTaUVvTHAkfmJ+zJszgI6fP6CURVNLFFv3vB4/kmLlnFRsrFR/e3DDYSiwWx+iXmTzt6OOjauT+3q1zH7ehD455WY/FjF5/HKSnmze1mNCy2WN2I1uufkWZq35g96+SpKs1c3NjYpyEko4Fg3GlxQmGbqu3w1t25SG6Sr+y77neNO+gDLa8HaDeKcz2iNrcQF9x1ZZ9gs8RmAMoSi6TNtFmcCKgELCtxfxJnSpk7NSQGwZHWdPxT4juMnac6qtXo3s9WF6hIFDzLcHUrrICRJAx7MmmVK09BObSmzSybNXvPlWXgEt/fXBV46n8IF2WKzNpA59dP6TbwK1WdNbpMClo1QNho3Gub1OKSzF4JGuTUDAYaO2OjyjQ3ZTEjJViLM4epDMH7n8VOK+9hB4B44e56zrnRlecUC4eoijhFdIpDu7FOkEBXNm5tjkOiBZymKB8/59N9WcyhC1/WC9Y5WXOjPh273wzq3p3E9v6a+bVtw5l32zO6seLSB52rF1p1sPRrTnaZ6NhqSApAtgaCWOZupyRm8crm9PGl4t44smNWuiTAUPEeopUDKs66XDwKnk7DW+LwsaFULNyGC/Qh+J/TeQBC8EBaNvu8VUqdb1Kr+uXUOtmwebnTR/w53Yk/o8yCksmfJTLXK+vAkVnRGaFm7Bn1VvSrVr1yeShcuwLVMiM3ocvNA4aAGpGHlCnw8ukB8asxPv3JnbV1ni3ueL0c2ai2OsV/bVtyVvHWdmtSsRlXecPwFcubg30Whq1KXYVJko0F+Lv9rO8fSdMUnMXupSbXKNKhjW+rZsil3yqhVzoeqlCpBlb2LU3WfUvx3uJVR6IqYXEL3GucRGhZO1XxK8u8bA9WlCoq+8KAYU0NKjAuESFMhMKqV8raIdip4ieH7VzItFQWpSNu2hPPSF4iJhN4rB3s7ypvNi1e4qKeAgMzgkI6vQx4vLyqcO+f/rOwx+qBDgzqUUBIFhuM1F4L6p5FDaL7YhnXpwIK7bsVyYitLTapWpt6tm9OcYYOEddyOV9fagJC7evceXVaQOIQkiC0Hj9CZK9d1Li5QvFmxRDGaObg/Te7XUyjCylQ8f16+FthQzFijTCnuvD3/uyHUu01ztszMEVyjy7fu0u/bd+kcnY8aoH7inGYPHUAtalbnWUnOGdLzu437bC8WAShqRVfyMd90o+mD+vL1SAh8N4ZFHjl/UbPHcFR9A3HAKLiS8RrzBQ9isfx56OtmjSh9PDUX5ggE7CuFmVJwlzhaoQstPnAvUccCAbps0hhaM20irfGdSKvFtuaHSeJPsYl9P40aQsXy5tb8r3+pWbY0tatfm4seYR3AtYq/1y5fhuYOH0Rzhg+kWuLvEM7oMQcLODYWgjgQ/k9Wd1fq1boZKx40PNVG+MuXnLqry7J4HBJCWw4c0ek+w/lX9fGmGUP6UZ0KZbhiPj4rHb+XShw/KulHduvEo8zNsY4MAfs/Dxzi8ScJWSAAC4t+bVtSnzYtuEhXWyIMzhGLjiZVK9GYHl20Lgowk2n3iVOcIm4MVFU2WIUEhoRygZjEPEHGWbevGnEQ3VKcTCjcC33xQvOTdnB+WNVZOxCqWM36DuhFPwzowwWbpQoX4Om02F9WWDj1K5Zn91fZooV5OFxcnB0daUKv7lxfhf/ftl4tToFfNHYEZyeyIFNgIULIw0pCOxRtYOKp301/rfIBMgRFh2jFogscX+/WLaiEsGSg+HTBglcoU7hZEc+AVWROIPPu4Bk/rRY8zrNO+bKsaBCfUgoKgRtUriCs02oJus3xnl3wv8M1TbosSiWoqmxQzImqYyXuDknSgK7EtcuVMbtVnTbQKwyCSinGPDUkvFwTL5/fDX+DNjSkhYtZ24pVKbh3GGMNJdG4amVe6cYXn8IuXfcZArtnq2b044iBNHNwP+rerEmiqv69PNypfPGiWlfZOHdkpKE5aEIgZrHvzDmdBeFwFzWqUpHrqfQ9VlhgsGxszCg1Hta7342b9DBYe9EyknkQO/PIpH9SDyyclrWri3NPuGgbMa2z4jjQ/85QVL26MI/Rq0dinqDOok3dmuz6kCgD0zdHzf+Fuo2fatD27eTptOvYqURVfscFrsL29esIYVtJUbBdF8g0g/By1bjLEgNccOWEBYUxC9p4ERlF4Witk4DORdbh2SvXdV4nuINaJNB+xxJBMsCR85d0ZvEWy5eHShcqwG5MfYFFg9hdkTy5E1yEYPbXJf/bFP3W8DRodZXNh/f0OEQqG3MED5d3/nzckFFXKqQ5oldmmeHGw2ewgEKGGObnGLKhSvt5RASW95pPThwQGGjF06JWNbMZ+wDwfOXKmkUoHe3P1sePHyiSrZb/Xgdkq10Ugi44LEynBchCM29ui8o41MbzFy85PVxbYhUWi+WKFyHnDI6aPfqTwcGBigplk5AMgJJHgldYhLLmq9pQVdmgAyq6kkrMD8QykCaJ1jSWRkqbT/UTSkAKp9K6DEsE8ZGuTRpybMbcwERXWx2uKbjYIyJfxbsegKDFDCxdq3vEH4rny0sZDRC65gTOGwsSXXFJjLTHgjG2XioxQGGhA7Q21yMSvHhhZCCqKpuIqGhV2ipIDAe+XqSAxlaRWxJwGTiKFZkS8PyhFYu1gvHTX4lFg75xClMAd5wwcTQ/JUxCVkvM+3fcNVpXvzcUpaKuxhCha07geqAjMxbr2kgpru39x0FcHLv96IlEbbvE/8XYCG1uSnQZhzvNUFRVNi95Mp5UNuYG3n9UUmM1rCtgbI5gJattDsuXsHWNAWQGuqvMEdw6pwzpzTZOYegVRyU7CkR1kdo2FSck2AiL1xrgOrJnuuvIot9ids4K6jN1ZqK3fr6zaf2e/YS5QAmBFGi8R4beT1WVTZQ4QBRkScwLWDOxlcSWCBTkpxYpul1peGHvidUfukRbHeLtT4oYBdw8cE+iUzCUAXz6GPeAbsxH/S7SH7v306ptu2nDngOJav0fCz4fM1p0geJFPAsWuG6KF8QFMaBO1wKJp6eGhXPXb0M2ZANq+y58z8fYiZ8GoK4bLVJYNu+kZWNuZMqQgSqUKGaWrhclQKZkcnJUZN1AMJ6/fsNoFrZtSluLvW6GAGGE4j4E7NEZeMqSFfTtJF9qM3wsNR4wnOr1Hkw1v+lH9foMpq7jJtO33/vSkFnzdKYsawMK7bUC9w363plzh3J9wQL9ZZTyxqqWgqrKBvUQ1ui+sHQQTM2RxcMiXWixIDXXy91d81PCoBjt2r0H9OKlcQqLXTM5U7liRTjdGGnB8W2wHC352saCdxerbGTOzVuzgbpPnEZNhGLpPGYSTRXKZs3OvXREWDL4d6yQ4duHJQMlEbsZAjo7K2ngiyw8jC+3FuBGM8QiNDbIVENczNAnWuWYTRSbwhLzAaty74L5yDm9ZWfuoHCxQK7s/CLoAg0FMaPFGFXQCHpP7NWdfp82gRaPHxnv5jugt0V0zk4IKBm8uzuOnWS/PiyXcQsX84x/dCCGMDTFIlIuU80D1OEpjZFqQ1Vl805oZyUzwSWmA+05ShXE3HpVb73qxBYNplcwfRMBziPnL2gNgioFq7us7m7cURct3OPbmteqxo0tLRG8r+hw8M33vtR+5AT6besOjskYOspZopxUKW3JwU53Pz+kPqO5JpSBKpuHG2f5YWJvQU2XbEOwbIkj0RsE1tH51tLdPChmLJQrJ78QSjh28TI9eByk+UkSH2g5v0Ioly7jJtPmA0cMSndFenpiqtq/BI+okscUClJb8aOlYWtrQ/Z2ut2CRfPk4saqOxf+qMq266c5tGvhHPquayejZDxKZZPM8BKrcidHZTUq5g5WdYVy51KkOO8FPqHdJ07LPn0JgNgMxkKPmLuQ/B/oN3sKhYEOdmm5qNI9Y0YeZ4D5Qd4F8xuUTIFkDCVNVF+9fmNVlhesdowM0MWbmHdclI3uCWpsaKSKvnjokG0MpLJJRkAko7bGWqZW4jxQmGqvoB8YhNHKv3fSldt3ZdJKHBCEX7V9N835/Q+KeKU9kQKKHcF4xKTKFi1EXRo3oNE9utC8kUN5lb1j4WxeDf8xfQotGT9SkdBMCASlkYihi6jX1lU8jjoyJMDoUtQYjR6uIDXcXLAKZYNaA2QBoQkhRtNiw0MKn2ZC7bOTAhwnVi1I0+TjtP/3OE0x3CtNmtQ8SkBXc0RLAdcSkwSL5s2j2aOdmw8e0i8btlCkFaaVJhYo3hOXLtPUxSs4o0wbSMZAMfDgjm1ow8wptHnOD/TTqKE0pkdX6tSoHtUpX4a8C+SjvNm9KFtmd8rq5mbQ+4fvc3LQHfuKjIpmoWstiwjICVw/XRl2r2Pe0u2AR6Srw4K5oKqESylWJmoVnWGFhb5QiD98Vb0KTw78cdggWjl5HK2aOp4HRI3v2Y06NKjL0wrRFTYpguI4TiiUgjmzcy+ywR3b0qyh/WnF5LH0+5QJ9MvY4TSxVw/q2Kg+p9Qi6wNCVA1wHF4ehgkAcwMCDa3lobx1gSyqHUdP0N+Hj9NbI7RMtwYQl1m7cy89Dg1NUFjjFXZxcqLOQqEsmTCKJvX5huu00PsMbi6swLFYMnYc0E4sjlBPpQuMm0A8TlvLFUsC1xEziHRZhUjAQkdmSymcV1XqOIqLhVW7sYEVg06lw7q058FOENgw5bs1bUjNalblTCEIbwj2+d8NpqWTRtOE3t2pSklvnuFgKvASYs5I3zYt6Ocxw2nRuBE0rufX1KNZEx5OhZG1aA0/sGNroSgHiBf5U9ps3QplDXI/JASUTRZX1ySpOlcLPAuYY49sGSVn9SziBc1ds54Onj1vVrUMScWT0Od0+up1rQF2rLCRkQQlgxHTphqxnSZ1Go4B6VJiqOe5FRBgcF2PuYDzzeruTrmzZtF67lCu6NpgjCaZpkDVpyaVMIONaU3gwiMI2bZeHfp1/Aga3KktVfIuLqwWZ3ZNfenjxAsBRYcsisK5ctLXTRvTwtFDaWjn9pQvezb2i6oFjhMrwTZ1a9GCkUNpzLddqUopbz5OxBcQUI0FVgbcWkhJRnYVXuq5IwbRqO6d+WdDAqxfEnvtMnFbD+tRNiBPtqzUtEYVdkvqAm3rMfv+h2Wr6IifcdKhLZkLQlhhQJY24HrtigFdwpIxNMNMHyA7MCefG3pqAYry2r37iR5fjPorDHo0p8IeLNQreZfQqdiv33vANWSWYNWpqmwcxEpa1zwLpWA1jvkY34vV1bQBvah04UK8UlcKBDqUzKAObbjwrlKJYqq4kyDIPV1daKxQMHCXoQeZrlnsXwLlgmyeAe1a0zxhlcHKMUYrDpwr6kPUsJiSGrs0aXkIXM0ypRW5IJEqe1a8oGPmL+IqeBQwJlf8HzykqNfaU5wxZjkxIwwMjaHgnS+eP4+itFv/+wF0wf82Lyb0AccYEBQsnocb9M6MLKPUQsFWKVWcXJydNHviB01mF2/aSo+CQ4yiK6G0PojroEb8S11lw2404ygbr8zurGh6NG/CmTCJcQVBEWD1W7lkcZrSvyfPZf/SyjAUfD4E+vCuHXnGCGpaEutyQLJDtdLe5DuwN9URCsdQ1wWuVxahBPVR0JYCHgUo6CGd27GvWwlwuUA4jf3pV5q1aq2wdu5z/MKQlwz/F73A/O8/VNRmxRxAwevHf7QHmFGgqsu6iAtSzNGcky2GRIL3KbewqmDh63rf0RB09fbdFBIWptmjG1g0GO74y4bNdPzCZbMKtONsMUGzcO5cn3YkAJQDWgYt+XOrQZlpcCnDSlq3ay8t37qdjl+8bHTlq6qySZ8unVEynzI6OtKQTm3pq2pVjBY8Rx3AtAG9xaotHz/UxiCjY3qOx3RsWNcoFgSskQI5c/C5K3nhtAH3B5IkEHS1RnAPfYS127NlU70sSXTNXbBuI/WdOpPmr93I1fPo8aUPEFqh4S/omBBYM35bTWMWLKLg5881/2r5wD2lT2ox3Frnrt2kyYt/M6gwFDild6AqJUuwS14bWDwcOHue/tx/WOccmFjuBgTS94uXCwG7j6IMPE41yJTBkar7lKS0Ot7Z2BqpVX/v5MWDPmCBhBZEa3bsoYHT59CwWQto1LxfaOCMuXT0/EWjtHiKJeVEgebvRge1DRv3HUq0LxUg/bFt/do0tFM7o7qAYCmgKBBuqzNXrxm8EsXnYcTy8K4djNJHKBYoGPjKobjPXLuR6C66mPnRoHJFquRdzGjK1dzAvcyXIzvXily9c09xASde1sCnIXRWCMhjFy7x2OeQ8HB2tyFuAEGGDVk/+F0M9cLz8kJ8z+Xbd+ivQ0dp+ZZttGjDFtp7+iwFitWyLh86p22XLknlixWJ152LLtVbDx/jY0nI2sJdzOGZmWtdEstRv0t0+sp1rUIF1n/tcmV0unQAZtDgMycLIX784hWd9wAJHo2rVqLCeeIvzkVsFddyn7iukdHRmr3xgwzDh0HBPDoDQ+Xw2XE/E+cZJRYTZ67eoOm//U6bhHJS+k7BS4M4LKzohMBzgkXH6SvXdD4D3b5qSNkyeySY2IJzR5NRKG7U1GgT+3ger4hnHt8PDwZ6B+K5iu+a4nnCsYVHRrKCRpPVpZv/5oaqmJHDoyPE4iko9DmVL16Eu8QbA1WVDU58y4HDrDkTAy4T8vYRLIc5bWwhCQXh6ebKGTnX7t7XmpGjDRwVgtRweXFWlLGPUzx0iFcFPXtGl27p75cGUNTNalRl/7s1g6SQEvnysABBXY0+aaFQJHDHXL51hw6LVd3fR47Rlv1HaOfxk7Tv1FnadvQ4N6P86+BRWr1jN7suEPPZffw0F4uGv3wpnnllCs5clM2DoCA6eNaPzz0hUMeCd7lQrhxsNcY9XhwfBD2mRi4RQmu6sO5wDZUoe13KBqDEAYuHG0IY6iI88hUrT7wnuJfRr9/Qi8goeiLeHdwjdJH4ddNWYc1uIL+b/lrPOy6mVja4Hs6OjvysnL/ur1MpQuHgnFA39eBJMC/2/0/ICsRg8H9h9UCGnBfW+9ZDx2ju6vVikbRdfPZNtua/fMrwd1j9OAefIoiPGx43Vl3Z7D99jm4LczUx4MFGjKZJtUps4agBVg7Q3Fg5oTdUYsCxDWzfmlrXrRmv4DAGEKKoJdl78qzebh6AFxYp4XDHWTN4caFYUXwIn/OdR495ta0PeMEgPJE48DQsjIUoBN2New94gxLDywzXGVbbEFj6uhvMRdkgTvG3+J5ILc8U3mP48xGDQcIPrg+y+DBz5VHwU7buNu07xJbClgNHWEgpvR5KlM2nTFNbfkd1ufNwreASQ8udI2LBsOvEKdpy8Aht3HeQ/tx/iHYcO8GKEO+6LmUQF1MrGwCrEi1pAoKD2XJJ6FmIBc8iinPPCIW7//R5trrX7d7HiyNsWBxhMidGSaMgFEoooUU2zgWWokemjNy+xtbAEIY6klEDXqjMLi6an/QDD15uL0+qVc6H7FQMauN7sNqvWLxYooPwcJvBhaaWoomlWN48nOqdmO9B7MzZQjsRJwZPJGp06UCDOrYxqlvTWMAPj3hEQgLWVCDLLG923UkVWCVD2A+eOZe6jZ9CXcZO5iFpXcdNoR4TfWnGijV04eZtVdrG4BpVLe1NrevUZJmiFBxL8PMwFpgBQU95cZBQbRVcb+aaPIOShT5tWnBCk9LnBYoO9Td3Ax/zQiF2uyMW/rgOUCRKwKIHniljTLpVX9m4Jm6uB/zvpQoV4Mp7QwLjSkAVNOpgEjuAKX+O7OwjVhu8ELBOkIOvLymEgjJm5p25Exvr6te2FU0f1IctALWfIyVAWCD28W3LplS/Ujl2kSYlSCtGer6SVSuGmcFqgWWA2BZiM7BqIIyQCBB3hYzFG94NY3QMxrPfv11Lyp/dS7PHeMDq79WqGccn1F4wJgY8M8Xz5aF5IwdzxxRTgQac9SqW5xpFBwUdOnShsrJJyT1+Uici/RkKAMrGFE0jcTOL5sstVsDOmj36UVW8rEhVNgV1K5blLgD6gnuhpKWLtQHF3LZebdowYwr1at2Mu14nhUDBMwb3XoNK5bml0pgeXcjTTdl4BDXBghA1ShVLFOVkCGOBoua+bVvSr+NGUBEd6btKQdx2xNedhNXqqniFrw18BlxEI7p1ZDd4ZSjdJGhppQQ8s5iw++PwQVSxeFFV+xviukC592rZjKYO6MWzbYxxvVW9sjhAuNEyOOjf0h7xGmMM7FGKm7Mzd1rVF1hgiA/gT1OAa5nHy1Pvm58mVWruUpAcgUDFwmXWkAG0Qgh6NIxU0zUbF6zw4aqdPrAPfz8KdaH4jfECGwMUO/8gjg2dNgw9pE/vfCYa901Xmtz3GxaQmAxrDHAfm9eoRhN6djeKJyGbWHh83+dbGtC+FblmdKYC4jrY2Jiv9Y/nCKnQy74fQy1qVzdKsXdccP9yeWbmtlnT+veinFkyG+05VVeNi4PEPASsHvQFq8DEWhqJAYVrWdz07xuGc3PL6GS0G6IE9FvT9zhh2ehbmGdtIMALlxFa32Nr36AuZ/mpsZrF84DVIboazBo6gJvDdmvaiP3vpnxWlIDjQd0ZFI53gfyJdjdC+DWoXIF7/H3dvDF7JWDxly5UkM/bGODz2tWvzYKwtDjmxCzycJw1xH2Z+90Q6tio3meLP4dnFk4ZNmegcNA+6IeBvXnDfTNG8hSegVzi/Pu3ayWe1QnUuXF9RbOE9EHVbDQ8sng4kB1xESm7H//hk9K12YgHqHGVStSqTk3VstDiAmGMDKQTl65yUCy+44q7waf5VfWq1LpuLc5qMxXISNl+9AR3fY3vuOJuMMHRGbulWA0lNgnCWsD1QM0SKrNh4dStUI6FDBp0RryK5iwqXRk/8YFnHUIaMZjMri6caTS6R1eOBSC4jSQFfeIzirLRxJdi5dnZgGy0WHBdkGUFlzDa19x7/ERxEBnuN8QSJvXqTkO7tOf4Qux7i+cNSvfWw0ec1Rc3roPf05WNFhdYOAXE99Uu58OZhlfvoWxB9z3DsaAGZWT3TjSxdw+hWPPyZ8WCuATiUMj8iu+SY0SHzmy0jx94Kuzpy8bJRosPXCfEmUoWLMAJVLDyAoJDuL5MnycX34tr4unmwi6zSX17UJs6tdhAMDTzLD5SiAdZ/zdLT1A8hJuILAgl4OGsVdaH/zQlKGY6e+0GZ2woSYtERT56rMEENyVIO0XzPX/xAiupDULWE66nsVaX1gbqQd68fUsPg55yPcd1IbxQmIlgONLMUT/zQSyU4pJerIIziGcU1i0UTG5PTyE0c7IQQKcGCDKlAjQuyKTafOAwC2mtykZ8J4SWscB3oV4DzUoPnvGjS7dv08MnwZzmHCvQ8b1w57q7ZOKUWFT4ly5UgN+D+BYz+Myn4lqidun2w4D/qb9B6jMWbBhxnJhrhet0834A7T11htvtBzwNofCIl/z+4uNgXcE9jszWckULU3WfUuwxiU+Y4jiR7LDn5GnuNRZXBsAzAKtKW584KGikXJ+4fIUTKrSBbiPZs3hofko8uJ6ohUL3i5OXr/JU2qDnz7lv2pd976DYIVPhTnd3dqZ8Obz4WYWLF7LhS8WrBiZRNhKJJQEhg3oFbBAYECDxvSawVPCC4iWGi85UcTtTgYXMayHMYT2wgoi9BkKIo+4FQerYeTZJDY4VY5JhEX55v3CPcG/QrBWKzdqBZY7FKDYUNH/Z7w0ZqfDgpBL3LvaZTexiKDFIZSORSCQS1UneDnyJRCKRmASpbCQSiUSiOlLZSCQSiUR1pLKRSCQSiepIZSORSCQS1ZHKRiKRSCSqI5WNRCKRSFRHKhuJRCKRqI5UNhKJRCJRHalsJBKJRKI6UtlIJBKJRHWkspFIJBKJ6khlI5FIJBKVIfp/DL022tTv/PYAAAAASUVORK5CYII=;" vertex="1" parent="1">
          <mxGeometry x="390" y="50" width="131" height="44.31" as="geometry" />
        </mxCell>
        <mxCell id="PJXzIF6TXpeEWLcsnp0K-26" value="" style="shape=image;verticalLabelPosition=bottom;labelBackgroundColor=default;verticalAlign=top;aspect=fixed;imageAspect=0;image=https://blog.kakaocdn.net/dn/lNAtn/btribzxkkc7/YPt5yZXz22ngkUQsHPfaJ1/img.png;" vertex="1" parent="1">
          <mxGeometry x="560" y="40" width="75" height="75" as="geometry" />
        </mxCell>
        <mxCell id="PJXzIF6TXpeEWLcsnp0K-27" value="" style="shape=image;verticalLabelPosition=bottom;labelBackgroundColor=default;verticalAlign=top;aspect=fixed;imageAspect=0;image=data:image/png,iVBORw0KGgoAAAANSUhEUgAAAQsAAAC9CAMAAACTb6i8AAABa1BMVEX///8AAADRpBr/3Hb/4Hj/43r/3nf/5XvVpxr/4nnaqxv5+fnHrFw3MBrXqRvSpBp6aTjgwWiUdBLX19fCp1q/v7+behPo6OixsbFsXjL19fXDmRijo6Pg4ODR0dHFxcWIiIhmZmaSkpJ6enrl5eXwz2+5ublvb2/OnQBRUVGrq6uZmZn41nO0jRYnJydDQ0MYGBieiEluVg6BZRA4ODivl1GLeEDlxmpYWFg9MAhKOgmKbBG+lRiohBUuLi6Ecj0cGA1PRCV1ZTZdUCsREREgGQRUQgoAABBCOR4wKRbEqVv/66DTtmKzmlNkTgwqIQU4LAfatU8AABn///H/+8n/7JQNEBb/8LRRTUFrYEJ7bUmThFtOUlyjkmD16s7Tzb23omeopJfLuoyMgF5tZ1br0YzRu3+gmIDKu5IgJzKOin8BEiL446vj1Ky6lzT/75TV0MM2PUqCemRYXWfUuXS0oXXWrTh5eHH+89vAJ7yYAAAYgklEQVR4nNVd+0PTyNombZqkLaRyLZTSC1ioUEBALgKVIqjgAdRdPZ7dVXfdbz27rJfjHs/x+Od/mXcmySSZyXVS8flBgaTTmSfvvLd5ZzIwcIVQ/toduDooSzszKX9FZVaqpPwVYjAnSVLzeopfUEHfUE3xC4ShKAHmiml9wSy0fyOt5kViUiJI58nNm82nxrVA3DA7K90RrzbKdus14Y0LR1Gi0BDc+CLV9pLgtlPAOOrnPbPDKyJFo7hD89wU2HJKQDr+8K7dZXFaY9RuFH2JJKzh1HDT6OXWWgrPr0q1OYP+ufIeRgX1cuyMFuYVIZ2eo1pc/R79Oyqi2TRRR73c7kgOCHC8btDtLT19ZPw7n7zVdLFkdPKBrA45yUj8CG85m3t2ZPw7K6K/aaJpdPIkl9+ShJJxx9naQP5AoCJKDStGJ3/MKWcuLqREsatTKqS5p3mknG+J6nNaQH19mVdkNxdJXOYbrqZqz+RzEI+rDTB2Y3I2d9fNxWrsNudcLf39+6wymJDefgDMyLCS9U6S2D7zpKeh51kZmk87S5IQEDC0lGw23/OQEc+ylj3tVAyqWzBXBHdeMBqoj7mswcWaZwzxMg6r7mbmnhrNAxeTgjsvGAtGF1fULIKHi1jPcd7TStmQOgWcuSue2kJP8R/ARU6MYHgamXuOWs+jHxuCOy8YKDL7Ac2RrKJ4BcPlZJRHa/XJxWp1abaBMDtbrS5OjtdGy7aB8IrFFxA69Vi68s4W6u2PwEVWHvOMA4S6MjpebTRXV7xUUVhZbTaq9Rmvtlh8hrlAGZL4ZrofgKTWT/ks7u+ReyCri3OewUXDi6ekbRTw3Pzaw/UFROwvCRfZrNeuJsUrhXBxiH772sP1RdnBhbItmoqf5Swtc197uL4AF/wXSy7k4YCxnZ4cTh1Tvw9dOzo84UvT65zZcm4K/X6lFyshJfmL+fAMMraPWWM6ubu1OTjckuWcqqp0eL9p/K7m5ez22djawZGblNeq1TCOd640FzUXF4ZT5FSgh1vnZ62cmsvLiqzA3MfuNEELqwNFUYCn7PbY2pHF5u82FYSLKx2QeLgwZrZpWk+2xrZl46ErWSewuONbVOclg5K8mm893DoxLv5KX8xdQ/df6YCk7uUiKytr0tDWYIdBg1uprMmsGxAhnbHtPP03zMX41x6vH1hcZJW8nMszaSCSYyVHt/l3uXjMHVx5LhhzJBiWg3qqBt9MAAnPq50Jj8WFlRBcywff7ODiSgftYFNfhh8SGRgJaYfDk/gNcFGLxUUWLy31wk8RwsXi1x6vH2bicaGCt7AV4XN4AaZvXIwuVquTo9FyzRCP/F/gmAxPSqbnAzarZz62xg15rY9zpGIG17caETwaiFN/zPmNQpHVztnY5vkZzQaEnVFULuaiP3bEmX1uhHV2IX/xmx8Xsnx+ghs9Prf1AzKr13wp7A8XxXJtfLG6tLS0OF67bpYH3JScWK2Hawzdu8PXgYr6kArWpuzR546lwQhThHAh1NeaWVxw59pW56r1yqzkwZ1QX4w4vORzkcfLaSfXtq6hIHTLutMwq2wPndcQcBHyAYVAzb04F4BbIRbLkZZ58Iz7NA9RO5sdI07NQaxuO92dqShThNgRQbFZZSkaEYCFQKvSRLc94zzhPKLibhabGUU14tO7lmAorShUEP9CSMxeacRgAiFoooCovWFzoaLYcpMavfFrNsrEoIDjVBG5HLoM7GZzabI2OlMul2dGa/OLs81bDAoo0QjR8j+Z1jE/6KACG9IoPoWDC0h6JC8Eu26N9niuzmpuxo+MFd+HAWs7/2VxoaBFxWu0WkX6j52xYHxakfP0rYLy4NYa/gJP9Vz3nyd+GguCM6bjiUbec9gK+aGhMII1puGcqZ3hwfPNM9o5GxLBhWk8GnwB8y7zO+Hj4sBHWc4WrAYPOqQAed5HQfGYrG5vkiQgHa+oyCQn3SpA6n12fCU9gAu/OABdXmUMUOlsDg05/46WT9wZTjcTedNLdXIBEy5IdwVhNfDJUnfFkQxUcfcdy8FQ8mrH9SfDkJz6zRFFHSTLAscnUwcHD6kJBsnzZEWNWCpuBenf8SAu+Dqjia6+YWtEt80wBjTkw4Wi4MlxMNiR1ZwjZapAYJsoZIeOhlmqD/ZIeXMMvPcfttUQthLNkUP+HJE7p0ZTp2NyzsusPOj7QEIARxmhZtkinwUitZwPkoKJu61cIBuovo2vO5UsKitYyzGTIfIm+pIEpdX18FQY0SsjPKMwx4tNLN/kWitINtDD5dvUPFKaZ5zLOByJTwXkWaLYofqcO3LH8M3uQAbjOBQb6OFy83oQug1zr6KVyTvxuQC9uRLtM5V6de7GHTPlcPNWszEZFKxC6TYh8aDlZzLRw93kjBayfmNcocn1wks4A3gix5xiRYRwt4LatZIiBx2+oUAPlxePIB97ykeXoLbjbziDrvUhWQouPlXXf9DiTRTVuMqJ1KFs2O2O2FdzYFJjZ3JmIyqL2ADliaO/06Oju1trax02GShm73GmCBKZNY5EKTn5HKKRuFEqVpx9qd1AX/TgTSuLykpQoQUdj+UoqINoGuSYQMGLTF2jqlvUbbN4JW4HQSwa4gbsA9DRvzKzl62jKQonKPHJhiEWpwf2r3et0F4ZOzQnX+zqTvh0f/YYQPLwd2YKI3Ytm5UMbY2tXTvBdi2uBw4KrU/7s8Cle8GyAQK4yKLapRx44HG3bYEu68N+zmJ9jjgjf2Nx0Xk4aGNT6g2dDTJxIB1PUb8+HDtziBleEIjZRciwpF49XV6kNkP9wZwksg3VGNCBKrOAlprHnJcczYDXuROzl5CRFbewwsLMrHPR6X++ZUloQKdcTwsl8Ib5n8ZV93E3TNxIIFNh4CbCwK2drZbqk9iFFQGFPWC55+NoEUcs9toI+mzChBgf5aqDiMvfXsIpBwb/R4N5bvkBmvN3OU424sKnbiFRkArVMimtz887Nkzu/DT2pFBYRz8CQb01ngeOpghvNRld81lEQpeluZj9BXWRxmE+M/Ty23e/vTwr6Fopoy3bfzzZYnvgEIfywjYUmPHLG+XtJNpvIR11Mb9KE/HLk4LBA0DDfzvdGsyqnNVzVJ/JzV2gSTDG0TWymiyPg/osOiwrUyLx4B8vbSIM6DBJ/lTzHN1Igm7uo0eVKQcsoVHU1jnOBydywOPOLzZqTZuJVWNqUEQguYBJ8pblbplPftM37WuEZscMoVGGrQrhuFUoxSTmmIVxe/n57b/HdF3LuFCAZY0/fCqajRse8i1u7si9xkY+Jg+SNbS4XQevU1wWZ9HOgt5cM+aGmwg0STbQ1QXug8+fGybGb2XkjCM2ipzLJkrvlZMIlRvOEpZSicFEJlOahqvvuM+9h5xsP6D0H3vTQLKU1vVEn6ZRdBfzjLCkAk2SXXT1NcdQIG0hDfnilLeklku2GgBZNwGlTR4mJOl2gc2FNoGuXrK1p9LxtMMEqzYD19HHzz4Ikgtmgdc0e5IQF4MZrGazrRNWUx5ssrQnHAISP1cpRF9wFhU3dDYXWHu+YFf0KSqMSNpqDTOwfYZ8bOmow5phKqIxbrg+QPK+yezIPHM7oYEeh4sM1p7veRV9HbCNR0YoqziRV2Gp1FCtrI8m1JwD2NdK4l/UrOWOHz5cuMhY5mlPuHGBW+qpnoEPsuZags5tw/yZ6rBnF6qDTLZ1G7Ue3+8sWycCHn4oaIUJJxcXbsHQCxhEMCg76ZR5WQaLcDpMCQAkuwwMOnwLqonkR4DcSDDHilbccfIB/Cotc99BBnNuMOHynhQVy8BB1iRJ3QYf+5riYI1xdoSF6ONBS5y8eokAWEV/px8sD9MpGhOOSVIKzwUSg00iBkg0FHx6SO/MpSm8x1NZiDEoyF/EyYKP2oFHjxqyltm1+7NbCMsFo04tj7c1GzZDUYfBfGzJbk0hVi4grxXd2So6KpUc1rMwYl9wuBilzIQFfM/vg2MErDSWosJah7SZ92oPE+bnH4IUzdUpROcCAtXIK/Tu41kcY9anLdHYc04SzUIBFMvCv8y8Ptu+5pUD6yvcVoVMEmqpIPniHxL1iMmcsvvgN+m+czJYonGP44eb8+XngDJnY3Ycwo2H277FnnhTWuLFv0bkuWU63H+njIbLlbBEg+diZHAS+C+fnA5A3cZcrOV9WRNUAg5LnBEm14ypM6cyhX2LjccuATBFY93hYug2Cjpcf830L6zHTcyHBCaEdUcOfxx2eidPw4DCCO9tmULRWzZGrxWWb5PfJ9wCoE/DJTrDF8WmYqEAn2IND3WKEYQ47IgrFohDRpSFM2tLxYaGx64Vuo/wXzR3VFoq7Bl/7tocRfIvLJ/isJXLyjhE2fQYErH+BXGZwllVc5/N0L5ujdzwvCF6YESlSDQorRrJvzB9CjJ+bF6Hhl3GRKx/QULVMEnCimk+NpwZXU1DAiBNexWkZoiG/WfavwDgWO4Pln+hKFumUBAJyILVPFCcOhQ+C5NjftyFOFwMNFFTwabZLIp/vO+RAC2zYURiLPup71OKhPIvMECgZv/F8C9y4HOe05NCPYMxP3TcSgoUhBXTwCAD43bT0XzEzm5n1tn2U+MZVXStCy2ynAy01H7UckWvWeR5uRfNcEFPxDpdPlBjAYH/dXu9nDEXgI3pDZ9hs4GdjMvnXi6yuc1zj6ZUDNFwF8wreVArws5Gh0I+XxeDPkuWl98uRabCkAwoQVhgeVxM50rOugtgVfDSG6KowNrT72DDBVo/3+el7mJA24cmJ0PvS/YY1UGhM8QcK9esll27UgVykdHBBEmvIh6jY1GDDyMTea4YrJLwArSaaUnNNE03xmTgAgesl0/jUSGDYyr2zSs7fMEw/atuQcNeNTfXHw8lMKyfWPozEDhSF1wygYvWWVeIqng8rZtetfRIKBdEZTSCIlYGyLHBokuWm6hRb9lWkZTXXBCfW99H0QdvQSwedDz3FrlLBDzkcdpL+KtG8NZs91/LJPQbKZij17R1vlWNiQKso0n1SIdcGFTgs/pSOPwa3EqXI2tqzWVqUpQKXVdKVwAZOA3yMdJ5U8SEpFGOydhEQpKaj6adYqBldjPUJPFzssNCfxyZDLnT4+q4xKi6VTIxIPe9g6V15+f1boYZoUQDToJ8DO1mKJ17qehNghWn+iRrYuv+80FDKaddblYzLLSMFEkylCxEIakUpiKMOogmYelegGrQfwKFklgwNJLn+RhKgcqEivTeVgWuRJP6WZImgrSkDl6aAIeDuBmhyFA6mIo0jyuVrFnSxB3rBg2y9OSt5F4dSUjGeKCfIbfwaQ+pbiLFm9orFhXLgc8b1IUUPXHhR0Y1wAPNk91YKR/ECDNj1aRiP3iImiB1gRsjOmPuud9OG5W84Sf1F4zAt5BKm+kQIyz8hu4UwgSQgYX/hU8IT0oR+nA8p+lpStJxGCpKn/+SvGtmCcggfsaDjxyloeTIYnM/Tue0TrYIQ0WmBPK6Li5u1UpkHW6JOU/kzqGUugWxgXO8vVBUZLRf0M1CQzWdFMC9eOU1rqaq6NOZ8KbjHU7s9ZcCVScBiVoN4/431xqZar7lqD+vCrDy3RuhyCj8W6TqNBvtkj58cohGvkXmx53+vCe2bqnOYDcLQQfrKziCt8yJYTefW/v2STlwosLeKMBn+1ziPSAhvIvSE2RGdoWm/IAMzazruPwZT5ScKRT9esM2OWrvAzGsmUAySmffiTUjFnBiFU+UZ4psaYqUN1hbKGJ5WC4MY63xKJAL7T/ovj2xGT8Mfd96dfncK1wQb2C1X6+UxmneCT3TfoNzF7uFgBwvNqmeihwh0DR3dXkfXxwMalAaQYqw/e4T/MKsIqD7+1/QsqlwQdkTC/16pQgWBZLFar/6i/6VBx242Be6QkDBXV3eL22x6BSE9qtL+IO/m6H/Djo2PdiicVyDKdwPhxObjtuWRSjpH3EffHN8+p8pc2GIBtYajYF3GVCm6b+DHlvTe1QnLDJGMBm4pkjX6QqjUgFzkdYcARSWH0kvyl8+t0l2I61srwUckDnisdJn4oROFPRCYXq/OzGyt4GxNzIyMtFd3t/P/M+43isgXtIjRNO6b960M1aqJ+VzwHB9nivE0j6TYrWNC7OelY31jZHusvEAQWhSYaPdxv/j8yJS9TGwCZlwu4/tJ8HH2VJ4tLu+193HlKTBSMYMYVdSPAoMLxW6LEZJ/zz2o/8rXTnYXR9Zzuhw8IdgmLWyCc7mDAAOyJwJC61w9pP/cfkB6O1uTOyLJqRgbktJ6525RSzgtFi39f/8+SD8uNkHvCLcXp+Y1owpI4YQzd7KltKZkjgKoUxIqUAzcbMRKB8DA5WZ+uLsgmeDDeD4/t5ypiBEhVCtpnI2GtabtgkptYdff2d+450lZM2DyKAs/ky9ynxp8u2NrqFUk/GBN/hK69j7EnuUCwBbCtu5bOt//GUOwDrOOeCkeI9fXKmxXiP9eKNbSiAfuF56fVov4cqVhmgqsL9ph6PtYevAglnKcrGl3wRnqWJmvuEhZHdvn3FqTDguesAE+lEHHSo6wQVG09Kbpfb7TwwmBqz1VTb8sgozk3N3nHcfX0xkCtG1aWHdZALxAmU8YlfO8BBNvVnSfn6L+9v0uHZ+5+YHJWMr9VmXgNyOLB7a8sW07QuWcJwm8rQ4nMozUzHtJ2YWnJUl8DspPsRXFWsuPu5tLEejw+EVa9PHvI7GAy5jNP3N9jYpVbvBdnF9XiIQMnQs1htOR3a9q8W1LSROE5bOgI6Z5YntYUIFd/bXJR4iTNzyZNPx0Yu4dOi4WEPQChquQiJNW3GYT0qR+9amiKs3Nad4xJGOEspqAIRE8FgMiJNV+kzWRHyFrsKL1SIHjterDjO9vhzNskDxMYGACB57FntYI5U0XOkamEHjeF1xiiEqkztUC/c2pkMXiRpCcc/+5M3kETw41pay+PIpFBU82xqz+LY436QauT0SrmbWFopj8LkSR/DYRJLW2+9wpUEYE0W/Fc9G7IxscZ6WjouurgfMFUsoLkb2dZzbSRjB47JWU1k8wVoxnFNbkxhIsvZdmaR0Ry9groBQHCMeIDWC9zEmW3kHT8XyLL4HnRg2DC6z8hXJUvWVKuWo705oXOHQuvfuAw/W8Tz3o3SdBTCnj4kn136P47HwH9/xcpG4XN9xOvDGPls4StPLuitVhuO0+BE8diXMMOQztiFRXDiGQy4gUKo3KeEwNAeLDK/A4Dgt7qozHruZ9m5/ASmJtiWFkSAX4fQUF+25chzSypZwGWTMylcQcTPXW3qCw5KIVtqrNNB22eJofXJyPOJr250Ypaz2/VAumJaBiqZYQSt2OM2W2l+a8WhtusloLlnJwNVEM2bSTio+HtGCi35InBYjaMUzxAzUS0+wAxqjy2xPw0SiutwZSjhCTBVSVB/dlsEMoWoLQH/Heo6jvmQk2xNXXLRjn4vlIDbI4mLUZWfQej2zkVJmIK5YoA775kEb8Rq1QB0zfrsbEMnquE4jWpxWdMwQw/seT9Rt33eXJ84tlG3b3dsr+SoOvN83WpwG9tOuPGp/vxNHuGz4zRMRO0cnbSO7kfETDlwEGcXlg2Di2Gqg9Bm/9jdBZ4sMJ9REgmapLttT5YLjjmIyIE6LsLi44pghmfabcEfl+IJvTxI1a4N6U8N9HzWK47TQwgjTmypUbH+ZSzZFADO8xWVhdRJFm+/bXS4beJGxEa5J7EpQn24PoGEkOi4YsMCkQmgBzbxlYx9NcPRGCcdp4fwDmNr0xpcnxUhixcfMKAOC6w/rlgW/N8KJ6jUophovVypBIglJffpg+/abWngirwBGLTXa2+P45o8soby1sFTjMwLTmt4J0X4PC0D92bAkBGXbOd/LMNggcZpNyCzbyYFxO4qa218aoqd16qjYRmWDwYbmOf5wpeqVjqJbcSJPC4TuK4woCaiXgDPYQHHag8vLy7cUHQ03G7NuxYnMCFrviHk4+NdE1YcNLfP51fv3797889eXP1yatzlVIoiF6wCkNqySpHOySMpY9GEj0wZoWqGwbC6lODbhwDRz7fRowzvC0yoQTBmT5om2D1h6wxQSPWPu8LSzG5DBcb8oBnPxTcoFwuTNEGxk9GmyCcUyl+B9L+vOk0TxHEnudn41zNNs8DKj1mHlDfIp9PO9ruuI2Yn6rW/QjjhgueZ+sqGTdzDijChz4c/EN+VfeGDpjeM9bn7DPGUEbKtvnvYb8juZsNkY4bFBEqINdLtvLu6biUe4sHbh9yY4ET05JhQJhl8VXvrvne4DLH/jdKLgPmwav9cCQljIWhX98LUHIgSWGhgaYUJAdcI3BF9FgCHyXOCrjaKvKkD4hn2pyKg0/LlIaQ/OFYU/G7MD/w8mn5+3Ap9YJgAAAABJRU5ErkJggg==;" vertex="1" parent="1">
          <mxGeometry x="660" y="39.99999999999994" width="84.77" height="60" as="geometry" />
        </mxCell>
      </root>
    </mxGraphModel>
  </diagram>
</mxfile>
